%TF.GenerationSoftware,KiCad,Pcbnew,(5.1.6)-1*%
%TF.CreationDate,2020-11-02T08:51:04-08:00*%
%TF.ProjectId,Input_Signal_Conditioner,496e7075-745f-4536-9967-6e616c5f436f,A*%
%TF.SameCoordinates,Original*%
%TF.FileFunction,Other,User*%
%FSLAX46Y46*%
G04 Gerber Fmt 4.6, Leading zero omitted, Abs format (unit mm)*
G04 Created by KiCad (PCBNEW (5.1.6)-1) date 2020-11-02 08:51:04*
%MOMM*%
%LPD*%
G01*
G04 APERTURE LIST*
%ADD10C,0.050000*%
G04 APERTURE END LIST*
D10*
%TO.C,J4*%
X122660000Y-76065000D02*
X122660000Y-67415000D01*
X126210000Y-76065000D02*
X122660000Y-76065000D01*
X126210000Y-67415000D02*
X126210000Y-76065000D01*
X122660000Y-67415000D02*
X126210000Y-67415000D01*
%TO.C,J1*%
X111230000Y-71860000D02*
X114780000Y-71860000D01*
X114780000Y-71860000D02*
X114780000Y-75410000D01*
X114780000Y-75410000D02*
X111230000Y-75410000D01*
X111230000Y-75410000D02*
X111230000Y-71860000D01*
%TO.C,J2*%
X111230000Y-83665000D02*
X111230000Y-80115000D01*
X114780000Y-83665000D02*
X111230000Y-83665000D01*
X114780000Y-80115000D02*
X114780000Y-83665000D01*
X111230000Y-80115000D02*
X114780000Y-80115000D01*
%TO.C,J3*%
X165840000Y-79845000D02*
X165840000Y-66145000D01*
X169390000Y-79845000D02*
X165840000Y-79845000D01*
X169390000Y-66145000D02*
X169390000Y-79845000D01*
X165840000Y-66145000D02*
X169390000Y-66145000D01*
%TO.C,C1*%
X116295000Y-68430000D02*
X116295000Y-76430000D01*
X121195000Y-68430000D02*
X116295000Y-68430000D01*
X121195000Y-76430000D02*
X121195000Y-68430000D01*
X116295000Y-76430000D02*
X121195000Y-76430000D01*
%TO.C,C2*%
X126910000Y-81685000D02*
X122010000Y-81685000D01*
X122010000Y-81685000D02*
X122010000Y-89685000D01*
X122010000Y-89685000D02*
X126910000Y-89685000D01*
X126910000Y-89685000D02*
X126910000Y-81685000D01*
%TO.C,C3*%
X151280000Y-63590000D02*
X143280000Y-63590000D01*
X151280000Y-68490000D02*
X151280000Y-63590000D01*
X143280000Y-68490000D02*
X151280000Y-68490000D01*
X143280000Y-63590000D02*
X143280000Y-68490000D01*
%TO.C,C4*%
X152945000Y-84225000D02*
X148045000Y-84225000D01*
X148045000Y-84225000D02*
X148045000Y-92225000D01*
X148045000Y-92225000D02*
X152945000Y-92225000D01*
X152945000Y-92225000D02*
X152945000Y-84225000D01*
%TO.C,C5*%
X158660000Y-92225000D02*
X158660000Y-84225000D01*
X153760000Y-92225000D02*
X158660000Y-92225000D01*
X153760000Y-84225000D02*
X153760000Y-92225000D01*
X158660000Y-84225000D02*
X153760000Y-84225000D01*
%TO.C,C6*%
X170090000Y-80415000D02*
X165190000Y-80415000D01*
X165190000Y-80415000D02*
X165190000Y-88415000D01*
X165190000Y-88415000D02*
X170090000Y-88415000D01*
X170090000Y-88415000D02*
X170090000Y-80415000D01*
%TO.C,R1*%
X127405000Y-94395000D02*
X130405000Y-94395000D01*
X130405000Y-94395000D02*
X130405000Y-82135000D01*
X130405000Y-82135000D02*
X127405000Y-82135000D01*
X127405000Y-82135000D02*
X127405000Y-94395000D01*
%TO.C,R2*%
X121515000Y-94395000D02*
X121515000Y-82135000D01*
X118515000Y-94395000D02*
X121515000Y-94395000D01*
X118515000Y-82135000D02*
X118515000Y-94395000D01*
X121515000Y-82135000D02*
X118515000Y-82135000D01*
%TO.C,R3*%
X128685000Y-80240000D02*
X128685000Y-77240000D01*
X128685000Y-77240000D02*
X116425000Y-77240000D01*
X116425000Y-77240000D02*
X116425000Y-80240000D01*
X116425000Y-80240000D02*
X128685000Y-80240000D01*
%TO.C,R4*%
X129310000Y-64990000D02*
X129310000Y-77250000D01*
X132310000Y-64990000D02*
X129310000Y-64990000D01*
X132310000Y-77250000D02*
X132310000Y-64990000D01*
X129310000Y-77250000D02*
X132310000Y-77250000D01*
%TO.C,R5*%
X145830000Y-88495000D02*
X145830000Y-85495000D01*
X145830000Y-85495000D02*
X133570000Y-85495000D01*
X133570000Y-85495000D02*
X133570000Y-88495000D01*
X133570000Y-88495000D02*
X145830000Y-88495000D01*
%TO.C,R6*%
X145830000Y-92305000D02*
X145830000Y-89305000D01*
X145830000Y-89305000D02*
X133570000Y-89305000D01*
X133570000Y-89305000D02*
X133570000Y-92305000D01*
X133570000Y-92305000D02*
X145830000Y-92305000D01*
%TO.C,R7*%
X145000000Y-83415000D02*
X157260000Y-83415000D01*
X145000000Y-80415000D02*
X145000000Y-83415000D01*
X157260000Y-80415000D02*
X145000000Y-80415000D01*
X157260000Y-83415000D02*
X157260000Y-80415000D01*
%TO.C,R8*%
X145000000Y-77700000D02*
X157260000Y-77700000D01*
X145000000Y-74700000D02*
X145000000Y-77700000D01*
X157260000Y-74700000D02*
X145000000Y-74700000D01*
X157260000Y-77700000D02*
X157260000Y-74700000D01*
%TO.C,R9*%
X159790000Y-72610000D02*
X159790000Y-84870000D01*
X162790000Y-72610000D02*
X159790000Y-72610000D01*
X162790000Y-84870000D02*
X162790000Y-72610000D01*
X159790000Y-84870000D02*
X162790000Y-84870000D01*
%TO.C,U1*%
X143320000Y-72110000D02*
X133520000Y-72110000D01*
X143320000Y-82810000D02*
X143320000Y-72110000D01*
X133520000Y-82810000D02*
X143320000Y-82810000D01*
X133520000Y-72110000D02*
X133520000Y-82810000D01*
%TO.C,H1*%
X117750000Y-64770000D02*
G75*
G03*
X117750000Y-64770000I-3450000J0D01*
G01*
%TO.C,H2*%
X164105000Y-64770000D02*
G75*
G03*
X164105000Y-64770000I-3450000J0D01*
G01*
%TO.C,H3*%
X170455000Y-92075000D02*
G75*
G03*
X170455000Y-92075000I-3450000J0D01*
G01*
%TO.C,H4*%
X117750000Y-92075000D02*
G75*
G03*
X117750000Y-92075000I-3450000J0D01*
G01*
%TO.C,C7*%
X142390000Y-66765000D02*
X134390000Y-66765000D01*
X142390000Y-71665000D02*
X142390000Y-66765000D01*
X134390000Y-71665000D02*
X142390000Y-71665000D01*
X134390000Y-66765000D02*
X134390000Y-71665000D01*
%TD*%
M02*
