%TF.GenerationSoftware,KiCad,Pcbnew,(5.1.6)-1*%
%TF.CreationDate,2020-11-02T08:51:04-08:00*%
%TF.ProjectId,Input_Signal_Conditioner,496e7075-745f-4536-9967-6e616c5f436f,A*%
%TF.SameCoordinates,Original*%
%TF.FileFunction,Copper,L2,Bot*%
%TF.FilePolarity,Positive*%
%FSLAX46Y46*%
G04 Gerber Fmt 4.6, Leading zero omitted, Abs format (unit mm)*
G04 Created by KiCad (PCBNEW (5.1.6)-1) date 2020-11-02 08:51:04*
%MOMM*%
%LPD*%
G01*
G04 APERTURE LIST*
%TA.AperFunction,ComponentPad*%
%ADD10R,1.700000X1.700000*%
%TD*%
%TA.AperFunction,ComponentPad*%
%ADD11O,1.700000X1.700000*%
%TD*%
%TA.AperFunction,ComponentPad*%
%ADD12C,1.600000*%
%TD*%
%TA.AperFunction,ComponentPad*%
%ADD13O,1.600000X1.600000*%
%TD*%
%TA.AperFunction,ComponentPad*%
%ADD14R,1.600000X1.600000*%
%TD*%
%TA.AperFunction,ComponentPad*%
%ADD15C,6.400000*%
%TD*%
%TA.AperFunction,ViaPad*%
%ADD16C,1.400000*%
%TD*%
%TA.AperFunction,Conductor*%
%ADD17C,0.700000*%
%TD*%
%TA.AperFunction,Conductor*%
%ADD18C,1.270000*%
%TD*%
%TA.AperFunction,Conductor*%
%ADD19C,0.254000*%
%TD*%
G04 APERTURE END LIST*
D10*
%TO.P,J4,1*%
%TO.N,BYPASS*%
X124460000Y-69215000D03*
D11*
%TO.P,J4,2*%
%TO.N,Net-(C1-Pad1)*%
X124460000Y-71755000D03*
%TO.P,J4,3*%
%TO.N,/AMP_IN*%
X124460000Y-74295000D03*
%TD*%
D10*
%TO.P,J1,1*%
%TO.N,MIC_IN+*%
X113030000Y-73660000D03*
%TD*%
%TO.P,J2,1*%
%TO.N,GND*%
X113030000Y-81915000D03*
%TD*%
%TO.P,J3,1*%
%TO.N,GND*%
X167640000Y-67945000D03*
D11*
%TO.P,J3,2*%
%TO.N,BYPASS*%
X167640000Y-70485000D03*
%TO.P,J3,3*%
%TO.N,ADC_IN*%
X167640000Y-73025000D03*
%TO.P,J3,4*%
%TO.N,GND*%
X167640000Y-75565000D03*
%TO.P,J3,5*%
%TO.N,3.3V*%
X167640000Y-78105000D03*
%TD*%
D12*
%TO.P,C1,1*%
%TO.N,Net-(C1-Pad1)*%
X118745000Y-74930000D03*
%TO.P,C1,2*%
%TO.N,MIC_IN+*%
X118745000Y-69930000D03*
%TD*%
%TO.P,C2,2*%
%TO.N,GND*%
X124460000Y-88185000D03*
%TO.P,C2,1*%
%TO.N,Net-(C2-Pad1)*%
X124460000Y-83185000D03*
%TD*%
%TO.P,C3,1*%
%TO.N,Net-(C3-Pad1)*%
X144780000Y-66040000D03*
%TO.P,C3,2*%
%TO.N,GND*%
X149780000Y-66040000D03*
%TD*%
%TO.P,C4,2*%
%TO.N,GND*%
X150495000Y-90725000D03*
%TO.P,C4,1*%
%TO.N,Net-(C4-Pad1)*%
X150495000Y-85725000D03*
%TD*%
%TO.P,C5,1*%
%TO.N,/FILT_OUT*%
X156210000Y-85725000D03*
%TO.P,C5,2*%
%TO.N,Net-(C5-Pad2)*%
X156210000Y-90725000D03*
%TD*%
%TO.P,C6,2*%
%TO.N,GND*%
X167640000Y-86915000D03*
%TO.P,C6,1*%
%TO.N,3.3V*%
X167640000Y-81915000D03*
%TD*%
D13*
%TO.P,R1,2*%
%TO.N,Net-(C2-Pad1)*%
X128905000Y-83185000D03*
D12*
%TO.P,R1,1*%
%TO.N,3.3V*%
X128905000Y-93345000D03*
%TD*%
%TO.P,R2,1*%
%TO.N,Net-(C2-Pad1)*%
X120015000Y-83185000D03*
D13*
%TO.P,R2,2*%
%TO.N,GND*%
X120015000Y-93345000D03*
%TD*%
%TO.P,R3,2*%
%TO.N,Net-(C2-Pad1)*%
X117475000Y-78740000D03*
D12*
%TO.P,R3,1*%
%TO.N,/AMP_IN*%
X127635000Y-78740000D03*
%TD*%
%TO.P,R4,1*%
%TO.N,Net-(R4-Pad1)*%
X130810000Y-76200000D03*
D13*
%TO.P,R4,2*%
%TO.N,Net-(C3-Pad1)*%
X130810000Y-66040000D03*
%TD*%
%TO.P,R5,2*%
%TO.N,Net-(R4-Pad1)*%
X134620000Y-86995000D03*
D12*
%TO.P,R5,1*%
%TO.N,/FILT_IN*%
X144780000Y-86995000D03*
%TD*%
D13*
%TO.P,R6,2*%
%TO.N,/FILT_IN*%
X134620000Y-90805000D03*
D12*
%TO.P,R6,1*%
%TO.N,Net-(C5-Pad2)*%
X144780000Y-90805000D03*
%TD*%
%TO.P,R7,1*%
%TO.N,Net-(C5-Pad2)*%
X156210000Y-81915000D03*
D13*
%TO.P,R7,2*%
%TO.N,Net-(C4-Pad1)*%
X146050000Y-81915000D03*
%TD*%
D12*
%TO.P,R8,1*%
%TO.N,ADC_IN*%
X156210000Y-76200000D03*
D13*
%TO.P,R8,2*%
%TO.N,/FILT_OUT*%
X146050000Y-76200000D03*
%TD*%
D12*
%TO.P,R9,1*%
%TO.N,GND*%
X161290000Y-83820000D03*
D13*
%TO.P,R9,2*%
%TO.N,ADC_IN*%
X161290000Y-73660000D03*
%TD*%
D14*
%TO.P,U1,1*%
%TO.N,/FILT_IN*%
X134620000Y-73660000D03*
D13*
%TO.P,U1,5*%
%TO.N,Net-(C4-Pad1)*%
X142240000Y-81280000D03*
%TO.P,U1,2*%
%TO.N,Net-(R4-Pad1)*%
X134620000Y-76200000D03*
%TO.P,U1,6*%
%TO.N,/FILT_OUT*%
X142240000Y-78740000D03*
%TO.P,U1,3*%
%TO.N,/AMP_IN*%
X134620000Y-78740000D03*
%TO.P,U1,7*%
%TO.N,/FILT_OUT*%
X142240000Y-76200000D03*
%TO.P,U1,4*%
%TO.N,GND*%
X134620000Y-81280000D03*
%TO.P,U1,8*%
%TO.N,3.3V*%
X142240000Y-73660000D03*
%TD*%
D15*
%TO.P,H1,1*%
%TO.N,GND*%
X114300000Y-64770000D03*
%TD*%
%TO.P,H2,1*%
%TO.N,GND*%
X160655000Y-64770000D03*
%TD*%
%TO.P,H3,1*%
%TO.N,GND*%
X167005000Y-92075000D03*
%TD*%
%TO.P,H4,1*%
%TO.N,GND*%
X114300000Y-92075000D03*
%TD*%
D12*
%TO.P,C7,1*%
%TO.N,GND*%
X135890000Y-69215000D03*
%TO.P,C7,2*%
%TO.N,3.3V*%
X140890000Y-69215000D03*
%TD*%
D16*
%TO.N,GND*%
X163830000Y-81280000D03*
X154305000Y-73025000D03*
X146050000Y-79375000D03*
X139065000Y-84455000D03*
%TD*%
D17*
%TO.N,Net-(C1-Pad1)*%
X121920000Y-71755000D02*
X124460000Y-71755000D01*
X118745000Y-74930000D02*
X121920000Y-71755000D01*
%TO.N,MIC_IN+*%
X113030000Y-73660000D02*
X116840000Y-69850000D01*
X118665000Y-69850000D02*
X118745000Y-69930000D01*
X116840000Y-69850000D02*
X118665000Y-69850000D01*
%TO.N,GND*%
X120015000Y-93345000D02*
X122555000Y-93345000D01*
X124460000Y-91440000D02*
X124460000Y-88185000D01*
X122555000Y-93345000D02*
X124460000Y-91440000D01*
%TO.N,Net-(C2-Pad1)*%
X117475000Y-80645000D02*
X120015000Y-83185000D01*
X117475000Y-78740000D02*
X117475000Y-80645000D01*
X124460000Y-83185000D02*
X128905000Y-83185000D01*
X120015000Y-83185000D02*
X124460000Y-83185000D01*
%TO.N,Net-(C3-Pad1)*%
X130810000Y-66040000D02*
X131445000Y-65405000D01*
X144780000Y-66040000D02*
X143510000Y-64770000D01*
X143510000Y-64770000D02*
X132080000Y-64770000D01*
X132080000Y-64770000D02*
X131445000Y-65405000D01*
%TO.N,Net-(C4-Pad1)*%
X145415000Y-81280000D02*
X146050000Y-81915000D01*
X142240000Y-81280000D02*
X145415000Y-81280000D01*
X149225000Y-85725000D02*
X150495000Y-85725000D01*
X146050000Y-81915000D02*
X146050000Y-82550000D01*
X146050000Y-82550000D02*
X149225000Y-85725000D01*
%TO.N,Net-(C5-Pad2)*%
X158750000Y-84455000D02*
X156210000Y-81915000D01*
X156210000Y-90725000D02*
X158750000Y-88185000D01*
X158750000Y-88185000D02*
X158750000Y-84455000D01*
X144780000Y-90805000D02*
X146685000Y-90805000D01*
X154080008Y-88595008D02*
X156210000Y-90725000D01*
X148894992Y-88595008D02*
X154080008Y-88595008D01*
X146685000Y-90805000D02*
X148894992Y-88595008D01*
D18*
%TO.N,3.3V*%
X164465000Y-78740000D02*
X165100000Y-78105000D01*
X153670000Y-78740000D02*
X164465000Y-78740000D01*
X142240000Y-73660000D02*
X148590000Y-73660000D01*
X148590000Y-73660000D02*
X153670000Y-78740000D01*
X165100000Y-78105000D02*
X167640000Y-78105000D01*
X167640000Y-78105000D02*
X167640000Y-81915000D01*
X129970001Y-94410001D02*
X128905000Y-93345000D01*
X130175000Y-94615000D02*
X129970001Y-94410001D01*
X167640000Y-81915000D02*
X167501370Y-81915000D01*
X161290000Y-88126370D02*
X161290000Y-92075000D01*
X161290000Y-92075000D02*
X158750000Y-94615000D01*
X167501370Y-81915000D02*
X161290000Y-88126370D01*
X158750000Y-94615000D02*
X130175000Y-94615000D01*
X142240000Y-70565000D02*
X140890000Y-69215000D01*
X142240000Y-73660000D02*
X142240000Y-70565000D01*
D17*
%TO.N,ADC_IN*%
X156210000Y-76200000D02*
X158750000Y-73660000D01*
X158750000Y-73660000D02*
X161290000Y-73660000D01*
X165100000Y-73660000D02*
X165735000Y-73025000D01*
X161290000Y-73660000D02*
X165100000Y-73660000D01*
X165735000Y-73025000D02*
X167640000Y-73025000D01*
D18*
%TO.N,BYPASS*%
X154940000Y-68580000D02*
X156845000Y-70485000D01*
X154940000Y-66062802D02*
X154940000Y-68580000D01*
X124460000Y-65405000D02*
X127000000Y-62865000D01*
X124460000Y-69215000D02*
X124460000Y-65405000D01*
X127000000Y-62865000D02*
X151765000Y-62865000D01*
X151765000Y-62865000D02*
X151765000Y-62887802D01*
X156845000Y-70485000D02*
X167640000Y-70485000D01*
X151765000Y-62887802D02*
X154940000Y-66062802D01*
D17*
%TO.N,Net-(R4-Pad1)*%
X134620000Y-76200000D02*
X135890000Y-76200000D01*
X135890000Y-76200000D02*
X137160000Y-77470000D01*
X137160000Y-77470000D02*
X137160000Y-81915000D01*
X134620000Y-84455000D02*
X134620000Y-86995000D01*
X137160000Y-81915000D02*
X134620000Y-84455000D01*
X134620000Y-76200000D02*
X130810000Y-76200000D01*
%TO.N,/FILT_OUT*%
X146050000Y-76200000D02*
X142240000Y-76200000D01*
X142240000Y-78740000D02*
X142875000Y-78740000D01*
X142875000Y-78740000D02*
X143510000Y-78105000D01*
X143510000Y-77470000D02*
X142240000Y-76200000D01*
X143510000Y-78105000D02*
X143510000Y-77470000D01*
X155575000Y-85725000D02*
X146050000Y-76200000D01*
X156210000Y-85725000D02*
X155575000Y-85725000D01*
%TO.N,/FILT_IN*%
X135612755Y-73660000D02*
X134620000Y-73660000D01*
X138760010Y-80975010D02*
X138760010Y-76807255D01*
X138760010Y-76807255D02*
X135612755Y-73660000D01*
X144780000Y-86995000D02*
X138760010Y-80975010D01*
X135255000Y-90805000D02*
X134620000Y-90805000D01*
X137160000Y-88900000D02*
X135255000Y-90805000D01*
X144780000Y-86995000D02*
X142875000Y-88900000D01*
X142875000Y-88900000D02*
X137160000Y-88900000D01*
%TO.N,/AMP_IN*%
X124460000Y-75565000D02*
X127635000Y-78740000D01*
X124460000Y-74295000D02*
X124460000Y-75565000D01*
X127635000Y-78740000D02*
X134620000Y-78740000D01*
%TD*%
D19*
%TO.N,GND*%
G36*
X112847792Y-61200548D02*
G01*
X112179330Y-61552445D01*
X112138912Y-61579452D01*
X111778724Y-62069119D01*
X114300000Y-64590395D01*
X116821276Y-62069119D01*
X116461088Y-61579452D01*
X115797118Y-61219151D01*
X115371165Y-61087000D01*
X159585789Y-61087000D01*
X159202792Y-61200548D01*
X158534330Y-61552445D01*
X158493912Y-61579452D01*
X158133724Y-62069119D01*
X160655000Y-64590395D01*
X163176276Y-62069119D01*
X162816088Y-61579452D01*
X162152118Y-61219151D01*
X161726165Y-61087000D01*
X170688000Y-61087000D01*
X170688000Y-91005789D01*
X170574452Y-90622792D01*
X170222555Y-89954330D01*
X170195548Y-89913912D01*
X169705881Y-89553724D01*
X167184605Y-92075000D01*
X169705881Y-94596276D01*
X170195548Y-94236088D01*
X170555849Y-93572118D01*
X170688000Y-93146165D01*
X170688000Y-95758000D01*
X168074211Y-95758000D01*
X168457208Y-95644452D01*
X169125670Y-95292555D01*
X169166088Y-95265548D01*
X169526276Y-94775881D01*
X167005000Y-92254605D01*
X164483724Y-94775881D01*
X164843912Y-95265548D01*
X165507882Y-95625849D01*
X165933835Y-95758000D01*
X159961998Y-95758000D01*
X159982942Y-95732480D01*
X162407485Y-93307938D01*
X162470897Y-93255897D01*
X162522938Y-93192485D01*
X162522941Y-93192482D01*
X162678588Y-93002826D01*
X162819092Y-92739961D01*
X162832917Y-92714097D01*
X162927952Y-92400809D01*
X162952000Y-92156643D01*
X162952000Y-92156633D01*
X162960040Y-92075001D01*
X162957647Y-92050695D01*
X163151520Y-92050695D01*
X163220822Y-92802938D01*
X163435548Y-93527208D01*
X163787445Y-94195670D01*
X163814452Y-94236088D01*
X164304119Y-94596276D01*
X166825395Y-92075000D01*
X164304119Y-89553724D01*
X163814452Y-89913912D01*
X163454151Y-90577882D01*
X163230306Y-91299385D01*
X163151520Y-92050695D01*
X162957647Y-92050695D01*
X162952000Y-91993369D01*
X162952000Y-89374119D01*
X164483724Y-89374119D01*
X167005000Y-91895395D01*
X169526276Y-89374119D01*
X169166088Y-88884452D01*
X168502118Y-88524151D01*
X167877741Y-88330439D01*
X167990130Y-88313787D01*
X168256292Y-88218603D01*
X168381514Y-88151671D01*
X168453097Y-87907702D01*
X167640000Y-87094605D01*
X166826903Y-87907702D01*
X166898486Y-88151671D01*
X167050888Y-88223783D01*
X167029305Y-88221520D01*
X166277062Y-88290822D01*
X165552792Y-88505548D01*
X164884330Y-88857445D01*
X164843912Y-88884452D01*
X164483724Y-89374119D01*
X162952000Y-89374119D01*
X162952000Y-88814792D01*
X164781280Y-86985512D01*
X166199783Y-86985512D01*
X166241213Y-87265130D01*
X166336397Y-87531292D01*
X166403329Y-87656514D01*
X166647298Y-87728097D01*
X167460395Y-86915000D01*
X167819605Y-86915000D01*
X168632702Y-87728097D01*
X168876671Y-87656514D01*
X168997571Y-87401004D01*
X169066300Y-87126816D01*
X169080217Y-86844488D01*
X169038787Y-86564870D01*
X168943603Y-86298708D01*
X168876671Y-86173486D01*
X168632702Y-86101903D01*
X167819605Y-86915000D01*
X167460395Y-86915000D01*
X166647298Y-86101903D01*
X166403329Y-86173486D01*
X166282429Y-86428996D01*
X166213700Y-86703184D01*
X166199783Y-86985512D01*
X164781280Y-86985512D01*
X165844494Y-85922298D01*
X166826903Y-85922298D01*
X167640000Y-86735395D01*
X168453097Y-85922298D01*
X168381514Y-85678329D01*
X168126004Y-85557429D01*
X167851816Y-85488700D01*
X167569488Y-85474783D01*
X167289870Y-85516213D01*
X167023708Y-85611397D01*
X166898486Y-85678329D01*
X166826903Y-85922298D01*
X165844494Y-85922298D01*
X168075658Y-83691135D01*
X168172916Y-83671789D01*
X168505409Y-83534066D01*
X168804645Y-83334124D01*
X169059124Y-83079645D01*
X169259066Y-82780409D01*
X169396789Y-82447916D01*
X169467000Y-82094944D01*
X169467000Y-81735056D01*
X169396789Y-81382084D01*
X169302000Y-81153243D01*
X169302000Y-78345580D01*
X169317000Y-78270170D01*
X169317000Y-77939830D01*
X169252554Y-77615837D01*
X169126138Y-77310643D01*
X168942611Y-77035975D01*
X168709025Y-76802389D01*
X168574354Y-76712405D01*
X168737588Y-76565269D01*
X168911641Y-76331920D01*
X169036825Y-76069099D01*
X169081476Y-75921890D01*
X168960155Y-75692000D01*
X167767000Y-75692000D01*
X167767000Y-75712000D01*
X167513000Y-75712000D01*
X167513000Y-75692000D01*
X166319845Y-75692000D01*
X166198524Y-75921890D01*
X166243175Y-76069099D01*
X166368359Y-76331920D01*
X166451213Y-76443000D01*
X165181632Y-76443000D01*
X165100000Y-76434960D01*
X165018368Y-76443000D01*
X165018357Y-76443000D01*
X164774191Y-76467048D01*
X164460903Y-76562083D01*
X164172175Y-76716412D01*
X163919103Y-76924103D01*
X163867058Y-76987520D01*
X163776578Y-77078000D01*
X157820653Y-77078000D01*
X157829066Y-77065409D01*
X157966789Y-76732916D01*
X158037000Y-76379944D01*
X158037000Y-76320371D01*
X159320372Y-75037000D01*
X160083231Y-75037000D01*
X160125355Y-75079124D01*
X160424591Y-75279066D01*
X160757084Y-75416789D01*
X161110056Y-75487000D01*
X161469944Y-75487000D01*
X161822916Y-75416789D01*
X162155409Y-75279066D01*
X162454645Y-75079124D01*
X162496769Y-75037000D01*
X165032360Y-75037000D01*
X165100000Y-75043662D01*
X165184342Y-75035355D01*
X165369939Y-75017075D01*
X165629505Y-74938337D01*
X165868721Y-74810473D01*
X166078397Y-74638397D01*
X166121521Y-74585850D01*
X166305371Y-74402000D01*
X166682306Y-74402000D01*
X166705646Y-74417595D01*
X166542412Y-74564731D01*
X166368359Y-74798080D01*
X166243175Y-75060901D01*
X166198524Y-75208110D01*
X166319845Y-75438000D01*
X167513000Y-75438000D01*
X167513000Y-75418000D01*
X167767000Y-75418000D01*
X167767000Y-75438000D01*
X168960155Y-75438000D01*
X169081476Y-75208110D01*
X169036825Y-75060901D01*
X168911641Y-74798080D01*
X168737588Y-74564731D01*
X168574354Y-74417595D01*
X168709025Y-74327611D01*
X168942611Y-74094025D01*
X169126138Y-73819357D01*
X169252554Y-73514163D01*
X169317000Y-73190170D01*
X169317000Y-72859830D01*
X169252554Y-72535837D01*
X169126138Y-72230643D01*
X168942611Y-71955975D01*
X168741636Y-71755000D01*
X168942611Y-71554025D01*
X169126138Y-71279357D01*
X169252554Y-70974163D01*
X169317000Y-70650170D01*
X169317000Y-70319830D01*
X169252554Y-69995837D01*
X169126138Y-69690643D01*
X168942611Y-69415975D01*
X168848712Y-69322076D01*
X168941185Y-69246185D01*
X169020537Y-69149494D01*
X169079502Y-69039180D01*
X169115812Y-68919482D01*
X169128072Y-68795000D01*
X169125000Y-68230750D01*
X168966250Y-68072000D01*
X167767000Y-68072000D01*
X167767000Y-68092000D01*
X167513000Y-68092000D01*
X167513000Y-68072000D01*
X166313750Y-68072000D01*
X166155000Y-68230750D01*
X166151928Y-68795000D01*
X166154686Y-68823000D01*
X157533423Y-68823000D01*
X156602000Y-67891578D01*
X156602000Y-67470881D01*
X158133724Y-67470881D01*
X158493912Y-67960548D01*
X159157882Y-68320849D01*
X159879385Y-68544694D01*
X160630695Y-68623480D01*
X161382938Y-68554178D01*
X162107208Y-68339452D01*
X162775670Y-67987555D01*
X162816088Y-67960548D01*
X163176276Y-67470881D01*
X160655000Y-64949605D01*
X158133724Y-67470881D01*
X156602000Y-67470881D01*
X156602000Y-66144433D01*
X156610040Y-66062801D01*
X156602000Y-65981169D01*
X156602000Y-65981159D01*
X156577952Y-65736993D01*
X156482917Y-65423705D01*
X156377724Y-65226903D01*
X156328588Y-65134976D01*
X156172941Y-64945320D01*
X156172938Y-64945317D01*
X156120897Y-64881905D01*
X156057486Y-64829865D01*
X155973316Y-64745695D01*
X156801520Y-64745695D01*
X156870822Y-65497938D01*
X157085548Y-66222208D01*
X157437445Y-66890670D01*
X157464452Y-66931088D01*
X157954119Y-67291276D01*
X160475395Y-64770000D01*
X160834605Y-64770000D01*
X163355881Y-67291276D01*
X163622713Y-67095000D01*
X166151928Y-67095000D01*
X166155000Y-67659250D01*
X166313750Y-67818000D01*
X167513000Y-67818000D01*
X167513000Y-66618750D01*
X167767000Y-66618750D01*
X167767000Y-67818000D01*
X168966250Y-67818000D01*
X169125000Y-67659250D01*
X169128072Y-67095000D01*
X169115812Y-66970518D01*
X169079502Y-66850820D01*
X169020537Y-66740506D01*
X168941185Y-66643815D01*
X168844494Y-66564463D01*
X168734180Y-66505498D01*
X168614482Y-66469188D01*
X168490000Y-66456928D01*
X167925750Y-66460000D01*
X167767000Y-66618750D01*
X167513000Y-66618750D01*
X167354250Y-66460000D01*
X166790000Y-66456928D01*
X166665518Y-66469188D01*
X166545820Y-66505498D01*
X166435506Y-66564463D01*
X166338815Y-66643815D01*
X166259463Y-66740506D01*
X166200498Y-66850820D01*
X166164188Y-66970518D01*
X166151928Y-67095000D01*
X163622713Y-67095000D01*
X163845548Y-66931088D01*
X164205849Y-66267118D01*
X164429694Y-65545615D01*
X164508480Y-64794305D01*
X164439178Y-64042062D01*
X164224452Y-63317792D01*
X163872555Y-62649330D01*
X163845548Y-62608912D01*
X163355881Y-62248724D01*
X160834605Y-64770000D01*
X160475395Y-64770000D01*
X157954119Y-62248724D01*
X157464452Y-62608912D01*
X157104151Y-63272882D01*
X156880306Y-63994385D01*
X156801520Y-64745695D01*
X155973316Y-64745695D01*
X153102298Y-61874678D01*
X152945897Y-61684103D01*
X152692825Y-61476412D01*
X152404097Y-61322083D01*
X152090809Y-61227048D01*
X151846643Y-61203000D01*
X151846642Y-61203000D01*
X151765000Y-61194959D01*
X151683357Y-61203000D01*
X127081631Y-61203000D01*
X126999999Y-61194960D01*
X126918367Y-61203000D01*
X126918357Y-61203000D01*
X126674191Y-61227048D01*
X126360903Y-61322083D01*
X126318242Y-61344886D01*
X126072174Y-61476412D01*
X125882518Y-61632059D01*
X125882515Y-61632062D01*
X125819103Y-61684103D01*
X125767062Y-61747515D01*
X123342515Y-64172063D01*
X123279104Y-64224103D01*
X123227063Y-64287515D01*
X123227059Y-64287519D01*
X123071412Y-64477175D01*
X122983732Y-64641213D01*
X122917084Y-64765903D01*
X122862659Y-64945320D01*
X122822049Y-65079192D01*
X122789960Y-65405000D01*
X122798001Y-65486642D01*
X122798000Y-68192877D01*
X122794966Y-68202880D01*
X122778999Y-68365000D01*
X122778999Y-70065000D01*
X122794966Y-70227120D01*
X122840735Y-70378000D01*
X121987639Y-70378000D01*
X121919999Y-70371338D01*
X121650060Y-70397925D01*
X121472883Y-70451671D01*
X121390495Y-70476663D01*
X121151279Y-70604527D01*
X120941603Y-70776603D01*
X120898483Y-70829145D01*
X118624629Y-73103000D01*
X118565056Y-73103000D01*
X118212084Y-73173211D01*
X117879591Y-73310934D01*
X117580355Y-73510876D01*
X117325876Y-73765355D01*
X117125934Y-74064591D01*
X116988211Y-74397084D01*
X116918000Y-74750056D01*
X116918000Y-75109944D01*
X116988211Y-75462916D01*
X117125934Y-75795409D01*
X117325876Y-76094645D01*
X117580355Y-76349124D01*
X117879591Y-76549066D01*
X118212084Y-76686789D01*
X118565056Y-76757000D01*
X118924944Y-76757000D01*
X119277916Y-76686789D01*
X119610409Y-76549066D01*
X119909645Y-76349124D01*
X120164124Y-76094645D01*
X120364066Y-75795409D01*
X120501789Y-75462916D01*
X120572000Y-75109944D01*
X120572000Y-75050371D01*
X122490372Y-73132000D01*
X123251364Y-73132000D01*
X123157389Y-73225975D01*
X122973862Y-73500643D01*
X122847446Y-73805837D01*
X122783000Y-74129830D01*
X122783000Y-74460170D01*
X122847446Y-74784163D01*
X122973862Y-75089357D01*
X123083000Y-75252694D01*
X123083000Y-75497360D01*
X123076338Y-75565000D01*
X123083000Y-75632640D01*
X123102925Y-75834939D01*
X123181663Y-76094505D01*
X123309528Y-76333721D01*
X123481604Y-76543397D01*
X123534146Y-76586517D01*
X125808000Y-78860372D01*
X125808000Y-78919944D01*
X125878211Y-79272916D01*
X126015934Y-79605409D01*
X126215876Y-79904645D01*
X126470355Y-80159124D01*
X126769591Y-80359066D01*
X127102084Y-80496789D01*
X127455056Y-80567000D01*
X127814944Y-80567000D01*
X128167916Y-80496789D01*
X128500409Y-80359066D01*
X128799645Y-80159124D01*
X128841769Y-80117000D01*
X133413231Y-80117000D01*
X133455355Y-80159124D01*
X133613555Y-80264830D01*
X133556481Y-80316586D01*
X133388963Y-80542580D01*
X133268754Y-80796913D01*
X133228096Y-80930961D01*
X133350085Y-81153000D01*
X134493000Y-81153000D01*
X134493000Y-81133000D01*
X134747000Y-81133000D01*
X134747000Y-81153000D01*
X134767000Y-81153000D01*
X134767000Y-81407000D01*
X134747000Y-81407000D01*
X134747000Y-81427000D01*
X134493000Y-81427000D01*
X134493000Y-81407000D01*
X133350085Y-81407000D01*
X133228096Y-81629039D01*
X133268754Y-81763087D01*
X133388963Y-82017420D01*
X133556481Y-82243414D01*
X133764869Y-82432385D01*
X134006119Y-82577070D01*
X134270960Y-82671909D01*
X134492998Y-82550625D01*
X134492998Y-82634631D01*
X133694146Y-83433483D01*
X133641603Y-83476604D01*
X133469527Y-83686280D01*
X133439744Y-83742000D01*
X133341663Y-83925496D01*
X133262925Y-84185061D01*
X133236338Y-84455000D01*
X133243000Y-84522640D01*
X133243001Y-85788230D01*
X133200876Y-85830355D01*
X133000934Y-86129591D01*
X132863211Y-86462084D01*
X132793000Y-86815056D01*
X132793000Y-87174944D01*
X132863211Y-87527916D01*
X133000934Y-87860409D01*
X133200876Y-88159645D01*
X133455355Y-88414124D01*
X133754591Y-88614066D01*
X134087084Y-88751789D01*
X134440056Y-88822000D01*
X134799944Y-88822000D01*
X135152916Y-88751789D01*
X135485409Y-88614066D01*
X135525048Y-88587580D01*
X135079100Y-89033528D01*
X134799944Y-88978000D01*
X134440056Y-88978000D01*
X134087084Y-89048211D01*
X133754591Y-89185934D01*
X133455355Y-89385876D01*
X133200876Y-89640355D01*
X133000934Y-89939591D01*
X132863211Y-90272084D01*
X132793000Y-90625056D01*
X132793000Y-90984944D01*
X132863211Y-91337916D01*
X133000934Y-91670409D01*
X133200876Y-91969645D01*
X133455355Y-92224124D01*
X133754591Y-92424066D01*
X134087084Y-92561789D01*
X134440056Y-92632000D01*
X134799944Y-92632000D01*
X135152916Y-92561789D01*
X135485409Y-92424066D01*
X135784645Y-92224124D01*
X136039124Y-91969645D01*
X136078792Y-91910278D01*
X136233397Y-91783397D01*
X136276521Y-91730850D01*
X137730372Y-90277000D01*
X142807360Y-90277000D01*
X142875000Y-90283662D01*
X143024515Y-90268936D01*
X143023211Y-90272084D01*
X142953000Y-90625056D01*
X142953000Y-90984944D01*
X143023211Y-91337916D01*
X143160934Y-91670409D01*
X143360876Y-91969645D01*
X143615355Y-92224124D01*
X143914591Y-92424066D01*
X144247084Y-92561789D01*
X144600056Y-92632000D01*
X144959944Y-92632000D01*
X145312916Y-92561789D01*
X145645409Y-92424066D01*
X145944645Y-92224124D01*
X145986769Y-92182000D01*
X146617360Y-92182000D01*
X146685000Y-92188662D01*
X146769342Y-92180355D01*
X146954939Y-92162075D01*
X147214505Y-92083337D01*
X147453721Y-91955473D01*
X147663397Y-91783397D01*
X147706521Y-91730850D01*
X147719669Y-91717702D01*
X149681903Y-91717702D01*
X149753486Y-91961671D01*
X150008996Y-92082571D01*
X150283184Y-92151300D01*
X150565512Y-92165217D01*
X150845130Y-92123787D01*
X151111292Y-92028603D01*
X151236514Y-91961671D01*
X151308097Y-91717702D01*
X150495000Y-90904605D01*
X149681903Y-91717702D01*
X147719669Y-91717702D01*
X149117041Y-90320330D01*
X149068700Y-90513184D01*
X149054783Y-90795512D01*
X149096213Y-91075130D01*
X149191397Y-91341292D01*
X149258329Y-91466514D01*
X149502298Y-91538097D01*
X150315395Y-90725000D01*
X150301253Y-90710858D01*
X150480858Y-90531253D01*
X150495000Y-90545395D01*
X150509143Y-90531253D01*
X150688748Y-90710858D01*
X150674605Y-90725000D01*
X151487702Y-91538097D01*
X151731671Y-91466514D01*
X151852571Y-91211004D01*
X151921300Y-90936816D01*
X151935217Y-90654488D01*
X151893787Y-90374870D01*
X151798603Y-90108708D01*
X151731671Y-89983486D01*
X151692552Y-89972008D01*
X153509637Y-89972008D01*
X154383000Y-90845372D01*
X154383000Y-90904944D01*
X154453211Y-91257916D01*
X154590934Y-91590409D01*
X154790876Y-91889645D01*
X155045355Y-92144124D01*
X155344591Y-92344066D01*
X155677084Y-92481789D01*
X156030056Y-92552000D01*
X156389944Y-92552000D01*
X156742916Y-92481789D01*
X157075409Y-92344066D01*
X157374645Y-92144124D01*
X157629124Y-91889645D01*
X157829066Y-91590409D01*
X157966789Y-91257916D01*
X158037000Y-90904944D01*
X158037000Y-90845371D01*
X159628000Y-89254372D01*
X159628001Y-91386576D01*
X158061578Y-92953000D01*
X130863422Y-92953000D01*
X130618856Y-92708434D01*
X130524066Y-92479591D01*
X130324124Y-92180355D01*
X130069645Y-91925876D01*
X129770409Y-91725934D01*
X129437916Y-91588211D01*
X129084944Y-91518000D01*
X128725056Y-91518000D01*
X128372084Y-91588211D01*
X128039591Y-91725934D01*
X127740355Y-91925876D01*
X127485876Y-92180355D01*
X127285934Y-92479591D01*
X127148211Y-92812084D01*
X127078000Y-93165056D01*
X127078000Y-93524944D01*
X127148211Y-93877916D01*
X127285934Y-94210409D01*
X127485876Y-94509645D01*
X127740355Y-94764124D01*
X128039591Y-94964066D01*
X128268434Y-95058856D01*
X128942058Y-95732480D01*
X128963002Y-95758000D01*
X115369211Y-95758000D01*
X115752208Y-95644452D01*
X116420670Y-95292555D01*
X116461088Y-95265548D01*
X116821276Y-94775881D01*
X114300000Y-92254605D01*
X111778724Y-94775881D01*
X112138912Y-95265548D01*
X112802882Y-95625849D01*
X113228835Y-95758000D01*
X110617000Y-95758000D01*
X110617000Y-93144211D01*
X110730548Y-93527208D01*
X111082445Y-94195670D01*
X111109452Y-94236088D01*
X111599119Y-94596276D01*
X114120395Y-92075000D01*
X114479605Y-92075000D01*
X117000881Y-94596276D01*
X117490548Y-94236088D01*
X117784688Y-93694040D01*
X118623091Y-93694040D01*
X118717930Y-93958881D01*
X118862615Y-94200131D01*
X119051586Y-94408519D01*
X119277580Y-94576037D01*
X119531913Y-94696246D01*
X119665961Y-94736904D01*
X119888000Y-94614915D01*
X119888000Y-93472000D01*
X120142000Y-93472000D01*
X120142000Y-94614915D01*
X120364039Y-94736904D01*
X120498087Y-94696246D01*
X120752420Y-94576037D01*
X120978414Y-94408519D01*
X121167385Y-94200131D01*
X121312070Y-93958881D01*
X121406909Y-93694040D01*
X121285624Y-93472000D01*
X120142000Y-93472000D01*
X119888000Y-93472000D01*
X118744376Y-93472000D01*
X118623091Y-93694040D01*
X117784688Y-93694040D01*
X117850849Y-93572118D01*
X118029600Y-92995960D01*
X118623091Y-92995960D01*
X118744376Y-93218000D01*
X119888000Y-93218000D01*
X119888000Y-92075085D01*
X120142000Y-92075085D01*
X120142000Y-93218000D01*
X121285624Y-93218000D01*
X121406909Y-92995960D01*
X121312070Y-92731119D01*
X121167385Y-92489869D01*
X120978414Y-92281481D01*
X120752420Y-92113963D01*
X120498087Y-91993754D01*
X120364039Y-91953096D01*
X120142000Y-92075085D01*
X119888000Y-92075085D01*
X119665961Y-91953096D01*
X119531913Y-91993754D01*
X119277580Y-92113963D01*
X119051586Y-92281481D01*
X118862615Y-92489869D01*
X118717930Y-92731119D01*
X118623091Y-92995960D01*
X118029600Y-92995960D01*
X118074694Y-92850615D01*
X118153480Y-92099305D01*
X118084178Y-91347062D01*
X117869452Y-90622792D01*
X117517555Y-89954330D01*
X117490548Y-89913912D01*
X117000881Y-89553724D01*
X114479605Y-92075000D01*
X114120395Y-92075000D01*
X111599119Y-89553724D01*
X111109452Y-89913912D01*
X110749151Y-90577882D01*
X110617000Y-91003835D01*
X110617000Y-89374119D01*
X111778724Y-89374119D01*
X114300000Y-91895395D01*
X116821276Y-89374119D01*
X116676797Y-89177702D01*
X123646903Y-89177702D01*
X123718486Y-89421671D01*
X123973996Y-89542571D01*
X124248184Y-89611300D01*
X124530512Y-89625217D01*
X124810130Y-89583787D01*
X125076292Y-89488603D01*
X125201514Y-89421671D01*
X125273097Y-89177702D01*
X124460000Y-88364605D01*
X123646903Y-89177702D01*
X116676797Y-89177702D01*
X116461088Y-88884452D01*
X115797118Y-88524151D01*
X115075615Y-88300306D01*
X114648456Y-88255512D01*
X123019783Y-88255512D01*
X123061213Y-88535130D01*
X123156397Y-88801292D01*
X123223329Y-88926514D01*
X123467298Y-88998097D01*
X124280395Y-88185000D01*
X124639605Y-88185000D01*
X125452702Y-88998097D01*
X125696671Y-88926514D01*
X125817571Y-88671004D01*
X125886300Y-88396816D01*
X125900217Y-88114488D01*
X125858787Y-87834870D01*
X125763603Y-87568708D01*
X125696671Y-87443486D01*
X125452702Y-87371903D01*
X124639605Y-88185000D01*
X124280395Y-88185000D01*
X123467298Y-87371903D01*
X123223329Y-87443486D01*
X123102429Y-87698996D01*
X123033700Y-87973184D01*
X123019783Y-88255512D01*
X114648456Y-88255512D01*
X114324305Y-88221520D01*
X113572062Y-88290822D01*
X112847792Y-88505548D01*
X112179330Y-88857445D01*
X112138912Y-88884452D01*
X111778724Y-89374119D01*
X110617000Y-89374119D01*
X110617000Y-87192298D01*
X123646903Y-87192298D01*
X124460000Y-88005395D01*
X125273097Y-87192298D01*
X125201514Y-86948329D01*
X124946004Y-86827429D01*
X124671816Y-86758700D01*
X124389488Y-86744783D01*
X124109870Y-86786213D01*
X123843708Y-86881397D01*
X123718486Y-86948329D01*
X123646903Y-87192298D01*
X110617000Y-87192298D01*
X110617000Y-82765000D01*
X111541928Y-82765000D01*
X111554188Y-82889482D01*
X111590498Y-83009180D01*
X111649463Y-83119494D01*
X111728815Y-83216185D01*
X111825506Y-83295537D01*
X111935820Y-83354502D01*
X112055518Y-83390812D01*
X112180000Y-83403072D01*
X112744250Y-83400000D01*
X112903000Y-83241250D01*
X112903000Y-82042000D01*
X113157000Y-82042000D01*
X113157000Y-83241250D01*
X113315750Y-83400000D01*
X113880000Y-83403072D01*
X114004482Y-83390812D01*
X114124180Y-83354502D01*
X114234494Y-83295537D01*
X114331185Y-83216185D01*
X114410537Y-83119494D01*
X114469502Y-83009180D01*
X114505812Y-82889482D01*
X114518072Y-82765000D01*
X114515000Y-82200750D01*
X114356250Y-82042000D01*
X113157000Y-82042000D01*
X112903000Y-82042000D01*
X111703750Y-82042000D01*
X111545000Y-82200750D01*
X111541928Y-82765000D01*
X110617000Y-82765000D01*
X110617000Y-81065000D01*
X111541928Y-81065000D01*
X111545000Y-81629250D01*
X111703750Y-81788000D01*
X112903000Y-81788000D01*
X112903000Y-80588750D01*
X113157000Y-80588750D01*
X113157000Y-81788000D01*
X114356250Y-81788000D01*
X114515000Y-81629250D01*
X114518072Y-81065000D01*
X114505812Y-80940518D01*
X114469502Y-80820820D01*
X114410537Y-80710506D01*
X114331185Y-80613815D01*
X114234494Y-80534463D01*
X114124180Y-80475498D01*
X114004482Y-80439188D01*
X113880000Y-80426928D01*
X113315750Y-80430000D01*
X113157000Y-80588750D01*
X112903000Y-80588750D01*
X112744250Y-80430000D01*
X112180000Y-80426928D01*
X112055518Y-80439188D01*
X111935820Y-80475498D01*
X111825506Y-80534463D01*
X111728815Y-80613815D01*
X111649463Y-80710506D01*
X111590498Y-80820820D01*
X111554188Y-80940518D01*
X111541928Y-81065000D01*
X110617000Y-81065000D01*
X110617000Y-78560056D01*
X115648000Y-78560056D01*
X115648000Y-78919944D01*
X115718211Y-79272916D01*
X115855934Y-79605409D01*
X116055876Y-79904645D01*
X116098001Y-79946770D01*
X116098001Y-80577351D01*
X116091338Y-80645000D01*
X116117925Y-80914939D01*
X116196663Y-81174504D01*
X116253052Y-81280000D01*
X116324528Y-81413721D01*
X116496604Y-81623397D01*
X116549145Y-81666517D01*
X118188000Y-83305372D01*
X118188000Y-83364944D01*
X118258211Y-83717916D01*
X118395934Y-84050409D01*
X118595876Y-84349645D01*
X118850355Y-84604124D01*
X119149591Y-84804066D01*
X119482084Y-84941789D01*
X119835056Y-85012000D01*
X120194944Y-85012000D01*
X120547916Y-84941789D01*
X120880409Y-84804066D01*
X121179645Y-84604124D01*
X121221769Y-84562000D01*
X123253231Y-84562000D01*
X123295355Y-84604124D01*
X123594591Y-84804066D01*
X123927084Y-84941789D01*
X124280056Y-85012000D01*
X124639944Y-85012000D01*
X124992916Y-84941789D01*
X125325409Y-84804066D01*
X125624645Y-84604124D01*
X125666769Y-84562000D01*
X127698231Y-84562000D01*
X127740355Y-84604124D01*
X128039591Y-84804066D01*
X128372084Y-84941789D01*
X128725056Y-85012000D01*
X129084944Y-85012000D01*
X129437916Y-84941789D01*
X129770409Y-84804066D01*
X130069645Y-84604124D01*
X130324124Y-84349645D01*
X130524066Y-84050409D01*
X130661789Y-83717916D01*
X130732000Y-83364944D01*
X130732000Y-83005056D01*
X130661789Y-82652084D01*
X130524066Y-82319591D01*
X130324124Y-82020355D01*
X130069645Y-81765876D01*
X129770409Y-81565934D01*
X129437916Y-81428211D01*
X129084944Y-81358000D01*
X128725056Y-81358000D01*
X128372084Y-81428211D01*
X128039591Y-81565934D01*
X127740355Y-81765876D01*
X127698231Y-81808000D01*
X125666769Y-81808000D01*
X125624645Y-81765876D01*
X125325409Y-81565934D01*
X124992916Y-81428211D01*
X124639944Y-81358000D01*
X124280056Y-81358000D01*
X123927084Y-81428211D01*
X123594591Y-81565934D01*
X123295355Y-81765876D01*
X123253231Y-81808000D01*
X121221769Y-81808000D01*
X121179645Y-81765876D01*
X120880409Y-81565934D01*
X120547916Y-81428211D01*
X120194944Y-81358000D01*
X120135372Y-81358000D01*
X118852000Y-80074629D01*
X118852000Y-79946769D01*
X118894124Y-79904645D01*
X119094066Y-79605409D01*
X119231789Y-79272916D01*
X119302000Y-78919944D01*
X119302000Y-78560056D01*
X119231789Y-78207084D01*
X119094066Y-77874591D01*
X118894124Y-77575355D01*
X118639645Y-77320876D01*
X118340409Y-77120934D01*
X118007916Y-76983211D01*
X117654944Y-76913000D01*
X117295056Y-76913000D01*
X116942084Y-76983211D01*
X116609591Y-77120934D01*
X116310355Y-77320876D01*
X116055876Y-77575355D01*
X115855934Y-77874591D01*
X115718211Y-78207084D01*
X115648000Y-78560056D01*
X110617000Y-78560056D01*
X110617000Y-72810000D01*
X111148031Y-72810000D01*
X111148031Y-74510000D01*
X111167860Y-74711327D01*
X111226585Y-74904917D01*
X111321949Y-75083331D01*
X111450288Y-75239712D01*
X111606669Y-75368051D01*
X111785083Y-75463415D01*
X111978673Y-75522140D01*
X112180000Y-75541969D01*
X113880000Y-75541969D01*
X114081327Y-75522140D01*
X114274917Y-75463415D01*
X114453331Y-75368051D01*
X114609712Y-75239712D01*
X114738051Y-75083331D01*
X114833415Y-74904917D01*
X114892140Y-74711327D01*
X114911969Y-74510000D01*
X114911969Y-73725402D01*
X117410372Y-71227000D01*
X117458231Y-71227000D01*
X117580355Y-71349124D01*
X117879591Y-71549066D01*
X118212084Y-71686789D01*
X118565056Y-71757000D01*
X118924944Y-71757000D01*
X119277916Y-71686789D01*
X119610409Y-71549066D01*
X119909645Y-71349124D01*
X120164124Y-71094645D01*
X120364066Y-70795409D01*
X120501789Y-70462916D01*
X120572000Y-70109944D01*
X120572000Y-69750056D01*
X120501789Y-69397084D01*
X120364066Y-69064591D01*
X120164124Y-68765355D01*
X119909645Y-68510876D01*
X119610409Y-68310934D01*
X119277916Y-68173211D01*
X118924944Y-68103000D01*
X118565056Y-68103000D01*
X118212084Y-68173211D01*
X117879591Y-68310934D01*
X117637041Y-68473000D01*
X116907640Y-68473000D01*
X116840000Y-68466338D01*
X116570060Y-68492925D01*
X116510884Y-68510876D01*
X116310495Y-68571663D01*
X116071279Y-68699527D01*
X115861603Y-68871603D01*
X115818483Y-68924145D01*
X112964598Y-71778031D01*
X112180000Y-71778031D01*
X111978673Y-71797860D01*
X111785083Y-71856585D01*
X111606669Y-71951949D01*
X111450288Y-72080288D01*
X111321949Y-72236669D01*
X111226585Y-72415083D01*
X111167860Y-72608673D01*
X111148031Y-72810000D01*
X110617000Y-72810000D01*
X110617000Y-67470881D01*
X111778724Y-67470881D01*
X112138912Y-67960548D01*
X112802882Y-68320849D01*
X113524385Y-68544694D01*
X114275695Y-68623480D01*
X115027938Y-68554178D01*
X115752208Y-68339452D01*
X116420670Y-67987555D01*
X116461088Y-67960548D01*
X116821276Y-67470881D01*
X114300000Y-64949605D01*
X111778724Y-67470881D01*
X110617000Y-67470881D01*
X110617000Y-65839211D01*
X110730548Y-66222208D01*
X111082445Y-66890670D01*
X111109452Y-66931088D01*
X111599119Y-67291276D01*
X114120395Y-64770000D01*
X114479605Y-64770000D01*
X117000881Y-67291276D01*
X117490548Y-66931088D01*
X117850849Y-66267118D01*
X118074694Y-65545615D01*
X118153480Y-64794305D01*
X118084178Y-64042062D01*
X117869452Y-63317792D01*
X117517555Y-62649330D01*
X117490548Y-62608912D01*
X117000881Y-62248724D01*
X114479605Y-64770000D01*
X114120395Y-64770000D01*
X111599119Y-62248724D01*
X111109452Y-62608912D01*
X110749151Y-63272882D01*
X110617000Y-63698835D01*
X110617000Y-61087000D01*
X113230789Y-61087000D01*
X112847792Y-61200548D01*
G37*
X112847792Y-61200548D02*
X112179330Y-61552445D01*
X112138912Y-61579452D01*
X111778724Y-62069119D01*
X114300000Y-64590395D01*
X116821276Y-62069119D01*
X116461088Y-61579452D01*
X115797118Y-61219151D01*
X115371165Y-61087000D01*
X159585789Y-61087000D01*
X159202792Y-61200548D01*
X158534330Y-61552445D01*
X158493912Y-61579452D01*
X158133724Y-62069119D01*
X160655000Y-64590395D01*
X163176276Y-62069119D01*
X162816088Y-61579452D01*
X162152118Y-61219151D01*
X161726165Y-61087000D01*
X170688000Y-61087000D01*
X170688000Y-91005789D01*
X170574452Y-90622792D01*
X170222555Y-89954330D01*
X170195548Y-89913912D01*
X169705881Y-89553724D01*
X167184605Y-92075000D01*
X169705881Y-94596276D01*
X170195548Y-94236088D01*
X170555849Y-93572118D01*
X170688000Y-93146165D01*
X170688000Y-95758000D01*
X168074211Y-95758000D01*
X168457208Y-95644452D01*
X169125670Y-95292555D01*
X169166088Y-95265548D01*
X169526276Y-94775881D01*
X167005000Y-92254605D01*
X164483724Y-94775881D01*
X164843912Y-95265548D01*
X165507882Y-95625849D01*
X165933835Y-95758000D01*
X159961998Y-95758000D01*
X159982942Y-95732480D01*
X162407485Y-93307938D01*
X162470897Y-93255897D01*
X162522938Y-93192485D01*
X162522941Y-93192482D01*
X162678588Y-93002826D01*
X162819092Y-92739961D01*
X162832917Y-92714097D01*
X162927952Y-92400809D01*
X162952000Y-92156643D01*
X162952000Y-92156633D01*
X162960040Y-92075001D01*
X162957647Y-92050695D01*
X163151520Y-92050695D01*
X163220822Y-92802938D01*
X163435548Y-93527208D01*
X163787445Y-94195670D01*
X163814452Y-94236088D01*
X164304119Y-94596276D01*
X166825395Y-92075000D01*
X164304119Y-89553724D01*
X163814452Y-89913912D01*
X163454151Y-90577882D01*
X163230306Y-91299385D01*
X163151520Y-92050695D01*
X162957647Y-92050695D01*
X162952000Y-91993369D01*
X162952000Y-89374119D01*
X164483724Y-89374119D01*
X167005000Y-91895395D01*
X169526276Y-89374119D01*
X169166088Y-88884452D01*
X168502118Y-88524151D01*
X167877741Y-88330439D01*
X167990130Y-88313787D01*
X168256292Y-88218603D01*
X168381514Y-88151671D01*
X168453097Y-87907702D01*
X167640000Y-87094605D01*
X166826903Y-87907702D01*
X166898486Y-88151671D01*
X167050888Y-88223783D01*
X167029305Y-88221520D01*
X166277062Y-88290822D01*
X165552792Y-88505548D01*
X164884330Y-88857445D01*
X164843912Y-88884452D01*
X164483724Y-89374119D01*
X162952000Y-89374119D01*
X162952000Y-88814792D01*
X164781280Y-86985512D01*
X166199783Y-86985512D01*
X166241213Y-87265130D01*
X166336397Y-87531292D01*
X166403329Y-87656514D01*
X166647298Y-87728097D01*
X167460395Y-86915000D01*
X167819605Y-86915000D01*
X168632702Y-87728097D01*
X168876671Y-87656514D01*
X168997571Y-87401004D01*
X169066300Y-87126816D01*
X169080217Y-86844488D01*
X169038787Y-86564870D01*
X168943603Y-86298708D01*
X168876671Y-86173486D01*
X168632702Y-86101903D01*
X167819605Y-86915000D01*
X167460395Y-86915000D01*
X166647298Y-86101903D01*
X166403329Y-86173486D01*
X166282429Y-86428996D01*
X166213700Y-86703184D01*
X166199783Y-86985512D01*
X164781280Y-86985512D01*
X165844494Y-85922298D01*
X166826903Y-85922298D01*
X167640000Y-86735395D01*
X168453097Y-85922298D01*
X168381514Y-85678329D01*
X168126004Y-85557429D01*
X167851816Y-85488700D01*
X167569488Y-85474783D01*
X167289870Y-85516213D01*
X167023708Y-85611397D01*
X166898486Y-85678329D01*
X166826903Y-85922298D01*
X165844494Y-85922298D01*
X168075658Y-83691135D01*
X168172916Y-83671789D01*
X168505409Y-83534066D01*
X168804645Y-83334124D01*
X169059124Y-83079645D01*
X169259066Y-82780409D01*
X169396789Y-82447916D01*
X169467000Y-82094944D01*
X169467000Y-81735056D01*
X169396789Y-81382084D01*
X169302000Y-81153243D01*
X169302000Y-78345580D01*
X169317000Y-78270170D01*
X169317000Y-77939830D01*
X169252554Y-77615837D01*
X169126138Y-77310643D01*
X168942611Y-77035975D01*
X168709025Y-76802389D01*
X168574354Y-76712405D01*
X168737588Y-76565269D01*
X168911641Y-76331920D01*
X169036825Y-76069099D01*
X169081476Y-75921890D01*
X168960155Y-75692000D01*
X167767000Y-75692000D01*
X167767000Y-75712000D01*
X167513000Y-75712000D01*
X167513000Y-75692000D01*
X166319845Y-75692000D01*
X166198524Y-75921890D01*
X166243175Y-76069099D01*
X166368359Y-76331920D01*
X166451213Y-76443000D01*
X165181632Y-76443000D01*
X165100000Y-76434960D01*
X165018368Y-76443000D01*
X165018357Y-76443000D01*
X164774191Y-76467048D01*
X164460903Y-76562083D01*
X164172175Y-76716412D01*
X163919103Y-76924103D01*
X163867058Y-76987520D01*
X163776578Y-77078000D01*
X157820653Y-77078000D01*
X157829066Y-77065409D01*
X157966789Y-76732916D01*
X158037000Y-76379944D01*
X158037000Y-76320371D01*
X159320372Y-75037000D01*
X160083231Y-75037000D01*
X160125355Y-75079124D01*
X160424591Y-75279066D01*
X160757084Y-75416789D01*
X161110056Y-75487000D01*
X161469944Y-75487000D01*
X161822916Y-75416789D01*
X162155409Y-75279066D01*
X162454645Y-75079124D01*
X162496769Y-75037000D01*
X165032360Y-75037000D01*
X165100000Y-75043662D01*
X165184342Y-75035355D01*
X165369939Y-75017075D01*
X165629505Y-74938337D01*
X165868721Y-74810473D01*
X166078397Y-74638397D01*
X166121521Y-74585850D01*
X166305371Y-74402000D01*
X166682306Y-74402000D01*
X166705646Y-74417595D01*
X166542412Y-74564731D01*
X166368359Y-74798080D01*
X166243175Y-75060901D01*
X166198524Y-75208110D01*
X166319845Y-75438000D01*
X167513000Y-75438000D01*
X167513000Y-75418000D01*
X167767000Y-75418000D01*
X167767000Y-75438000D01*
X168960155Y-75438000D01*
X169081476Y-75208110D01*
X169036825Y-75060901D01*
X168911641Y-74798080D01*
X168737588Y-74564731D01*
X168574354Y-74417595D01*
X168709025Y-74327611D01*
X168942611Y-74094025D01*
X169126138Y-73819357D01*
X169252554Y-73514163D01*
X169317000Y-73190170D01*
X169317000Y-72859830D01*
X169252554Y-72535837D01*
X169126138Y-72230643D01*
X168942611Y-71955975D01*
X168741636Y-71755000D01*
X168942611Y-71554025D01*
X169126138Y-71279357D01*
X169252554Y-70974163D01*
X169317000Y-70650170D01*
X169317000Y-70319830D01*
X169252554Y-69995837D01*
X169126138Y-69690643D01*
X168942611Y-69415975D01*
X168848712Y-69322076D01*
X168941185Y-69246185D01*
X169020537Y-69149494D01*
X169079502Y-69039180D01*
X169115812Y-68919482D01*
X169128072Y-68795000D01*
X169125000Y-68230750D01*
X168966250Y-68072000D01*
X167767000Y-68072000D01*
X167767000Y-68092000D01*
X167513000Y-68092000D01*
X167513000Y-68072000D01*
X166313750Y-68072000D01*
X166155000Y-68230750D01*
X166151928Y-68795000D01*
X166154686Y-68823000D01*
X157533423Y-68823000D01*
X156602000Y-67891578D01*
X156602000Y-67470881D01*
X158133724Y-67470881D01*
X158493912Y-67960548D01*
X159157882Y-68320849D01*
X159879385Y-68544694D01*
X160630695Y-68623480D01*
X161382938Y-68554178D01*
X162107208Y-68339452D01*
X162775670Y-67987555D01*
X162816088Y-67960548D01*
X163176276Y-67470881D01*
X160655000Y-64949605D01*
X158133724Y-67470881D01*
X156602000Y-67470881D01*
X156602000Y-66144433D01*
X156610040Y-66062801D01*
X156602000Y-65981169D01*
X156602000Y-65981159D01*
X156577952Y-65736993D01*
X156482917Y-65423705D01*
X156377724Y-65226903D01*
X156328588Y-65134976D01*
X156172941Y-64945320D01*
X156172938Y-64945317D01*
X156120897Y-64881905D01*
X156057486Y-64829865D01*
X155973316Y-64745695D01*
X156801520Y-64745695D01*
X156870822Y-65497938D01*
X157085548Y-66222208D01*
X157437445Y-66890670D01*
X157464452Y-66931088D01*
X157954119Y-67291276D01*
X160475395Y-64770000D01*
X160834605Y-64770000D01*
X163355881Y-67291276D01*
X163622713Y-67095000D01*
X166151928Y-67095000D01*
X166155000Y-67659250D01*
X166313750Y-67818000D01*
X167513000Y-67818000D01*
X167513000Y-66618750D01*
X167767000Y-66618750D01*
X167767000Y-67818000D01*
X168966250Y-67818000D01*
X169125000Y-67659250D01*
X169128072Y-67095000D01*
X169115812Y-66970518D01*
X169079502Y-66850820D01*
X169020537Y-66740506D01*
X168941185Y-66643815D01*
X168844494Y-66564463D01*
X168734180Y-66505498D01*
X168614482Y-66469188D01*
X168490000Y-66456928D01*
X167925750Y-66460000D01*
X167767000Y-66618750D01*
X167513000Y-66618750D01*
X167354250Y-66460000D01*
X166790000Y-66456928D01*
X166665518Y-66469188D01*
X166545820Y-66505498D01*
X166435506Y-66564463D01*
X166338815Y-66643815D01*
X166259463Y-66740506D01*
X166200498Y-66850820D01*
X166164188Y-66970518D01*
X166151928Y-67095000D01*
X163622713Y-67095000D01*
X163845548Y-66931088D01*
X164205849Y-66267118D01*
X164429694Y-65545615D01*
X164508480Y-64794305D01*
X164439178Y-64042062D01*
X164224452Y-63317792D01*
X163872555Y-62649330D01*
X163845548Y-62608912D01*
X163355881Y-62248724D01*
X160834605Y-64770000D01*
X160475395Y-64770000D01*
X157954119Y-62248724D01*
X157464452Y-62608912D01*
X157104151Y-63272882D01*
X156880306Y-63994385D01*
X156801520Y-64745695D01*
X155973316Y-64745695D01*
X153102298Y-61874678D01*
X152945897Y-61684103D01*
X152692825Y-61476412D01*
X152404097Y-61322083D01*
X152090809Y-61227048D01*
X151846643Y-61203000D01*
X151846642Y-61203000D01*
X151765000Y-61194959D01*
X151683357Y-61203000D01*
X127081631Y-61203000D01*
X126999999Y-61194960D01*
X126918367Y-61203000D01*
X126918357Y-61203000D01*
X126674191Y-61227048D01*
X126360903Y-61322083D01*
X126318242Y-61344886D01*
X126072174Y-61476412D01*
X125882518Y-61632059D01*
X125882515Y-61632062D01*
X125819103Y-61684103D01*
X125767062Y-61747515D01*
X123342515Y-64172063D01*
X123279104Y-64224103D01*
X123227063Y-64287515D01*
X123227059Y-64287519D01*
X123071412Y-64477175D01*
X122983732Y-64641213D01*
X122917084Y-64765903D01*
X122862659Y-64945320D01*
X122822049Y-65079192D01*
X122789960Y-65405000D01*
X122798001Y-65486642D01*
X122798000Y-68192877D01*
X122794966Y-68202880D01*
X122778999Y-68365000D01*
X122778999Y-70065000D01*
X122794966Y-70227120D01*
X122840735Y-70378000D01*
X121987639Y-70378000D01*
X121919999Y-70371338D01*
X121650060Y-70397925D01*
X121472883Y-70451671D01*
X121390495Y-70476663D01*
X121151279Y-70604527D01*
X120941603Y-70776603D01*
X120898483Y-70829145D01*
X118624629Y-73103000D01*
X118565056Y-73103000D01*
X118212084Y-73173211D01*
X117879591Y-73310934D01*
X117580355Y-73510876D01*
X117325876Y-73765355D01*
X117125934Y-74064591D01*
X116988211Y-74397084D01*
X116918000Y-74750056D01*
X116918000Y-75109944D01*
X116988211Y-75462916D01*
X117125934Y-75795409D01*
X117325876Y-76094645D01*
X117580355Y-76349124D01*
X117879591Y-76549066D01*
X118212084Y-76686789D01*
X118565056Y-76757000D01*
X118924944Y-76757000D01*
X119277916Y-76686789D01*
X119610409Y-76549066D01*
X119909645Y-76349124D01*
X120164124Y-76094645D01*
X120364066Y-75795409D01*
X120501789Y-75462916D01*
X120572000Y-75109944D01*
X120572000Y-75050371D01*
X122490372Y-73132000D01*
X123251364Y-73132000D01*
X123157389Y-73225975D01*
X122973862Y-73500643D01*
X122847446Y-73805837D01*
X122783000Y-74129830D01*
X122783000Y-74460170D01*
X122847446Y-74784163D01*
X122973862Y-75089357D01*
X123083000Y-75252694D01*
X123083000Y-75497360D01*
X123076338Y-75565000D01*
X123083000Y-75632640D01*
X123102925Y-75834939D01*
X123181663Y-76094505D01*
X123309528Y-76333721D01*
X123481604Y-76543397D01*
X123534146Y-76586517D01*
X125808000Y-78860372D01*
X125808000Y-78919944D01*
X125878211Y-79272916D01*
X126015934Y-79605409D01*
X126215876Y-79904645D01*
X126470355Y-80159124D01*
X126769591Y-80359066D01*
X127102084Y-80496789D01*
X127455056Y-80567000D01*
X127814944Y-80567000D01*
X128167916Y-80496789D01*
X128500409Y-80359066D01*
X128799645Y-80159124D01*
X128841769Y-80117000D01*
X133413231Y-80117000D01*
X133455355Y-80159124D01*
X133613555Y-80264830D01*
X133556481Y-80316586D01*
X133388963Y-80542580D01*
X133268754Y-80796913D01*
X133228096Y-80930961D01*
X133350085Y-81153000D01*
X134493000Y-81153000D01*
X134493000Y-81133000D01*
X134747000Y-81133000D01*
X134747000Y-81153000D01*
X134767000Y-81153000D01*
X134767000Y-81407000D01*
X134747000Y-81407000D01*
X134747000Y-81427000D01*
X134493000Y-81427000D01*
X134493000Y-81407000D01*
X133350085Y-81407000D01*
X133228096Y-81629039D01*
X133268754Y-81763087D01*
X133388963Y-82017420D01*
X133556481Y-82243414D01*
X133764869Y-82432385D01*
X134006119Y-82577070D01*
X134270960Y-82671909D01*
X134492998Y-82550625D01*
X134492998Y-82634631D01*
X133694146Y-83433483D01*
X133641603Y-83476604D01*
X133469527Y-83686280D01*
X133439744Y-83742000D01*
X133341663Y-83925496D01*
X133262925Y-84185061D01*
X133236338Y-84455000D01*
X133243000Y-84522640D01*
X133243001Y-85788230D01*
X133200876Y-85830355D01*
X133000934Y-86129591D01*
X132863211Y-86462084D01*
X132793000Y-86815056D01*
X132793000Y-87174944D01*
X132863211Y-87527916D01*
X133000934Y-87860409D01*
X133200876Y-88159645D01*
X133455355Y-88414124D01*
X133754591Y-88614066D01*
X134087084Y-88751789D01*
X134440056Y-88822000D01*
X134799944Y-88822000D01*
X135152916Y-88751789D01*
X135485409Y-88614066D01*
X135525048Y-88587580D01*
X135079100Y-89033528D01*
X134799944Y-88978000D01*
X134440056Y-88978000D01*
X134087084Y-89048211D01*
X133754591Y-89185934D01*
X133455355Y-89385876D01*
X133200876Y-89640355D01*
X133000934Y-89939591D01*
X132863211Y-90272084D01*
X132793000Y-90625056D01*
X132793000Y-90984944D01*
X132863211Y-91337916D01*
X133000934Y-91670409D01*
X133200876Y-91969645D01*
X133455355Y-92224124D01*
X133754591Y-92424066D01*
X134087084Y-92561789D01*
X134440056Y-92632000D01*
X134799944Y-92632000D01*
X135152916Y-92561789D01*
X135485409Y-92424066D01*
X135784645Y-92224124D01*
X136039124Y-91969645D01*
X136078792Y-91910278D01*
X136233397Y-91783397D01*
X136276521Y-91730850D01*
X137730372Y-90277000D01*
X142807360Y-90277000D01*
X142875000Y-90283662D01*
X143024515Y-90268936D01*
X143023211Y-90272084D01*
X142953000Y-90625056D01*
X142953000Y-90984944D01*
X143023211Y-91337916D01*
X143160934Y-91670409D01*
X143360876Y-91969645D01*
X143615355Y-92224124D01*
X143914591Y-92424066D01*
X144247084Y-92561789D01*
X144600056Y-92632000D01*
X144959944Y-92632000D01*
X145312916Y-92561789D01*
X145645409Y-92424066D01*
X145944645Y-92224124D01*
X145986769Y-92182000D01*
X146617360Y-92182000D01*
X146685000Y-92188662D01*
X146769342Y-92180355D01*
X146954939Y-92162075D01*
X147214505Y-92083337D01*
X147453721Y-91955473D01*
X147663397Y-91783397D01*
X147706521Y-91730850D01*
X147719669Y-91717702D01*
X149681903Y-91717702D01*
X149753486Y-91961671D01*
X150008996Y-92082571D01*
X150283184Y-92151300D01*
X150565512Y-92165217D01*
X150845130Y-92123787D01*
X151111292Y-92028603D01*
X151236514Y-91961671D01*
X151308097Y-91717702D01*
X150495000Y-90904605D01*
X149681903Y-91717702D01*
X147719669Y-91717702D01*
X149117041Y-90320330D01*
X149068700Y-90513184D01*
X149054783Y-90795512D01*
X149096213Y-91075130D01*
X149191397Y-91341292D01*
X149258329Y-91466514D01*
X149502298Y-91538097D01*
X150315395Y-90725000D01*
X150301253Y-90710858D01*
X150480858Y-90531253D01*
X150495000Y-90545395D01*
X150509143Y-90531253D01*
X150688748Y-90710858D01*
X150674605Y-90725000D01*
X151487702Y-91538097D01*
X151731671Y-91466514D01*
X151852571Y-91211004D01*
X151921300Y-90936816D01*
X151935217Y-90654488D01*
X151893787Y-90374870D01*
X151798603Y-90108708D01*
X151731671Y-89983486D01*
X151692552Y-89972008D01*
X153509637Y-89972008D01*
X154383000Y-90845372D01*
X154383000Y-90904944D01*
X154453211Y-91257916D01*
X154590934Y-91590409D01*
X154790876Y-91889645D01*
X155045355Y-92144124D01*
X155344591Y-92344066D01*
X155677084Y-92481789D01*
X156030056Y-92552000D01*
X156389944Y-92552000D01*
X156742916Y-92481789D01*
X157075409Y-92344066D01*
X157374645Y-92144124D01*
X157629124Y-91889645D01*
X157829066Y-91590409D01*
X157966789Y-91257916D01*
X158037000Y-90904944D01*
X158037000Y-90845371D01*
X159628000Y-89254372D01*
X159628001Y-91386576D01*
X158061578Y-92953000D01*
X130863422Y-92953000D01*
X130618856Y-92708434D01*
X130524066Y-92479591D01*
X130324124Y-92180355D01*
X130069645Y-91925876D01*
X129770409Y-91725934D01*
X129437916Y-91588211D01*
X129084944Y-91518000D01*
X128725056Y-91518000D01*
X128372084Y-91588211D01*
X128039591Y-91725934D01*
X127740355Y-91925876D01*
X127485876Y-92180355D01*
X127285934Y-92479591D01*
X127148211Y-92812084D01*
X127078000Y-93165056D01*
X127078000Y-93524944D01*
X127148211Y-93877916D01*
X127285934Y-94210409D01*
X127485876Y-94509645D01*
X127740355Y-94764124D01*
X128039591Y-94964066D01*
X128268434Y-95058856D01*
X128942058Y-95732480D01*
X128963002Y-95758000D01*
X115369211Y-95758000D01*
X115752208Y-95644452D01*
X116420670Y-95292555D01*
X116461088Y-95265548D01*
X116821276Y-94775881D01*
X114300000Y-92254605D01*
X111778724Y-94775881D01*
X112138912Y-95265548D01*
X112802882Y-95625849D01*
X113228835Y-95758000D01*
X110617000Y-95758000D01*
X110617000Y-93144211D01*
X110730548Y-93527208D01*
X111082445Y-94195670D01*
X111109452Y-94236088D01*
X111599119Y-94596276D01*
X114120395Y-92075000D01*
X114479605Y-92075000D01*
X117000881Y-94596276D01*
X117490548Y-94236088D01*
X117784688Y-93694040D01*
X118623091Y-93694040D01*
X118717930Y-93958881D01*
X118862615Y-94200131D01*
X119051586Y-94408519D01*
X119277580Y-94576037D01*
X119531913Y-94696246D01*
X119665961Y-94736904D01*
X119888000Y-94614915D01*
X119888000Y-93472000D01*
X120142000Y-93472000D01*
X120142000Y-94614915D01*
X120364039Y-94736904D01*
X120498087Y-94696246D01*
X120752420Y-94576037D01*
X120978414Y-94408519D01*
X121167385Y-94200131D01*
X121312070Y-93958881D01*
X121406909Y-93694040D01*
X121285624Y-93472000D01*
X120142000Y-93472000D01*
X119888000Y-93472000D01*
X118744376Y-93472000D01*
X118623091Y-93694040D01*
X117784688Y-93694040D01*
X117850849Y-93572118D01*
X118029600Y-92995960D01*
X118623091Y-92995960D01*
X118744376Y-93218000D01*
X119888000Y-93218000D01*
X119888000Y-92075085D01*
X120142000Y-92075085D01*
X120142000Y-93218000D01*
X121285624Y-93218000D01*
X121406909Y-92995960D01*
X121312070Y-92731119D01*
X121167385Y-92489869D01*
X120978414Y-92281481D01*
X120752420Y-92113963D01*
X120498087Y-91993754D01*
X120364039Y-91953096D01*
X120142000Y-92075085D01*
X119888000Y-92075085D01*
X119665961Y-91953096D01*
X119531913Y-91993754D01*
X119277580Y-92113963D01*
X119051586Y-92281481D01*
X118862615Y-92489869D01*
X118717930Y-92731119D01*
X118623091Y-92995960D01*
X118029600Y-92995960D01*
X118074694Y-92850615D01*
X118153480Y-92099305D01*
X118084178Y-91347062D01*
X117869452Y-90622792D01*
X117517555Y-89954330D01*
X117490548Y-89913912D01*
X117000881Y-89553724D01*
X114479605Y-92075000D01*
X114120395Y-92075000D01*
X111599119Y-89553724D01*
X111109452Y-89913912D01*
X110749151Y-90577882D01*
X110617000Y-91003835D01*
X110617000Y-89374119D01*
X111778724Y-89374119D01*
X114300000Y-91895395D01*
X116821276Y-89374119D01*
X116676797Y-89177702D01*
X123646903Y-89177702D01*
X123718486Y-89421671D01*
X123973996Y-89542571D01*
X124248184Y-89611300D01*
X124530512Y-89625217D01*
X124810130Y-89583787D01*
X125076292Y-89488603D01*
X125201514Y-89421671D01*
X125273097Y-89177702D01*
X124460000Y-88364605D01*
X123646903Y-89177702D01*
X116676797Y-89177702D01*
X116461088Y-88884452D01*
X115797118Y-88524151D01*
X115075615Y-88300306D01*
X114648456Y-88255512D01*
X123019783Y-88255512D01*
X123061213Y-88535130D01*
X123156397Y-88801292D01*
X123223329Y-88926514D01*
X123467298Y-88998097D01*
X124280395Y-88185000D01*
X124639605Y-88185000D01*
X125452702Y-88998097D01*
X125696671Y-88926514D01*
X125817571Y-88671004D01*
X125886300Y-88396816D01*
X125900217Y-88114488D01*
X125858787Y-87834870D01*
X125763603Y-87568708D01*
X125696671Y-87443486D01*
X125452702Y-87371903D01*
X124639605Y-88185000D01*
X124280395Y-88185000D01*
X123467298Y-87371903D01*
X123223329Y-87443486D01*
X123102429Y-87698996D01*
X123033700Y-87973184D01*
X123019783Y-88255512D01*
X114648456Y-88255512D01*
X114324305Y-88221520D01*
X113572062Y-88290822D01*
X112847792Y-88505548D01*
X112179330Y-88857445D01*
X112138912Y-88884452D01*
X111778724Y-89374119D01*
X110617000Y-89374119D01*
X110617000Y-87192298D01*
X123646903Y-87192298D01*
X124460000Y-88005395D01*
X125273097Y-87192298D01*
X125201514Y-86948329D01*
X124946004Y-86827429D01*
X124671816Y-86758700D01*
X124389488Y-86744783D01*
X124109870Y-86786213D01*
X123843708Y-86881397D01*
X123718486Y-86948329D01*
X123646903Y-87192298D01*
X110617000Y-87192298D01*
X110617000Y-82765000D01*
X111541928Y-82765000D01*
X111554188Y-82889482D01*
X111590498Y-83009180D01*
X111649463Y-83119494D01*
X111728815Y-83216185D01*
X111825506Y-83295537D01*
X111935820Y-83354502D01*
X112055518Y-83390812D01*
X112180000Y-83403072D01*
X112744250Y-83400000D01*
X112903000Y-83241250D01*
X112903000Y-82042000D01*
X113157000Y-82042000D01*
X113157000Y-83241250D01*
X113315750Y-83400000D01*
X113880000Y-83403072D01*
X114004482Y-83390812D01*
X114124180Y-83354502D01*
X114234494Y-83295537D01*
X114331185Y-83216185D01*
X114410537Y-83119494D01*
X114469502Y-83009180D01*
X114505812Y-82889482D01*
X114518072Y-82765000D01*
X114515000Y-82200750D01*
X114356250Y-82042000D01*
X113157000Y-82042000D01*
X112903000Y-82042000D01*
X111703750Y-82042000D01*
X111545000Y-82200750D01*
X111541928Y-82765000D01*
X110617000Y-82765000D01*
X110617000Y-81065000D01*
X111541928Y-81065000D01*
X111545000Y-81629250D01*
X111703750Y-81788000D01*
X112903000Y-81788000D01*
X112903000Y-80588750D01*
X113157000Y-80588750D01*
X113157000Y-81788000D01*
X114356250Y-81788000D01*
X114515000Y-81629250D01*
X114518072Y-81065000D01*
X114505812Y-80940518D01*
X114469502Y-80820820D01*
X114410537Y-80710506D01*
X114331185Y-80613815D01*
X114234494Y-80534463D01*
X114124180Y-80475498D01*
X114004482Y-80439188D01*
X113880000Y-80426928D01*
X113315750Y-80430000D01*
X113157000Y-80588750D01*
X112903000Y-80588750D01*
X112744250Y-80430000D01*
X112180000Y-80426928D01*
X112055518Y-80439188D01*
X111935820Y-80475498D01*
X111825506Y-80534463D01*
X111728815Y-80613815D01*
X111649463Y-80710506D01*
X111590498Y-80820820D01*
X111554188Y-80940518D01*
X111541928Y-81065000D01*
X110617000Y-81065000D01*
X110617000Y-78560056D01*
X115648000Y-78560056D01*
X115648000Y-78919944D01*
X115718211Y-79272916D01*
X115855934Y-79605409D01*
X116055876Y-79904645D01*
X116098001Y-79946770D01*
X116098001Y-80577351D01*
X116091338Y-80645000D01*
X116117925Y-80914939D01*
X116196663Y-81174504D01*
X116253052Y-81280000D01*
X116324528Y-81413721D01*
X116496604Y-81623397D01*
X116549145Y-81666517D01*
X118188000Y-83305372D01*
X118188000Y-83364944D01*
X118258211Y-83717916D01*
X118395934Y-84050409D01*
X118595876Y-84349645D01*
X118850355Y-84604124D01*
X119149591Y-84804066D01*
X119482084Y-84941789D01*
X119835056Y-85012000D01*
X120194944Y-85012000D01*
X120547916Y-84941789D01*
X120880409Y-84804066D01*
X121179645Y-84604124D01*
X121221769Y-84562000D01*
X123253231Y-84562000D01*
X123295355Y-84604124D01*
X123594591Y-84804066D01*
X123927084Y-84941789D01*
X124280056Y-85012000D01*
X124639944Y-85012000D01*
X124992916Y-84941789D01*
X125325409Y-84804066D01*
X125624645Y-84604124D01*
X125666769Y-84562000D01*
X127698231Y-84562000D01*
X127740355Y-84604124D01*
X128039591Y-84804066D01*
X128372084Y-84941789D01*
X128725056Y-85012000D01*
X129084944Y-85012000D01*
X129437916Y-84941789D01*
X129770409Y-84804066D01*
X130069645Y-84604124D01*
X130324124Y-84349645D01*
X130524066Y-84050409D01*
X130661789Y-83717916D01*
X130732000Y-83364944D01*
X130732000Y-83005056D01*
X130661789Y-82652084D01*
X130524066Y-82319591D01*
X130324124Y-82020355D01*
X130069645Y-81765876D01*
X129770409Y-81565934D01*
X129437916Y-81428211D01*
X129084944Y-81358000D01*
X128725056Y-81358000D01*
X128372084Y-81428211D01*
X128039591Y-81565934D01*
X127740355Y-81765876D01*
X127698231Y-81808000D01*
X125666769Y-81808000D01*
X125624645Y-81765876D01*
X125325409Y-81565934D01*
X124992916Y-81428211D01*
X124639944Y-81358000D01*
X124280056Y-81358000D01*
X123927084Y-81428211D01*
X123594591Y-81565934D01*
X123295355Y-81765876D01*
X123253231Y-81808000D01*
X121221769Y-81808000D01*
X121179645Y-81765876D01*
X120880409Y-81565934D01*
X120547916Y-81428211D01*
X120194944Y-81358000D01*
X120135372Y-81358000D01*
X118852000Y-80074629D01*
X118852000Y-79946769D01*
X118894124Y-79904645D01*
X119094066Y-79605409D01*
X119231789Y-79272916D01*
X119302000Y-78919944D01*
X119302000Y-78560056D01*
X119231789Y-78207084D01*
X119094066Y-77874591D01*
X118894124Y-77575355D01*
X118639645Y-77320876D01*
X118340409Y-77120934D01*
X118007916Y-76983211D01*
X117654944Y-76913000D01*
X117295056Y-76913000D01*
X116942084Y-76983211D01*
X116609591Y-77120934D01*
X116310355Y-77320876D01*
X116055876Y-77575355D01*
X115855934Y-77874591D01*
X115718211Y-78207084D01*
X115648000Y-78560056D01*
X110617000Y-78560056D01*
X110617000Y-72810000D01*
X111148031Y-72810000D01*
X111148031Y-74510000D01*
X111167860Y-74711327D01*
X111226585Y-74904917D01*
X111321949Y-75083331D01*
X111450288Y-75239712D01*
X111606669Y-75368051D01*
X111785083Y-75463415D01*
X111978673Y-75522140D01*
X112180000Y-75541969D01*
X113880000Y-75541969D01*
X114081327Y-75522140D01*
X114274917Y-75463415D01*
X114453331Y-75368051D01*
X114609712Y-75239712D01*
X114738051Y-75083331D01*
X114833415Y-74904917D01*
X114892140Y-74711327D01*
X114911969Y-74510000D01*
X114911969Y-73725402D01*
X117410372Y-71227000D01*
X117458231Y-71227000D01*
X117580355Y-71349124D01*
X117879591Y-71549066D01*
X118212084Y-71686789D01*
X118565056Y-71757000D01*
X118924944Y-71757000D01*
X119277916Y-71686789D01*
X119610409Y-71549066D01*
X119909645Y-71349124D01*
X120164124Y-71094645D01*
X120364066Y-70795409D01*
X120501789Y-70462916D01*
X120572000Y-70109944D01*
X120572000Y-69750056D01*
X120501789Y-69397084D01*
X120364066Y-69064591D01*
X120164124Y-68765355D01*
X119909645Y-68510876D01*
X119610409Y-68310934D01*
X119277916Y-68173211D01*
X118924944Y-68103000D01*
X118565056Y-68103000D01*
X118212084Y-68173211D01*
X117879591Y-68310934D01*
X117637041Y-68473000D01*
X116907640Y-68473000D01*
X116840000Y-68466338D01*
X116570060Y-68492925D01*
X116510884Y-68510876D01*
X116310495Y-68571663D01*
X116071279Y-68699527D01*
X115861603Y-68871603D01*
X115818483Y-68924145D01*
X112964598Y-71778031D01*
X112180000Y-71778031D01*
X111978673Y-71797860D01*
X111785083Y-71856585D01*
X111606669Y-71951949D01*
X111450288Y-72080288D01*
X111321949Y-72236669D01*
X111226585Y-72415083D01*
X111167860Y-72608673D01*
X111148031Y-72810000D01*
X110617000Y-72810000D01*
X110617000Y-67470881D01*
X111778724Y-67470881D01*
X112138912Y-67960548D01*
X112802882Y-68320849D01*
X113524385Y-68544694D01*
X114275695Y-68623480D01*
X115027938Y-68554178D01*
X115752208Y-68339452D01*
X116420670Y-67987555D01*
X116461088Y-67960548D01*
X116821276Y-67470881D01*
X114300000Y-64949605D01*
X111778724Y-67470881D01*
X110617000Y-67470881D01*
X110617000Y-65839211D01*
X110730548Y-66222208D01*
X111082445Y-66890670D01*
X111109452Y-66931088D01*
X111599119Y-67291276D01*
X114120395Y-64770000D01*
X114479605Y-64770000D01*
X117000881Y-67291276D01*
X117490548Y-66931088D01*
X117850849Y-66267118D01*
X118074694Y-65545615D01*
X118153480Y-64794305D01*
X118084178Y-64042062D01*
X117869452Y-63317792D01*
X117517555Y-62649330D01*
X117490548Y-62608912D01*
X117000881Y-62248724D01*
X114479605Y-64770000D01*
X114120395Y-64770000D01*
X111599119Y-62248724D01*
X111109452Y-62608912D01*
X110749151Y-63272882D01*
X110617000Y-63698835D01*
X110617000Y-61087000D01*
X113230789Y-61087000D01*
X112847792Y-61200548D01*
G36*
X145184591Y-77819066D02*
G01*
X145517084Y-77956789D01*
X145870056Y-78027000D01*
X145929629Y-78027000D01*
X154553483Y-86650855D01*
X154596603Y-86703397D01*
X154751208Y-86830278D01*
X154790876Y-86889645D01*
X155045355Y-87144124D01*
X155344591Y-87344066D01*
X155677084Y-87481789D01*
X156030056Y-87552000D01*
X156389944Y-87552000D01*
X156742916Y-87481789D01*
X157075409Y-87344066D01*
X157373000Y-87145223D01*
X157373000Y-87614628D01*
X156210000Y-88777628D01*
X155101529Y-87669158D01*
X155058405Y-87616611D01*
X154848729Y-87444535D01*
X154609513Y-87316671D01*
X154349947Y-87237933D01*
X154147648Y-87218008D01*
X154080008Y-87211346D01*
X154012368Y-87218008D01*
X151549069Y-87218008D01*
X151659645Y-87144124D01*
X151914124Y-86889645D01*
X152114066Y-86590409D01*
X152251789Y-86257916D01*
X152322000Y-85904944D01*
X152322000Y-85545056D01*
X152251789Y-85192084D01*
X152114066Y-84859591D01*
X151914124Y-84560355D01*
X151659645Y-84305876D01*
X151360409Y-84105934D01*
X151027916Y-83968211D01*
X150674944Y-83898000D01*
X150315056Y-83898000D01*
X149962084Y-83968211D01*
X149629591Y-84105934D01*
X149583861Y-84136489D01*
X147821472Y-82374101D01*
X147877000Y-82094944D01*
X147877000Y-81735056D01*
X147806789Y-81382084D01*
X147669066Y-81049591D01*
X147469124Y-80750355D01*
X147214645Y-80495876D01*
X146915409Y-80295934D01*
X146582916Y-80158211D01*
X146229944Y-80088000D01*
X146106030Y-80088000D01*
X145944505Y-80001663D01*
X145684939Y-79922925D01*
X145482640Y-79903000D01*
X145415000Y-79896338D01*
X145347360Y-79903000D01*
X143660223Y-79903000D01*
X143698792Y-79845278D01*
X143853397Y-79718397D01*
X143896521Y-79665850D01*
X144435859Y-79126513D01*
X144488396Y-79083397D01*
X144660473Y-78873721D01*
X144788337Y-78634505D01*
X144867075Y-78374939D01*
X144880492Y-78238721D01*
X144893662Y-78105000D01*
X144887000Y-78037360D01*
X144887000Y-77620223D01*
X145184591Y-77819066D01*
G37*
X145184591Y-77819066D02*
X145517084Y-77956789D01*
X145870056Y-78027000D01*
X145929629Y-78027000D01*
X154553483Y-86650855D01*
X154596603Y-86703397D01*
X154751208Y-86830278D01*
X154790876Y-86889645D01*
X155045355Y-87144124D01*
X155344591Y-87344066D01*
X155677084Y-87481789D01*
X156030056Y-87552000D01*
X156389944Y-87552000D01*
X156742916Y-87481789D01*
X157075409Y-87344066D01*
X157373000Y-87145223D01*
X157373000Y-87614628D01*
X156210000Y-88777628D01*
X155101529Y-87669158D01*
X155058405Y-87616611D01*
X154848729Y-87444535D01*
X154609513Y-87316671D01*
X154349947Y-87237933D01*
X154147648Y-87218008D01*
X154080008Y-87211346D01*
X154012368Y-87218008D01*
X151549069Y-87218008D01*
X151659645Y-87144124D01*
X151914124Y-86889645D01*
X152114066Y-86590409D01*
X152251789Y-86257916D01*
X152322000Y-85904944D01*
X152322000Y-85545056D01*
X152251789Y-85192084D01*
X152114066Y-84859591D01*
X151914124Y-84560355D01*
X151659645Y-84305876D01*
X151360409Y-84105934D01*
X151027916Y-83968211D01*
X150674944Y-83898000D01*
X150315056Y-83898000D01*
X149962084Y-83968211D01*
X149629591Y-84105934D01*
X149583861Y-84136489D01*
X147821472Y-82374101D01*
X147877000Y-82094944D01*
X147877000Y-81735056D01*
X147806789Y-81382084D01*
X147669066Y-81049591D01*
X147469124Y-80750355D01*
X147214645Y-80495876D01*
X146915409Y-80295934D01*
X146582916Y-80158211D01*
X146229944Y-80088000D01*
X146106030Y-80088000D01*
X145944505Y-80001663D01*
X145684939Y-79922925D01*
X145482640Y-79903000D01*
X145415000Y-79896338D01*
X145347360Y-79903000D01*
X143660223Y-79903000D01*
X143698792Y-79845278D01*
X143853397Y-79718397D01*
X143896521Y-79665850D01*
X144435859Y-79126513D01*
X144488396Y-79083397D01*
X144660473Y-78873721D01*
X144788337Y-78634505D01*
X144867075Y-78374939D01*
X144880492Y-78238721D01*
X144893662Y-78105000D01*
X144887000Y-78037360D01*
X144887000Y-77620223D01*
X145184591Y-77819066D01*
G36*
X142832628Y-86995000D02*
G01*
X142304629Y-87523000D01*
X137227640Y-87523000D01*
X137160000Y-87516338D01*
X136890060Y-87542925D01*
X136647149Y-87616611D01*
X136630495Y-87621663D01*
X136391279Y-87749527D01*
X136218302Y-87891485D01*
X136239066Y-87860409D01*
X136376789Y-87527916D01*
X136447000Y-87174944D01*
X136447000Y-86815056D01*
X136376789Y-86462084D01*
X136239066Y-86129591D01*
X136039124Y-85830355D01*
X135997000Y-85788231D01*
X135997000Y-85025371D01*
X138085857Y-82936515D01*
X138138397Y-82893397D01*
X138310473Y-82683721D01*
X138383927Y-82546298D01*
X142832628Y-86995000D01*
G37*
X142832628Y-86995000D02*
X142304629Y-87523000D01*
X137227640Y-87523000D01*
X137160000Y-87516338D01*
X136890060Y-87542925D01*
X136647149Y-87616611D01*
X136630495Y-87621663D01*
X136391279Y-87749527D01*
X136218302Y-87891485D01*
X136239066Y-87860409D01*
X136376789Y-87527916D01*
X136447000Y-87174944D01*
X136447000Y-86815056D01*
X136376789Y-86462084D01*
X136239066Y-86129591D01*
X136039124Y-85830355D01*
X135997000Y-85788231D01*
X135997000Y-85025371D01*
X138085857Y-82936515D01*
X138138397Y-82893397D01*
X138310473Y-82683721D01*
X138383927Y-82546298D01*
X142832628Y-86995000D01*
G36*
X165978001Y-81087946D02*
G01*
X162546644Y-84519304D01*
X162647571Y-84306004D01*
X162716300Y-84031816D01*
X162730217Y-83749488D01*
X162688787Y-83469870D01*
X162593603Y-83203708D01*
X162526671Y-83078486D01*
X162282702Y-83006903D01*
X161469605Y-83820000D01*
X161483748Y-83834143D01*
X161304143Y-84013748D01*
X161290000Y-83999605D01*
X160476903Y-84812702D01*
X160548486Y-85056671D01*
X160803996Y-85177571D01*
X161078184Y-85246300D01*
X161360512Y-85260217D01*
X161640130Y-85218787D01*
X161906292Y-85123603D01*
X161983743Y-85082205D01*
X160172520Y-86893428D01*
X160127000Y-86930785D01*
X160127000Y-84583130D01*
X160297298Y-84633097D01*
X161110395Y-83820000D01*
X160297298Y-83006903D01*
X160053329Y-83078486D01*
X159932429Y-83333996D01*
X159863700Y-83608184D01*
X159862152Y-83639585D01*
X159728397Y-83476603D01*
X159675855Y-83433483D01*
X159069670Y-82827298D01*
X160476903Y-82827298D01*
X161290000Y-83640395D01*
X162103097Y-82827298D01*
X162031514Y-82583329D01*
X161776004Y-82462429D01*
X161501816Y-82393700D01*
X161219488Y-82379783D01*
X160939870Y-82421213D01*
X160673708Y-82516397D01*
X160548486Y-82583329D01*
X160476903Y-82827298D01*
X159069670Y-82827298D01*
X158037000Y-81794629D01*
X158037000Y-81735056D01*
X157966789Y-81382084D01*
X157829066Y-81049591D01*
X157629124Y-80750355D01*
X157374645Y-80495876D01*
X157234149Y-80402000D01*
X164383368Y-80402000D01*
X164465000Y-80410040D01*
X164546632Y-80402000D01*
X164546643Y-80402000D01*
X164790809Y-80377952D01*
X165104097Y-80282917D01*
X165392825Y-80128588D01*
X165645897Y-79920897D01*
X165697942Y-79857480D01*
X165788422Y-79767000D01*
X165978000Y-79767000D01*
X165978001Y-81087946D01*
G37*
X165978001Y-81087946D02*
X162546644Y-84519304D01*
X162647571Y-84306004D01*
X162716300Y-84031816D01*
X162730217Y-83749488D01*
X162688787Y-83469870D01*
X162593603Y-83203708D01*
X162526671Y-83078486D01*
X162282702Y-83006903D01*
X161469605Y-83820000D01*
X161483748Y-83834143D01*
X161304143Y-84013748D01*
X161290000Y-83999605D01*
X160476903Y-84812702D01*
X160548486Y-85056671D01*
X160803996Y-85177571D01*
X161078184Y-85246300D01*
X161360512Y-85260217D01*
X161640130Y-85218787D01*
X161906292Y-85123603D01*
X161983743Y-85082205D01*
X160172520Y-86893428D01*
X160127000Y-86930785D01*
X160127000Y-84583130D01*
X160297298Y-84633097D01*
X161110395Y-83820000D01*
X160297298Y-83006903D01*
X160053329Y-83078486D01*
X159932429Y-83333996D01*
X159863700Y-83608184D01*
X159862152Y-83639585D01*
X159728397Y-83476603D01*
X159675855Y-83433483D01*
X159069670Y-82827298D01*
X160476903Y-82827298D01*
X161290000Y-83640395D01*
X162103097Y-82827298D01*
X162031514Y-82583329D01*
X161776004Y-82462429D01*
X161501816Y-82393700D01*
X161219488Y-82379783D01*
X160939870Y-82421213D01*
X160673708Y-82516397D01*
X160548486Y-82583329D01*
X160476903Y-82827298D01*
X159069670Y-82827298D01*
X158037000Y-81794629D01*
X158037000Y-81735056D01*
X157966789Y-81382084D01*
X157829066Y-81049591D01*
X157629124Y-80750355D01*
X157374645Y-80495876D01*
X157234149Y-80402000D01*
X164383368Y-80402000D01*
X164465000Y-80410040D01*
X164546632Y-80402000D01*
X164546643Y-80402000D01*
X164790809Y-80377952D01*
X165104097Y-80282917D01*
X165392825Y-80128588D01*
X165645897Y-79920897D01*
X165697942Y-79857480D01*
X165788422Y-79767000D01*
X165978000Y-79767000D01*
X165978001Y-81087946D01*
G36*
X129645355Y-64620876D02*
G01*
X129390876Y-64875355D01*
X129190934Y-65174591D01*
X129053211Y-65507084D01*
X128983000Y-65860056D01*
X128983000Y-66219944D01*
X129053211Y-66572916D01*
X129190934Y-66905409D01*
X129390876Y-67204645D01*
X129645355Y-67459124D01*
X129944591Y-67659066D01*
X130277084Y-67796789D01*
X130630056Y-67867000D01*
X130989944Y-67867000D01*
X131342916Y-67796789D01*
X131675409Y-67659066D01*
X131974645Y-67459124D01*
X132229124Y-67204645D01*
X132429066Y-66905409D01*
X132566789Y-66572916D01*
X132637000Y-66219944D01*
X132637000Y-66160371D01*
X132650371Y-66147000D01*
X142939629Y-66147000D01*
X142953000Y-66160371D01*
X142953000Y-66219944D01*
X143023211Y-66572916D01*
X143160934Y-66905409D01*
X143360876Y-67204645D01*
X143615355Y-67459124D01*
X143914591Y-67659066D01*
X144247084Y-67796789D01*
X144600056Y-67867000D01*
X144959944Y-67867000D01*
X145312916Y-67796789D01*
X145645409Y-67659066D01*
X145944645Y-67459124D01*
X146199124Y-67204645D01*
X146314012Y-67032702D01*
X148966903Y-67032702D01*
X149038486Y-67276671D01*
X149293996Y-67397571D01*
X149568184Y-67466300D01*
X149850512Y-67480217D01*
X150130130Y-67438787D01*
X150396292Y-67343603D01*
X150521514Y-67276671D01*
X150593097Y-67032702D01*
X149780000Y-66219605D01*
X148966903Y-67032702D01*
X146314012Y-67032702D01*
X146399066Y-66905409D01*
X146536789Y-66572916D01*
X146607000Y-66219944D01*
X146607000Y-66110512D01*
X148339783Y-66110512D01*
X148381213Y-66390130D01*
X148476397Y-66656292D01*
X148543329Y-66781514D01*
X148787298Y-66853097D01*
X149600395Y-66040000D01*
X149959605Y-66040000D01*
X150772702Y-66853097D01*
X151016671Y-66781514D01*
X151137571Y-66526004D01*
X151206300Y-66251816D01*
X151220217Y-65969488D01*
X151178787Y-65689870D01*
X151083603Y-65423708D01*
X151016671Y-65298486D01*
X150772702Y-65226903D01*
X149959605Y-66040000D01*
X149600395Y-66040000D01*
X148787298Y-65226903D01*
X148543329Y-65298486D01*
X148422429Y-65553996D01*
X148353700Y-65828184D01*
X148339783Y-66110512D01*
X146607000Y-66110512D01*
X146607000Y-65860056D01*
X146536789Y-65507084D01*
X146399066Y-65174591D01*
X146314013Y-65047298D01*
X148966903Y-65047298D01*
X149780000Y-65860395D01*
X150593097Y-65047298D01*
X150521514Y-64803329D01*
X150266004Y-64682429D01*
X149991816Y-64613700D01*
X149709488Y-64599783D01*
X149429870Y-64641213D01*
X149163708Y-64736397D01*
X149038486Y-64803329D01*
X148966903Y-65047298D01*
X146314013Y-65047298D01*
X146199124Y-64875355D01*
X145944645Y-64620876D01*
X145804149Y-64527000D01*
X151053776Y-64527000D01*
X153278000Y-66751225D01*
X153278001Y-68498358D01*
X153269960Y-68580000D01*
X153278001Y-68661642D01*
X153278001Y-68661643D01*
X153302049Y-68905809D01*
X153341256Y-69035056D01*
X153397084Y-69219097D01*
X153551412Y-69507825D01*
X153707059Y-69697481D01*
X153707063Y-69697485D01*
X153759104Y-69760897D01*
X153822515Y-69812937D01*
X155612062Y-71602485D01*
X155664103Y-71665897D01*
X155727515Y-71717938D01*
X155727518Y-71717941D01*
X155917174Y-71873588D01*
X156205902Y-72027917D01*
X156248814Y-72040934D01*
X156519191Y-72122952D01*
X156763357Y-72147000D01*
X156763368Y-72147000D01*
X156845000Y-72155040D01*
X156926632Y-72147000D01*
X160265851Y-72147000D01*
X160125355Y-72240876D01*
X160083231Y-72283000D01*
X158817629Y-72283000D01*
X158749999Y-72276339D01*
X158682370Y-72283000D01*
X158682360Y-72283000D01*
X158480061Y-72302925D01*
X158220495Y-72381663D01*
X157981279Y-72509527D01*
X157771603Y-72681603D01*
X157728485Y-72734143D01*
X156089629Y-74373000D01*
X156030056Y-74373000D01*
X155677084Y-74443211D01*
X155344591Y-74580934D01*
X155045355Y-74780876D01*
X154790876Y-75035355D01*
X154590934Y-75334591D01*
X154453211Y-75667084D01*
X154383000Y-76020056D01*
X154383000Y-76379944D01*
X154453211Y-76732916D01*
X154590934Y-77065409D01*
X154599347Y-77078000D01*
X154358423Y-77078000D01*
X149822942Y-72542520D01*
X149770897Y-72479103D01*
X149517825Y-72271412D01*
X149229097Y-72117083D01*
X148915809Y-72022048D01*
X148671643Y-71998000D01*
X148671632Y-71998000D01*
X148590000Y-71989960D01*
X148508368Y-71998000D01*
X143902000Y-71998000D01*
X143902000Y-70646631D01*
X143910040Y-70564999D01*
X143902000Y-70483367D01*
X143902000Y-70483357D01*
X143877952Y-70239191D01*
X143782917Y-69925903D01*
X143694719Y-69760897D01*
X143628588Y-69637174D01*
X143472941Y-69447518D01*
X143472938Y-69447515D01*
X143420897Y-69384103D01*
X143357485Y-69332062D01*
X142603855Y-68578433D01*
X142509066Y-68349591D01*
X142309124Y-68050355D01*
X142054645Y-67795876D01*
X141755409Y-67595934D01*
X141422916Y-67458211D01*
X141069944Y-67388000D01*
X140710056Y-67388000D01*
X140357084Y-67458211D01*
X140024591Y-67595934D01*
X139725355Y-67795876D01*
X139470876Y-68050355D01*
X139270934Y-68349591D01*
X139133211Y-68682084D01*
X139063000Y-69035056D01*
X139063000Y-69394944D01*
X139133211Y-69747916D01*
X139270934Y-70080409D01*
X139470876Y-70379645D01*
X139725355Y-70634124D01*
X140024591Y-70834066D01*
X140253433Y-70928855D01*
X140578001Y-71253423D01*
X140578000Y-72898242D01*
X140483211Y-73127084D01*
X140413000Y-73480056D01*
X140413000Y-73839944D01*
X140483211Y-74192916D01*
X140620934Y-74525409D01*
X140820876Y-74824645D01*
X140926231Y-74930000D01*
X140820876Y-75035355D01*
X140620934Y-75334591D01*
X140483211Y-75667084D01*
X140413000Y-76020056D01*
X140413000Y-76379944D01*
X140483211Y-76732916D01*
X140620934Y-77065409D01*
X140820876Y-77364645D01*
X140926231Y-77470000D01*
X140820876Y-77575355D01*
X140620934Y-77874591D01*
X140483211Y-78207084D01*
X140413000Y-78560056D01*
X140413000Y-78919944D01*
X140483211Y-79272916D01*
X140620934Y-79605409D01*
X140820876Y-79904645D01*
X140926231Y-80010000D01*
X140820876Y-80115355D01*
X140620934Y-80414591D01*
X140483211Y-80747084D01*
X140482588Y-80750217D01*
X140137010Y-80404639D01*
X140137010Y-76874895D01*
X140143672Y-76807255D01*
X140117085Y-76537315D01*
X140059998Y-76349124D01*
X140038347Y-76277750D01*
X139910483Y-76038534D01*
X139738407Y-75828858D01*
X139685865Y-75785738D01*
X136634276Y-72734150D01*
X136591152Y-72681603D01*
X136388694Y-72515451D01*
X136373415Y-72465083D01*
X136278051Y-72286669D01*
X136149712Y-72130288D01*
X135993331Y-72001949D01*
X135814917Y-71906585D01*
X135621327Y-71847860D01*
X135420000Y-71828031D01*
X133820000Y-71828031D01*
X133618673Y-71847860D01*
X133425083Y-71906585D01*
X133246669Y-72001949D01*
X133090288Y-72130288D01*
X132961949Y-72286669D01*
X132866585Y-72465083D01*
X132807860Y-72658673D01*
X132788031Y-72860000D01*
X132788031Y-74460000D01*
X132807860Y-74661327D01*
X132856903Y-74823000D01*
X132016769Y-74823000D01*
X131974645Y-74780876D01*
X131675409Y-74580934D01*
X131342916Y-74443211D01*
X130989944Y-74373000D01*
X130630056Y-74373000D01*
X130277084Y-74443211D01*
X129944591Y-74580934D01*
X129645355Y-74780876D01*
X129390876Y-75035355D01*
X129190934Y-75334591D01*
X129053211Y-75667084D01*
X128983000Y-76020056D01*
X128983000Y-76379944D01*
X129053211Y-76732916D01*
X129190934Y-77065409D01*
X129389777Y-77363000D01*
X128841769Y-77363000D01*
X128799645Y-77320876D01*
X128500409Y-77120934D01*
X128167916Y-76983211D01*
X127814944Y-76913000D01*
X127755372Y-76913000D01*
X125940366Y-75097995D01*
X125946138Y-75089357D01*
X126072554Y-74784163D01*
X126137000Y-74460170D01*
X126137000Y-74129830D01*
X126072554Y-73805837D01*
X125946138Y-73500643D01*
X125762611Y-73225975D01*
X125561636Y-73025000D01*
X125762611Y-72824025D01*
X125946138Y-72549357D01*
X126072554Y-72244163D01*
X126137000Y-71920170D01*
X126137000Y-71589830D01*
X126072554Y-71265837D01*
X125946138Y-70960643D01*
X125796020Y-70735976D01*
X125897606Y-70652606D01*
X126000952Y-70526679D01*
X126077745Y-70383010D01*
X126125034Y-70227120D01*
X126126946Y-70207702D01*
X135076903Y-70207702D01*
X135148486Y-70451671D01*
X135403996Y-70572571D01*
X135678184Y-70641300D01*
X135960512Y-70655217D01*
X136240130Y-70613787D01*
X136506292Y-70518603D01*
X136631514Y-70451671D01*
X136703097Y-70207702D01*
X135890000Y-69394605D01*
X135076903Y-70207702D01*
X126126946Y-70207702D01*
X126141001Y-70065000D01*
X126141001Y-69285512D01*
X134449783Y-69285512D01*
X134491213Y-69565130D01*
X134586397Y-69831292D01*
X134653329Y-69956514D01*
X134897298Y-70028097D01*
X135710395Y-69215000D01*
X136069605Y-69215000D01*
X136882702Y-70028097D01*
X137126671Y-69956514D01*
X137247571Y-69701004D01*
X137316300Y-69426816D01*
X137330217Y-69144488D01*
X137288787Y-68864870D01*
X137193603Y-68598708D01*
X137126671Y-68473486D01*
X136882702Y-68401903D01*
X136069605Y-69215000D01*
X135710395Y-69215000D01*
X134897298Y-68401903D01*
X134653329Y-68473486D01*
X134532429Y-68728996D01*
X134463700Y-69003184D01*
X134449783Y-69285512D01*
X126141001Y-69285512D01*
X126141001Y-68365000D01*
X126126947Y-68222298D01*
X135076903Y-68222298D01*
X135890000Y-69035395D01*
X136703097Y-68222298D01*
X136631514Y-67978329D01*
X136376004Y-67857429D01*
X136101816Y-67788700D01*
X135819488Y-67774783D01*
X135539870Y-67816213D01*
X135273708Y-67911397D01*
X135148486Y-67978329D01*
X135076903Y-68222298D01*
X126126947Y-68222298D01*
X126125034Y-68202880D01*
X126122000Y-68192878D01*
X126122000Y-66093422D01*
X127688423Y-64527000D01*
X129785851Y-64527000D01*
X129645355Y-64620876D01*
G37*
X129645355Y-64620876D02*
X129390876Y-64875355D01*
X129190934Y-65174591D01*
X129053211Y-65507084D01*
X128983000Y-65860056D01*
X128983000Y-66219944D01*
X129053211Y-66572916D01*
X129190934Y-66905409D01*
X129390876Y-67204645D01*
X129645355Y-67459124D01*
X129944591Y-67659066D01*
X130277084Y-67796789D01*
X130630056Y-67867000D01*
X130989944Y-67867000D01*
X131342916Y-67796789D01*
X131675409Y-67659066D01*
X131974645Y-67459124D01*
X132229124Y-67204645D01*
X132429066Y-66905409D01*
X132566789Y-66572916D01*
X132637000Y-66219944D01*
X132637000Y-66160371D01*
X132650371Y-66147000D01*
X142939629Y-66147000D01*
X142953000Y-66160371D01*
X142953000Y-66219944D01*
X143023211Y-66572916D01*
X143160934Y-66905409D01*
X143360876Y-67204645D01*
X143615355Y-67459124D01*
X143914591Y-67659066D01*
X144247084Y-67796789D01*
X144600056Y-67867000D01*
X144959944Y-67867000D01*
X145312916Y-67796789D01*
X145645409Y-67659066D01*
X145944645Y-67459124D01*
X146199124Y-67204645D01*
X146314012Y-67032702D01*
X148966903Y-67032702D01*
X149038486Y-67276671D01*
X149293996Y-67397571D01*
X149568184Y-67466300D01*
X149850512Y-67480217D01*
X150130130Y-67438787D01*
X150396292Y-67343603D01*
X150521514Y-67276671D01*
X150593097Y-67032702D01*
X149780000Y-66219605D01*
X148966903Y-67032702D01*
X146314012Y-67032702D01*
X146399066Y-66905409D01*
X146536789Y-66572916D01*
X146607000Y-66219944D01*
X146607000Y-66110512D01*
X148339783Y-66110512D01*
X148381213Y-66390130D01*
X148476397Y-66656292D01*
X148543329Y-66781514D01*
X148787298Y-66853097D01*
X149600395Y-66040000D01*
X149959605Y-66040000D01*
X150772702Y-66853097D01*
X151016671Y-66781514D01*
X151137571Y-66526004D01*
X151206300Y-66251816D01*
X151220217Y-65969488D01*
X151178787Y-65689870D01*
X151083603Y-65423708D01*
X151016671Y-65298486D01*
X150772702Y-65226903D01*
X149959605Y-66040000D01*
X149600395Y-66040000D01*
X148787298Y-65226903D01*
X148543329Y-65298486D01*
X148422429Y-65553996D01*
X148353700Y-65828184D01*
X148339783Y-66110512D01*
X146607000Y-66110512D01*
X146607000Y-65860056D01*
X146536789Y-65507084D01*
X146399066Y-65174591D01*
X146314013Y-65047298D01*
X148966903Y-65047298D01*
X149780000Y-65860395D01*
X150593097Y-65047298D01*
X150521514Y-64803329D01*
X150266004Y-64682429D01*
X149991816Y-64613700D01*
X149709488Y-64599783D01*
X149429870Y-64641213D01*
X149163708Y-64736397D01*
X149038486Y-64803329D01*
X148966903Y-65047298D01*
X146314013Y-65047298D01*
X146199124Y-64875355D01*
X145944645Y-64620876D01*
X145804149Y-64527000D01*
X151053776Y-64527000D01*
X153278000Y-66751225D01*
X153278001Y-68498358D01*
X153269960Y-68580000D01*
X153278001Y-68661642D01*
X153278001Y-68661643D01*
X153302049Y-68905809D01*
X153341256Y-69035056D01*
X153397084Y-69219097D01*
X153551412Y-69507825D01*
X153707059Y-69697481D01*
X153707063Y-69697485D01*
X153759104Y-69760897D01*
X153822515Y-69812937D01*
X155612062Y-71602485D01*
X155664103Y-71665897D01*
X155727515Y-71717938D01*
X155727518Y-71717941D01*
X155917174Y-71873588D01*
X156205902Y-72027917D01*
X156248814Y-72040934D01*
X156519191Y-72122952D01*
X156763357Y-72147000D01*
X156763368Y-72147000D01*
X156845000Y-72155040D01*
X156926632Y-72147000D01*
X160265851Y-72147000D01*
X160125355Y-72240876D01*
X160083231Y-72283000D01*
X158817629Y-72283000D01*
X158749999Y-72276339D01*
X158682370Y-72283000D01*
X158682360Y-72283000D01*
X158480061Y-72302925D01*
X158220495Y-72381663D01*
X157981279Y-72509527D01*
X157771603Y-72681603D01*
X157728485Y-72734143D01*
X156089629Y-74373000D01*
X156030056Y-74373000D01*
X155677084Y-74443211D01*
X155344591Y-74580934D01*
X155045355Y-74780876D01*
X154790876Y-75035355D01*
X154590934Y-75334591D01*
X154453211Y-75667084D01*
X154383000Y-76020056D01*
X154383000Y-76379944D01*
X154453211Y-76732916D01*
X154590934Y-77065409D01*
X154599347Y-77078000D01*
X154358423Y-77078000D01*
X149822942Y-72542520D01*
X149770897Y-72479103D01*
X149517825Y-72271412D01*
X149229097Y-72117083D01*
X148915809Y-72022048D01*
X148671643Y-71998000D01*
X148671632Y-71998000D01*
X148590000Y-71989960D01*
X148508368Y-71998000D01*
X143902000Y-71998000D01*
X143902000Y-70646631D01*
X143910040Y-70564999D01*
X143902000Y-70483367D01*
X143902000Y-70483357D01*
X143877952Y-70239191D01*
X143782917Y-69925903D01*
X143694719Y-69760897D01*
X143628588Y-69637174D01*
X143472941Y-69447518D01*
X143472938Y-69447515D01*
X143420897Y-69384103D01*
X143357485Y-69332062D01*
X142603855Y-68578433D01*
X142509066Y-68349591D01*
X142309124Y-68050355D01*
X142054645Y-67795876D01*
X141755409Y-67595934D01*
X141422916Y-67458211D01*
X141069944Y-67388000D01*
X140710056Y-67388000D01*
X140357084Y-67458211D01*
X140024591Y-67595934D01*
X139725355Y-67795876D01*
X139470876Y-68050355D01*
X139270934Y-68349591D01*
X139133211Y-68682084D01*
X139063000Y-69035056D01*
X139063000Y-69394944D01*
X139133211Y-69747916D01*
X139270934Y-70080409D01*
X139470876Y-70379645D01*
X139725355Y-70634124D01*
X140024591Y-70834066D01*
X140253433Y-70928855D01*
X140578001Y-71253423D01*
X140578000Y-72898242D01*
X140483211Y-73127084D01*
X140413000Y-73480056D01*
X140413000Y-73839944D01*
X140483211Y-74192916D01*
X140620934Y-74525409D01*
X140820876Y-74824645D01*
X140926231Y-74930000D01*
X140820876Y-75035355D01*
X140620934Y-75334591D01*
X140483211Y-75667084D01*
X140413000Y-76020056D01*
X140413000Y-76379944D01*
X140483211Y-76732916D01*
X140620934Y-77065409D01*
X140820876Y-77364645D01*
X140926231Y-77470000D01*
X140820876Y-77575355D01*
X140620934Y-77874591D01*
X140483211Y-78207084D01*
X140413000Y-78560056D01*
X140413000Y-78919944D01*
X140483211Y-79272916D01*
X140620934Y-79605409D01*
X140820876Y-79904645D01*
X140926231Y-80010000D01*
X140820876Y-80115355D01*
X140620934Y-80414591D01*
X140483211Y-80747084D01*
X140482588Y-80750217D01*
X140137010Y-80404639D01*
X140137010Y-76874895D01*
X140143672Y-76807255D01*
X140117085Y-76537315D01*
X140059998Y-76349124D01*
X140038347Y-76277750D01*
X139910483Y-76038534D01*
X139738407Y-75828858D01*
X139685865Y-75785738D01*
X136634276Y-72734150D01*
X136591152Y-72681603D01*
X136388694Y-72515451D01*
X136373415Y-72465083D01*
X136278051Y-72286669D01*
X136149712Y-72130288D01*
X135993331Y-72001949D01*
X135814917Y-71906585D01*
X135621327Y-71847860D01*
X135420000Y-71828031D01*
X133820000Y-71828031D01*
X133618673Y-71847860D01*
X133425083Y-71906585D01*
X133246669Y-72001949D01*
X133090288Y-72130288D01*
X132961949Y-72286669D01*
X132866585Y-72465083D01*
X132807860Y-72658673D01*
X132788031Y-72860000D01*
X132788031Y-74460000D01*
X132807860Y-74661327D01*
X132856903Y-74823000D01*
X132016769Y-74823000D01*
X131974645Y-74780876D01*
X131675409Y-74580934D01*
X131342916Y-74443211D01*
X130989944Y-74373000D01*
X130630056Y-74373000D01*
X130277084Y-74443211D01*
X129944591Y-74580934D01*
X129645355Y-74780876D01*
X129390876Y-75035355D01*
X129190934Y-75334591D01*
X129053211Y-75667084D01*
X128983000Y-76020056D01*
X128983000Y-76379944D01*
X129053211Y-76732916D01*
X129190934Y-77065409D01*
X129389777Y-77363000D01*
X128841769Y-77363000D01*
X128799645Y-77320876D01*
X128500409Y-77120934D01*
X128167916Y-76983211D01*
X127814944Y-76913000D01*
X127755372Y-76913000D01*
X125940366Y-75097995D01*
X125946138Y-75089357D01*
X126072554Y-74784163D01*
X126137000Y-74460170D01*
X126137000Y-74129830D01*
X126072554Y-73805837D01*
X125946138Y-73500643D01*
X125762611Y-73225975D01*
X125561636Y-73025000D01*
X125762611Y-72824025D01*
X125946138Y-72549357D01*
X126072554Y-72244163D01*
X126137000Y-71920170D01*
X126137000Y-71589830D01*
X126072554Y-71265837D01*
X125946138Y-70960643D01*
X125796020Y-70735976D01*
X125897606Y-70652606D01*
X126000952Y-70526679D01*
X126077745Y-70383010D01*
X126125034Y-70227120D01*
X126126946Y-70207702D01*
X135076903Y-70207702D01*
X135148486Y-70451671D01*
X135403996Y-70572571D01*
X135678184Y-70641300D01*
X135960512Y-70655217D01*
X136240130Y-70613787D01*
X136506292Y-70518603D01*
X136631514Y-70451671D01*
X136703097Y-70207702D01*
X135890000Y-69394605D01*
X135076903Y-70207702D01*
X126126946Y-70207702D01*
X126141001Y-70065000D01*
X126141001Y-69285512D01*
X134449783Y-69285512D01*
X134491213Y-69565130D01*
X134586397Y-69831292D01*
X134653329Y-69956514D01*
X134897298Y-70028097D01*
X135710395Y-69215000D01*
X136069605Y-69215000D01*
X136882702Y-70028097D01*
X137126671Y-69956514D01*
X137247571Y-69701004D01*
X137316300Y-69426816D01*
X137330217Y-69144488D01*
X137288787Y-68864870D01*
X137193603Y-68598708D01*
X137126671Y-68473486D01*
X136882702Y-68401903D01*
X136069605Y-69215000D01*
X135710395Y-69215000D01*
X134897298Y-68401903D01*
X134653329Y-68473486D01*
X134532429Y-68728996D01*
X134463700Y-69003184D01*
X134449783Y-69285512D01*
X126141001Y-69285512D01*
X126141001Y-68365000D01*
X126126947Y-68222298D01*
X135076903Y-68222298D01*
X135890000Y-69035395D01*
X136703097Y-68222298D01*
X136631514Y-67978329D01*
X136376004Y-67857429D01*
X136101816Y-67788700D01*
X135819488Y-67774783D01*
X135539870Y-67816213D01*
X135273708Y-67911397D01*
X135148486Y-67978329D01*
X135076903Y-68222298D01*
X126126947Y-68222298D01*
X126125034Y-68202880D01*
X126122000Y-68192878D01*
X126122000Y-66093422D01*
X127688423Y-64527000D01*
X129785851Y-64527000D01*
X129645355Y-64620876D01*
%TD*%
M02*
