%TF.GenerationSoftware,KiCad,Pcbnew,(5.1.6)-1*%
%TF.CreationDate,2020-11-02T08:51:04-08:00*%
%TF.ProjectId,Input_Signal_Conditioner,496e7075-745f-4536-9967-6e616c5f436f,A*%
%TF.SameCoordinates,Original*%
%TF.FileFunction,Legend,Top*%
%TF.FilePolarity,Positive*%
%FSLAX46Y46*%
G04 Gerber Fmt 4.6, Leading zero omitted, Abs format (unit mm)*
G04 Created by KiCad (PCBNEW (5.1.6)-1) date 2020-11-02 08:51:04*
%MOMM*%
%LPD*%
G01*
G04 APERTURE LIST*
%ADD10C,0.150000*%
%ADD11C,0.300000*%
%ADD12C,0.120000*%
G04 APERTURE END LIST*
D10*
X169441904Y-73191666D02*
X169918095Y-73191666D01*
X169346666Y-73477380D02*
X169680000Y-72477380D01*
X170013333Y-73477380D01*
X170346666Y-73477380D02*
X170346666Y-72477380D01*
X170584761Y-72477380D01*
X170727619Y-72525000D01*
X170822857Y-72620238D01*
X170870476Y-72715476D01*
X170918095Y-72905952D01*
X170918095Y-73048809D01*
X170870476Y-73239285D01*
X170822857Y-73334523D01*
X170727619Y-73429761D01*
X170584761Y-73477380D01*
X170346666Y-73477380D01*
X170053095Y-67445000D02*
X169957857Y-67397380D01*
X169815000Y-67397380D01*
X169672142Y-67445000D01*
X169576904Y-67540238D01*
X169529285Y-67635476D01*
X169481666Y-67825952D01*
X169481666Y-67968809D01*
X169529285Y-68159285D01*
X169576904Y-68254523D01*
X169672142Y-68349761D01*
X169815000Y-68397380D01*
X169910238Y-68397380D01*
X170053095Y-68349761D01*
X170100714Y-68302142D01*
X170100714Y-67968809D01*
X169910238Y-67968809D01*
X170529285Y-68397380D02*
X170529285Y-67397380D01*
X171100714Y-68397380D01*
X171100714Y-67397380D01*
X171576904Y-68397380D02*
X171576904Y-67397380D01*
X171815000Y-67397380D01*
X171957857Y-67445000D01*
X172053095Y-67540238D01*
X172100714Y-67635476D01*
X172148333Y-67825952D01*
X172148333Y-67968809D01*
X172100714Y-68159285D01*
X172053095Y-68254523D01*
X171957857Y-68349761D01*
X171815000Y-68397380D01*
X171576904Y-68397380D01*
X169338809Y-77557380D02*
X169957857Y-77557380D01*
X169624523Y-77938333D01*
X169767380Y-77938333D01*
X169862619Y-77985952D01*
X169910238Y-78033571D01*
X169957857Y-78128809D01*
X169957857Y-78366904D01*
X169910238Y-78462142D01*
X169862619Y-78509761D01*
X169767380Y-78557380D01*
X169481666Y-78557380D01*
X169386428Y-78509761D01*
X169338809Y-78462142D01*
X170386428Y-78462142D02*
X170434047Y-78509761D01*
X170386428Y-78557380D01*
X170338809Y-78509761D01*
X170386428Y-78462142D01*
X170386428Y-78557380D01*
X170767380Y-77557380D02*
X171386428Y-77557380D01*
X171053095Y-77938333D01*
X171195952Y-77938333D01*
X171291190Y-77985952D01*
X171338809Y-78033571D01*
X171386428Y-78128809D01*
X171386428Y-78366904D01*
X171338809Y-78462142D01*
X171291190Y-78509761D01*
X171195952Y-78557380D01*
X170910238Y-78557380D01*
X170815000Y-78509761D01*
X170767380Y-78462142D01*
X171672142Y-77557380D02*
X172005476Y-78557380D01*
X172338809Y-77557380D01*
X169751428Y-70413571D02*
X169894285Y-70461190D01*
X169941904Y-70508809D01*
X169989523Y-70604047D01*
X169989523Y-70746904D01*
X169941904Y-70842142D01*
X169894285Y-70889761D01*
X169799047Y-70937380D01*
X169418095Y-70937380D01*
X169418095Y-69937380D01*
X169751428Y-69937380D01*
X169846666Y-69985000D01*
X169894285Y-70032619D01*
X169941904Y-70127857D01*
X169941904Y-70223095D01*
X169894285Y-70318333D01*
X169846666Y-70365952D01*
X169751428Y-70413571D01*
X169418095Y-70413571D01*
X170418095Y-70937380D02*
X170418095Y-69937380D01*
X170799047Y-69937380D01*
X170894285Y-69985000D01*
X170941904Y-70032619D01*
X170989523Y-70127857D01*
X170989523Y-70270714D01*
X170941904Y-70365952D01*
X170894285Y-70413571D01*
X170799047Y-70461190D01*
X170418095Y-70461190D01*
X170053095Y-75065000D02*
X169957857Y-75017380D01*
X169815000Y-75017380D01*
X169672142Y-75065000D01*
X169576904Y-75160238D01*
X169529285Y-75255476D01*
X169481666Y-75445952D01*
X169481666Y-75588809D01*
X169529285Y-75779285D01*
X169576904Y-75874523D01*
X169672142Y-75969761D01*
X169815000Y-76017380D01*
X169910238Y-76017380D01*
X170053095Y-75969761D01*
X170100714Y-75922142D01*
X170100714Y-75588809D01*
X169910238Y-75588809D01*
X170529285Y-76017380D02*
X170529285Y-75017380D01*
X171100714Y-76017380D01*
X171100714Y-75017380D01*
X171576904Y-76017380D02*
X171576904Y-75017380D01*
X171815000Y-75017380D01*
X171957857Y-75065000D01*
X172053095Y-75160238D01*
X172100714Y-75255476D01*
X172148333Y-75445952D01*
X172148333Y-75588809D01*
X172100714Y-75779285D01*
X172053095Y-75874523D01*
X171957857Y-75969761D01*
X171815000Y-76017380D01*
X171576904Y-76017380D01*
D11*
X108541428Y-79570000D02*
X110041428Y-79570000D01*
X108970000Y-80070000D01*
X110041428Y-80570000D01*
X108541428Y-80570000D01*
X108541428Y-81284285D02*
X110041428Y-81284285D01*
X108684285Y-82855714D02*
X108612857Y-82784285D01*
X108541428Y-82570000D01*
X108541428Y-82427142D01*
X108612857Y-82212857D01*
X108755714Y-82070000D01*
X108898571Y-81998571D01*
X109184285Y-81927142D01*
X109398571Y-81927142D01*
X109684285Y-81998571D01*
X109827142Y-82070000D01*
X109970000Y-82212857D01*
X110041428Y-82427142D01*
X110041428Y-82570000D01*
X109970000Y-82784285D01*
X109898571Y-82855714D01*
X108398571Y-83141428D02*
X108398571Y-84284285D01*
X108541428Y-84641428D02*
X110041428Y-84641428D01*
X108541428Y-85355714D02*
X110041428Y-85355714D01*
X108541428Y-86212857D01*
X110041428Y-86212857D01*
X109112857Y-86927142D02*
X109112857Y-88070000D01*
X108541428Y-68775000D02*
X110041428Y-68775000D01*
X108970000Y-69275000D01*
X110041428Y-69775000D01*
X108541428Y-69775000D01*
X108541428Y-70489285D02*
X110041428Y-70489285D01*
X108684285Y-72060714D02*
X108612857Y-71989285D01*
X108541428Y-71775000D01*
X108541428Y-71632142D01*
X108612857Y-71417857D01*
X108755714Y-71275000D01*
X108898571Y-71203571D01*
X109184285Y-71132142D01*
X109398571Y-71132142D01*
X109684285Y-71203571D01*
X109827142Y-71275000D01*
X109970000Y-71417857D01*
X110041428Y-71632142D01*
X110041428Y-71775000D01*
X109970000Y-71989285D01*
X109898571Y-72060714D01*
X108398571Y-72346428D02*
X108398571Y-73489285D01*
X108541428Y-73846428D02*
X110041428Y-73846428D01*
X108541428Y-74560714D02*
X110041428Y-74560714D01*
X108541428Y-75417857D01*
X110041428Y-75417857D01*
X109112857Y-76132142D02*
X109112857Y-77275000D01*
X108541428Y-76703571D02*
X109684285Y-76703571D01*
D12*
%TO.C,J4*%
X124460000Y-67885000D02*
X125790000Y-67885000D01*
X125790000Y-67885000D02*
X125790000Y-69215000D01*
X125790000Y-70485000D02*
X125790000Y-75625000D01*
X123130000Y-75625000D02*
X125790000Y-75625000D01*
X123130000Y-70485000D02*
X123130000Y-75625000D01*
X123130000Y-70485000D02*
X125790000Y-70485000D01*
%TO.C,J1*%
X111700000Y-74990000D02*
X114360000Y-74990000D01*
X111700000Y-74870000D02*
X111700000Y-74990000D01*
X114360000Y-74870000D02*
X114360000Y-74990000D01*
X114360000Y-72330000D02*
X114360000Y-73660000D01*
X113030000Y-72330000D02*
X114360000Y-72330000D01*
%TO.C,J2*%
X113030000Y-80585000D02*
X114360000Y-80585000D01*
X114360000Y-80585000D02*
X114360000Y-81915000D01*
X114360000Y-83125000D02*
X114360000Y-83245000D01*
X111700000Y-83125000D02*
X111700000Y-83245000D01*
X111700000Y-83245000D02*
X114360000Y-83245000D01*
%TO.C,J3*%
X167640000Y-66615000D02*
X168970000Y-66615000D01*
X168970000Y-66615000D02*
X168970000Y-67945000D01*
X168970000Y-69215000D02*
X168970000Y-79435000D01*
X166310000Y-79435000D02*
X168970000Y-79435000D01*
X166310000Y-69215000D02*
X166310000Y-79435000D01*
X166310000Y-69215000D02*
X168970000Y-69215000D01*
%TO.C,C1*%
X116424000Y-68560000D02*
X121066000Y-68560000D01*
X116424000Y-76300000D02*
X121066000Y-76300000D01*
X121066000Y-76300000D02*
X121066000Y-68560000D01*
X116424000Y-76300000D02*
X116424000Y-68560000D01*
%TO.C,C2*%
X126781000Y-81815000D02*
X126781000Y-89555000D01*
X122139000Y-81815000D02*
X122139000Y-89555000D01*
X126781000Y-81815000D02*
X122139000Y-81815000D01*
X126781000Y-89555000D02*
X122139000Y-89555000D01*
%TO.C,C3*%
X151150000Y-63719000D02*
X151150000Y-68361000D01*
X143410000Y-63719000D02*
X143410000Y-68361000D01*
X143410000Y-68361000D02*
X151150000Y-68361000D01*
X143410000Y-63719000D02*
X151150000Y-63719000D01*
%TO.C,C4*%
X152816000Y-84355000D02*
X152816000Y-92095000D01*
X148174000Y-84355000D02*
X148174000Y-92095000D01*
X152816000Y-84355000D02*
X148174000Y-84355000D01*
X152816000Y-92095000D02*
X148174000Y-92095000D01*
%TO.C,C5*%
X158531000Y-92095000D02*
X153889000Y-92095000D01*
X158531000Y-84355000D02*
X153889000Y-84355000D01*
X153889000Y-84355000D02*
X153889000Y-92095000D01*
X158531000Y-84355000D02*
X158531000Y-92095000D01*
%TO.C,C6*%
X169961000Y-80545000D02*
X169961000Y-88285000D01*
X165319000Y-80545000D02*
X165319000Y-88285000D01*
X169961000Y-80545000D02*
X165319000Y-80545000D01*
X169961000Y-88285000D02*
X165319000Y-88285000D01*
%TO.C,R1*%
X127535000Y-91535000D02*
X130275000Y-91535000D01*
X130275000Y-91535000D02*
X130275000Y-84995000D01*
X130275000Y-84995000D02*
X127535000Y-84995000D01*
X127535000Y-84995000D02*
X127535000Y-91535000D01*
X128905000Y-92305000D02*
X128905000Y-91535000D01*
X128905000Y-84225000D02*
X128905000Y-84995000D01*
%TO.C,R2*%
X120015000Y-92305000D02*
X120015000Y-91535000D01*
X120015000Y-84225000D02*
X120015000Y-84995000D01*
X121385000Y-91535000D02*
X121385000Y-84995000D01*
X118645000Y-91535000D02*
X121385000Y-91535000D01*
X118645000Y-84995000D02*
X118645000Y-91535000D01*
X121385000Y-84995000D02*
X118645000Y-84995000D01*
%TO.C,R3*%
X125825000Y-80110000D02*
X125825000Y-77370000D01*
X125825000Y-77370000D02*
X119285000Y-77370000D01*
X119285000Y-77370000D02*
X119285000Y-80110000D01*
X119285000Y-80110000D02*
X125825000Y-80110000D01*
X126595000Y-78740000D02*
X125825000Y-78740000D01*
X118515000Y-78740000D02*
X119285000Y-78740000D01*
%TO.C,R4*%
X130810000Y-67080000D02*
X130810000Y-67850000D01*
X130810000Y-75160000D02*
X130810000Y-74390000D01*
X129440000Y-67850000D02*
X129440000Y-74390000D01*
X132180000Y-67850000D02*
X129440000Y-67850000D01*
X132180000Y-74390000D02*
X132180000Y-67850000D01*
X129440000Y-74390000D02*
X132180000Y-74390000D01*
%TO.C,R5*%
X142970000Y-88365000D02*
X142970000Y-85625000D01*
X142970000Y-85625000D02*
X136430000Y-85625000D01*
X136430000Y-85625000D02*
X136430000Y-88365000D01*
X136430000Y-88365000D02*
X142970000Y-88365000D01*
X143740000Y-86995000D02*
X142970000Y-86995000D01*
X135660000Y-86995000D02*
X136430000Y-86995000D01*
%TO.C,R6*%
X142970000Y-92175000D02*
X142970000Y-89435000D01*
X142970000Y-89435000D02*
X136430000Y-89435000D01*
X136430000Y-89435000D02*
X136430000Y-92175000D01*
X136430000Y-92175000D02*
X142970000Y-92175000D01*
X143740000Y-90805000D02*
X142970000Y-90805000D01*
X135660000Y-90805000D02*
X136430000Y-90805000D01*
%TO.C,R7*%
X147090000Y-81915000D02*
X147860000Y-81915000D01*
X155170000Y-81915000D02*
X154400000Y-81915000D01*
X147860000Y-83285000D02*
X154400000Y-83285000D01*
X147860000Y-80545000D02*
X147860000Y-83285000D01*
X154400000Y-80545000D02*
X147860000Y-80545000D01*
X154400000Y-83285000D02*
X154400000Y-80545000D01*
%TO.C,R8*%
X147090000Y-76200000D02*
X147860000Y-76200000D01*
X155170000Y-76200000D02*
X154400000Y-76200000D01*
X147860000Y-77570000D02*
X154400000Y-77570000D01*
X147860000Y-74830000D02*
X147860000Y-77570000D01*
X154400000Y-74830000D02*
X147860000Y-74830000D01*
X154400000Y-77570000D02*
X154400000Y-74830000D01*
%TO.C,R9*%
X161290000Y-74700000D02*
X161290000Y-75470000D01*
X161290000Y-82780000D02*
X161290000Y-82010000D01*
X159920000Y-75470000D02*
X159920000Y-82010000D01*
X162660000Y-75470000D02*
X159920000Y-75470000D01*
X162660000Y-82010000D02*
X162660000Y-75470000D01*
X159920000Y-82010000D02*
X162660000Y-82010000D01*
%TO.C,U1*%
X141080000Y-72330000D02*
X139430000Y-72330000D01*
X141080000Y-82610000D02*
X141080000Y-72330000D01*
X135780000Y-82610000D02*
X141080000Y-82610000D01*
X135780000Y-72330000D02*
X135780000Y-82610000D01*
X137430000Y-72330000D02*
X135780000Y-72330000D01*
X139430000Y-72330000D02*
G75*
G02*
X137430000Y-72330000I-1000000J0D01*
G01*
%TO.C,C7*%
X142260000Y-66894000D02*
X142260000Y-71536000D01*
X134520000Y-66894000D02*
X134520000Y-71536000D01*
X134520000Y-71536000D02*
X142260000Y-71536000D01*
X134520000Y-66894000D02*
X142260000Y-66894000D01*
%TO.C,C1*%
D10*
X118578333Y-67667142D02*
X118530714Y-67714761D01*
X118387857Y-67762380D01*
X118292619Y-67762380D01*
X118149761Y-67714761D01*
X118054523Y-67619523D01*
X118006904Y-67524285D01*
X117959285Y-67333809D01*
X117959285Y-67190952D01*
X118006904Y-67000476D01*
X118054523Y-66905238D01*
X118149761Y-66810000D01*
X118292619Y-66762380D01*
X118387857Y-66762380D01*
X118530714Y-66810000D01*
X118578333Y-66857619D01*
X119530714Y-67762380D02*
X118959285Y-67762380D01*
X119245000Y-67762380D02*
X119245000Y-66762380D01*
X119149761Y-66905238D01*
X119054523Y-67000476D01*
X118959285Y-67048095D01*
%TO.C,C2*%
X125563333Y-91162142D02*
X125515714Y-91209761D01*
X125372857Y-91257380D01*
X125277619Y-91257380D01*
X125134761Y-91209761D01*
X125039523Y-91114523D01*
X124991904Y-91019285D01*
X124944285Y-90828809D01*
X124944285Y-90685952D01*
X124991904Y-90495476D01*
X125039523Y-90400238D01*
X125134761Y-90305000D01*
X125277619Y-90257380D01*
X125372857Y-90257380D01*
X125515714Y-90305000D01*
X125563333Y-90352619D01*
X125944285Y-90352619D02*
X125991904Y-90305000D01*
X126087142Y-90257380D01*
X126325238Y-90257380D01*
X126420476Y-90305000D01*
X126468095Y-90352619D01*
X126515714Y-90447857D01*
X126515714Y-90543095D01*
X126468095Y-90685952D01*
X125896666Y-91257380D01*
X126515714Y-91257380D01*
%TO.C,C3*%
X147788333Y-69572142D02*
X147740714Y-69619761D01*
X147597857Y-69667380D01*
X147502619Y-69667380D01*
X147359761Y-69619761D01*
X147264523Y-69524523D01*
X147216904Y-69429285D01*
X147169285Y-69238809D01*
X147169285Y-69095952D01*
X147216904Y-68905476D01*
X147264523Y-68810238D01*
X147359761Y-68715000D01*
X147502619Y-68667380D01*
X147597857Y-68667380D01*
X147740714Y-68715000D01*
X147788333Y-68762619D01*
X148121666Y-68667380D02*
X148740714Y-68667380D01*
X148407380Y-69048333D01*
X148550238Y-69048333D01*
X148645476Y-69095952D01*
X148693095Y-69143571D01*
X148740714Y-69238809D01*
X148740714Y-69476904D01*
X148693095Y-69572142D01*
X148645476Y-69619761D01*
X148550238Y-69667380D01*
X148264523Y-69667380D01*
X148169285Y-69619761D01*
X148121666Y-69572142D01*
%TO.C,C4*%
X147153333Y-93067142D02*
X147105714Y-93114761D01*
X146962857Y-93162380D01*
X146867619Y-93162380D01*
X146724761Y-93114761D01*
X146629523Y-93019523D01*
X146581904Y-92924285D01*
X146534285Y-92733809D01*
X146534285Y-92590952D01*
X146581904Y-92400476D01*
X146629523Y-92305238D01*
X146724761Y-92210000D01*
X146867619Y-92162380D01*
X146962857Y-92162380D01*
X147105714Y-92210000D01*
X147153333Y-92257619D01*
X148010476Y-92495714D02*
X148010476Y-93162380D01*
X147772380Y-92114761D02*
X147534285Y-92829047D01*
X148153333Y-92829047D01*
%TO.C,C5*%
X159853333Y-90527142D02*
X159805714Y-90574761D01*
X159662857Y-90622380D01*
X159567619Y-90622380D01*
X159424761Y-90574761D01*
X159329523Y-90479523D01*
X159281904Y-90384285D01*
X159234285Y-90193809D01*
X159234285Y-90050952D01*
X159281904Y-89860476D01*
X159329523Y-89765238D01*
X159424761Y-89670000D01*
X159567619Y-89622380D01*
X159662857Y-89622380D01*
X159805714Y-89670000D01*
X159853333Y-89717619D01*
X160758095Y-89622380D02*
X160281904Y-89622380D01*
X160234285Y-90098571D01*
X160281904Y-90050952D01*
X160377142Y-90003333D01*
X160615238Y-90003333D01*
X160710476Y-90050952D01*
X160758095Y-90098571D01*
X160805714Y-90193809D01*
X160805714Y-90431904D01*
X160758095Y-90527142D01*
X160710476Y-90574761D01*
X160615238Y-90622380D01*
X160377142Y-90622380D01*
X160281904Y-90574761D01*
X160234285Y-90527142D01*
%TO.C,C6*%
X163663333Y-85447142D02*
X163615714Y-85494761D01*
X163472857Y-85542380D01*
X163377619Y-85542380D01*
X163234761Y-85494761D01*
X163139523Y-85399523D01*
X163091904Y-85304285D01*
X163044285Y-85113809D01*
X163044285Y-84970952D01*
X163091904Y-84780476D01*
X163139523Y-84685238D01*
X163234761Y-84590000D01*
X163377619Y-84542380D01*
X163472857Y-84542380D01*
X163615714Y-84590000D01*
X163663333Y-84637619D01*
X164520476Y-84542380D02*
X164330000Y-84542380D01*
X164234761Y-84590000D01*
X164187142Y-84637619D01*
X164091904Y-84780476D01*
X164044285Y-84970952D01*
X164044285Y-85351904D01*
X164091904Y-85447142D01*
X164139523Y-85494761D01*
X164234761Y-85542380D01*
X164425238Y-85542380D01*
X164520476Y-85494761D01*
X164568095Y-85447142D01*
X164615714Y-85351904D01*
X164615714Y-85113809D01*
X164568095Y-85018571D01*
X164520476Y-84970952D01*
X164425238Y-84923333D01*
X164234761Y-84923333D01*
X164139523Y-84970952D01*
X164091904Y-85018571D01*
X164044285Y-85113809D01*
%TO.C,R1*%
X131278333Y-90622380D02*
X130945000Y-90146190D01*
X130706904Y-90622380D02*
X130706904Y-89622380D01*
X131087857Y-89622380D01*
X131183095Y-89670000D01*
X131230714Y-89717619D01*
X131278333Y-89812857D01*
X131278333Y-89955714D01*
X131230714Y-90050952D01*
X131183095Y-90098571D01*
X131087857Y-90146190D01*
X130706904Y-90146190D01*
X132230714Y-90622380D02*
X131659285Y-90622380D01*
X131945000Y-90622380D02*
X131945000Y-89622380D01*
X131849761Y-89765238D01*
X131754523Y-89860476D01*
X131659285Y-89908095D01*
%TO.C,R2*%
X117308333Y-88717380D02*
X116975000Y-88241190D01*
X116736904Y-88717380D02*
X116736904Y-87717380D01*
X117117857Y-87717380D01*
X117213095Y-87765000D01*
X117260714Y-87812619D01*
X117308333Y-87907857D01*
X117308333Y-88050714D01*
X117260714Y-88145952D01*
X117213095Y-88193571D01*
X117117857Y-88241190D01*
X116736904Y-88241190D01*
X117689285Y-87812619D02*
X117736904Y-87765000D01*
X117832142Y-87717380D01*
X118070238Y-87717380D01*
X118165476Y-87765000D01*
X118213095Y-87812619D01*
X118260714Y-87907857D01*
X118260714Y-88003095D01*
X118213095Y-88145952D01*
X117641666Y-88717380D01*
X118260714Y-88717380D01*
%TO.C,R3*%
X120483333Y-81562380D02*
X120150000Y-81086190D01*
X119911904Y-81562380D02*
X119911904Y-80562380D01*
X120292857Y-80562380D01*
X120388095Y-80610000D01*
X120435714Y-80657619D01*
X120483333Y-80752857D01*
X120483333Y-80895714D01*
X120435714Y-80990952D01*
X120388095Y-81038571D01*
X120292857Y-81086190D01*
X119911904Y-81086190D01*
X120816666Y-80562380D02*
X121435714Y-80562380D01*
X121102380Y-80943333D01*
X121245238Y-80943333D01*
X121340476Y-80990952D01*
X121388095Y-81038571D01*
X121435714Y-81133809D01*
X121435714Y-81371904D01*
X121388095Y-81467142D01*
X121340476Y-81514761D01*
X121245238Y-81562380D01*
X120959523Y-81562380D01*
X120864285Y-81514761D01*
X120816666Y-81467142D01*
%TO.C,R4*%
X133183333Y-70302380D02*
X132850000Y-69826190D01*
X132611904Y-70302380D02*
X132611904Y-69302380D01*
X132992857Y-69302380D01*
X133088095Y-69350000D01*
X133135714Y-69397619D01*
X133183333Y-69492857D01*
X133183333Y-69635714D01*
X133135714Y-69730952D01*
X133088095Y-69778571D01*
X132992857Y-69826190D01*
X132611904Y-69826190D01*
X134040476Y-69635714D02*
X134040476Y-70302380D01*
X133802380Y-69254761D02*
X133564285Y-69969047D01*
X134183333Y-69969047D01*
%TO.C,R5*%
X136358333Y-84907380D02*
X136025000Y-84431190D01*
X135786904Y-84907380D02*
X135786904Y-83907380D01*
X136167857Y-83907380D01*
X136263095Y-83955000D01*
X136310714Y-84002619D01*
X136358333Y-84097857D01*
X136358333Y-84240714D01*
X136310714Y-84335952D01*
X136263095Y-84383571D01*
X136167857Y-84431190D01*
X135786904Y-84431190D01*
X137263095Y-83907380D02*
X136786904Y-83907380D01*
X136739285Y-84383571D01*
X136786904Y-84335952D01*
X136882142Y-84288333D01*
X137120238Y-84288333D01*
X137215476Y-84335952D01*
X137263095Y-84383571D01*
X137310714Y-84478809D01*
X137310714Y-84716904D01*
X137263095Y-84812142D01*
X137215476Y-84859761D01*
X137120238Y-84907380D01*
X136882142Y-84907380D01*
X136786904Y-84859761D01*
X136739285Y-84812142D01*
%TO.C,R6*%
X139533333Y-93627380D02*
X139200000Y-93151190D01*
X138961904Y-93627380D02*
X138961904Y-92627380D01*
X139342857Y-92627380D01*
X139438095Y-92675000D01*
X139485714Y-92722619D01*
X139533333Y-92817857D01*
X139533333Y-92960714D01*
X139485714Y-93055952D01*
X139438095Y-93103571D01*
X139342857Y-93151190D01*
X138961904Y-93151190D01*
X140390476Y-92627380D02*
X140200000Y-92627380D01*
X140104761Y-92675000D01*
X140057142Y-92722619D01*
X139961904Y-92865476D01*
X139914285Y-93055952D01*
X139914285Y-93436904D01*
X139961904Y-93532142D01*
X140009523Y-93579761D01*
X140104761Y-93627380D01*
X140295238Y-93627380D01*
X140390476Y-93579761D01*
X140438095Y-93532142D01*
X140485714Y-93436904D01*
X140485714Y-93198809D01*
X140438095Y-93103571D01*
X140390476Y-93055952D01*
X140295238Y-93008333D01*
X140104761Y-93008333D01*
X140009523Y-93055952D01*
X139961904Y-93103571D01*
X139914285Y-93198809D01*
%TO.C,R7*%
X150963333Y-79827380D02*
X150630000Y-79351190D01*
X150391904Y-79827380D02*
X150391904Y-78827380D01*
X150772857Y-78827380D01*
X150868095Y-78875000D01*
X150915714Y-78922619D01*
X150963333Y-79017857D01*
X150963333Y-79160714D01*
X150915714Y-79255952D01*
X150868095Y-79303571D01*
X150772857Y-79351190D01*
X150391904Y-79351190D01*
X151296666Y-78827380D02*
X151963333Y-78827380D01*
X151534761Y-79827380D01*
%TO.C,R8*%
X150963333Y-74112380D02*
X150630000Y-73636190D01*
X150391904Y-74112380D02*
X150391904Y-73112380D01*
X150772857Y-73112380D01*
X150868095Y-73160000D01*
X150915714Y-73207619D01*
X150963333Y-73302857D01*
X150963333Y-73445714D01*
X150915714Y-73540952D01*
X150868095Y-73588571D01*
X150772857Y-73636190D01*
X150391904Y-73636190D01*
X151534761Y-73540952D02*
X151439523Y-73493333D01*
X151391904Y-73445714D01*
X151344285Y-73350476D01*
X151344285Y-73302857D01*
X151391904Y-73207619D01*
X151439523Y-73160000D01*
X151534761Y-73112380D01*
X151725238Y-73112380D01*
X151820476Y-73160000D01*
X151868095Y-73207619D01*
X151915714Y-73302857D01*
X151915714Y-73350476D01*
X151868095Y-73445714D01*
X151820476Y-73493333D01*
X151725238Y-73540952D01*
X151534761Y-73540952D01*
X151439523Y-73588571D01*
X151391904Y-73636190D01*
X151344285Y-73731428D01*
X151344285Y-73921904D01*
X151391904Y-74017142D01*
X151439523Y-74064761D01*
X151534761Y-74112380D01*
X151725238Y-74112380D01*
X151820476Y-74064761D01*
X151868095Y-74017142D01*
X151915714Y-73921904D01*
X151915714Y-73731428D01*
X151868095Y-73636190D01*
X151820476Y-73588571D01*
X151725238Y-73540952D01*
%TO.C,R9*%
X158583333Y-80462380D02*
X158250000Y-79986190D01*
X158011904Y-80462380D02*
X158011904Y-79462380D01*
X158392857Y-79462380D01*
X158488095Y-79510000D01*
X158535714Y-79557619D01*
X158583333Y-79652857D01*
X158583333Y-79795714D01*
X158535714Y-79890952D01*
X158488095Y-79938571D01*
X158392857Y-79986190D01*
X158011904Y-79986190D01*
X159059523Y-80462380D02*
X159250000Y-80462380D01*
X159345238Y-80414761D01*
X159392857Y-80367142D01*
X159488095Y-80224285D01*
X159535714Y-80033809D01*
X159535714Y-79652857D01*
X159488095Y-79557619D01*
X159440476Y-79510000D01*
X159345238Y-79462380D01*
X159154761Y-79462380D01*
X159059523Y-79510000D01*
X159011904Y-79557619D01*
X158964285Y-79652857D01*
X158964285Y-79890952D01*
X159011904Y-79986190D01*
X159059523Y-80033809D01*
X159154761Y-80081428D01*
X159345238Y-80081428D01*
X159440476Y-80033809D01*
X159488095Y-79986190D01*
X159535714Y-79890952D01*
%TO.C,U1*%
X137668095Y-76287380D02*
X137668095Y-77096904D01*
X137715714Y-77192142D01*
X137763333Y-77239761D01*
X137858571Y-77287380D01*
X138049047Y-77287380D01*
X138144285Y-77239761D01*
X138191904Y-77192142D01*
X138239523Y-77096904D01*
X138239523Y-76287380D01*
X139239523Y-77287380D02*
X138668095Y-77287380D01*
X138953809Y-77287380D02*
X138953809Y-76287380D01*
X138858571Y-76430238D01*
X138763333Y-76525476D01*
X138668095Y-76573095D01*
%TO.C,H1*%
X117983095Y-62682380D02*
X117983095Y-61682380D01*
X117983095Y-62158571D02*
X118554523Y-62158571D01*
X118554523Y-62682380D02*
X118554523Y-61682380D01*
X119554523Y-62682380D02*
X118983095Y-62682380D01*
X119268809Y-62682380D02*
X119268809Y-61682380D01*
X119173571Y-61825238D01*
X119078333Y-61920476D01*
X118983095Y-61968095D01*
%TO.C,H2*%
X155448095Y-62682380D02*
X155448095Y-61682380D01*
X155448095Y-62158571D02*
X156019523Y-62158571D01*
X156019523Y-62682380D02*
X156019523Y-61682380D01*
X156448095Y-61777619D02*
X156495714Y-61730000D01*
X156590952Y-61682380D01*
X156829047Y-61682380D01*
X156924285Y-61730000D01*
X156971904Y-61777619D01*
X157019523Y-61872857D01*
X157019523Y-61968095D01*
X156971904Y-62110952D01*
X156400476Y-62682380D01*
X157019523Y-62682380D01*
%TO.C,H3*%
X161798095Y-95067380D02*
X161798095Y-94067380D01*
X161798095Y-94543571D02*
X162369523Y-94543571D01*
X162369523Y-95067380D02*
X162369523Y-94067380D01*
X162750476Y-94067380D02*
X163369523Y-94067380D01*
X163036190Y-94448333D01*
X163179047Y-94448333D01*
X163274285Y-94495952D01*
X163321904Y-94543571D01*
X163369523Y-94638809D01*
X163369523Y-94876904D01*
X163321904Y-94972142D01*
X163274285Y-95019761D01*
X163179047Y-95067380D01*
X162893333Y-95067380D01*
X162798095Y-95019761D01*
X162750476Y-94972142D01*
%TO.C,H4*%
X113538095Y-88327380D02*
X113538095Y-87327380D01*
X113538095Y-87803571D02*
X114109523Y-87803571D01*
X114109523Y-88327380D02*
X114109523Y-87327380D01*
X115014285Y-87660714D02*
X115014285Y-88327380D01*
X114776190Y-87279761D02*
X114538095Y-87994047D01*
X115157142Y-87994047D01*
%TO.C,C7*%
X143978333Y-70842142D02*
X143930714Y-70889761D01*
X143787857Y-70937380D01*
X143692619Y-70937380D01*
X143549761Y-70889761D01*
X143454523Y-70794523D01*
X143406904Y-70699285D01*
X143359285Y-70508809D01*
X143359285Y-70365952D01*
X143406904Y-70175476D01*
X143454523Y-70080238D01*
X143549761Y-69985000D01*
X143692619Y-69937380D01*
X143787857Y-69937380D01*
X143930714Y-69985000D01*
X143978333Y-70032619D01*
X144311666Y-69937380D02*
X144978333Y-69937380D01*
X144549761Y-70937380D01*
%TD*%
M02*
