M48
; DRILL file {KiCad (5.1.6)-1} date 11/02/20 08:50:59
; FORMAT={-:-/ absolute / inch / decimal}
; #@! TF.CreationDate,2020-11-02T08:50:59-08:00
; #@! TF.GenerationSoftware,Kicad,Pcbnew,(5.1.6)-1
FMAT,2
INCH
T1C0.0276
T2C0.0315
T3C0.0394
T4C0.1260
%
G90
G05
T1
X5.475Y-3.325
X5.75Y-3.125
X6.075Y-2.875
X6.45Y-3.2
T2
X4.675Y-2.7531
X4.675Y-2.95
X5.15Y-2.6
X5.15Y-3.0
X5.75Y-3.0
X6.15Y-3.0
X4.9Y-3.275
X4.9Y-3.4719
X5.75Y-3.225
X6.15Y-3.225
X5.35Y-2.725
X5.5469Y-2.725
X6.15Y-3.375
X6.15Y-3.5719
X4.725Y-3.275
X4.725Y-3.675
X4.625Y-3.1
X5.025Y-3.1
X5.3Y-3.425
X5.7Y-3.425
X5.925Y-3.375
X5.925Y-3.5719
X5.075Y-3.275
X5.075Y-3.675
X5.3Y-2.9
X5.3Y-3.0
X5.3Y-3.1
X5.3Y-3.2
X5.6Y-2.9
X5.6Y-3.0
X5.6Y-3.1
X5.6Y-3.2
X5.7Y-2.6
X5.8969Y-2.6
X6.6Y-3.225
X6.6Y-3.4219
X5.3Y-3.575
X5.7Y-3.575
X6.35Y-2.9
X6.35Y-3.3
T3
X6.6Y-2.675
X6.6Y-2.775
X6.6Y-2.875
X6.6Y-2.975
X6.6Y-3.075
X4.45Y-3.225
X4.45Y-2.9
X4.9Y-2.725
X4.9Y-2.825
X4.9Y-2.925
T4
X6.575Y-3.625
X4.5Y-2.55
X6.325Y-2.55
X4.5Y-3.625
T0
M30
