%TF.GenerationSoftware,KiCad,Pcbnew,(5.1.6)-1*%
%TF.CreationDate,2020-11-03T09:44:00-08:00*%
%TF.ProjectId,Breakout_10TSSOP,42726561-6b6f-4757-945f-31305453534f,rev?*%
%TF.SameCoordinates,Original*%
%TF.FileFunction,Legend,Top*%
%TF.FilePolarity,Positive*%
%FSLAX46Y46*%
G04 Gerber Fmt 4.6, Leading zero omitted, Abs format (unit mm)*
G04 Created by KiCad (PCBNEW (5.1.6)-1) date 2020-11-03 09:44:00*
%MOMM*%
%LPD*%
G01*
G04 APERTURE LIST*
%ADD10C,0.120000*%
%ADD11C,0.152400*%
%ADD12C,0.150000*%
G04 APERTURE END LIST*
D10*
%TO.C,J1*%
X125155000Y-101540000D02*
X122495000Y-101540000D01*
X125155000Y-111760000D02*
X125155000Y-101540000D01*
X122495000Y-111760000D02*
X122495000Y-101540000D01*
X125155000Y-111760000D02*
X122495000Y-111760000D01*
X125155000Y-113030000D02*
X125155000Y-114360000D01*
X125155000Y-114360000D02*
X123825000Y-114360000D01*
%TO.C,J2*%
X137855000Y-114360000D02*
X136525000Y-114360000D01*
X137855000Y-113030000D02*
X137855000Y-114360000D01*
X137855000Y-111760000D02*
X135195000Y-111760000D01*
X135195000Y-111760000D02*
X135195000Y-101540000D01*
X137855000Y-111760000D02*
X137855000Y-101540000D01*
X137855000Y-101540000D02*
X135195000Y-101540000D01*
D11*
%TO.C,U1*%
X128549400Y-109575600D02*
X131800600Y-109575600D01*
X131800600Y-106324400D02*
X128549400Y-106324400D01*
X133489700Y-106759499D02*
X133489700Y-107140499D01*
X133489700Y-107140499D02*
X133235700Y-107140499D01*
X133235700Y-107140499D02*
X133235700Y-106759499D01*
X133235700Y-106759499D02*
X133489700Y-106759499D01*
%TO.C,J1*%
D12*
X127301666Y-113752380D02*
X127301666Y-114466666D01*
X127254047Y-114609523D01*
X127158809Y-114704761D01*
X127015952Y-114752380D01*
X126920714Y-114752380D01*
X128301666Y-114752380D02*
X127730238Y-114752380D01*
X128015952Y-114752380D02*
X128015952Y-113752380D01*
X127920714Y-113895238D01*
X127825476Y-113990476D01*
X127730238Y-114038095D01*
%TO.C,J2*%
X133016666Y-113752380D02*
X133016666Y-114466666D01*
X132969047Y-114609523D01*
X132873809Y-114704761D01*
X132730952Y-114752380D01*
X132635714Y-114752380D01*
X133445238Y-113847619D02*
X133492857Y-113800000D01*
X133588095Y-113752380D01*
X133826190Y-113752380D01*
X133921428Y-113800000D01*
X133969047Y-113847619D01*
X134016666Y-113942857D01*
X134016666Y-114038095D01*
X133969047Y-114180952D01*
X133397619Y-114752380D01*
X134016666Y-114752380D01*
%TO.C,U1*%
X129676194Y-107402380D02*
X129676194Y-108211904D01*
X129723813Y-108307142D01*
X129771432Y-108354761D01*
X129866670Y-108402380D01*
X130057146Y-108402380D01*
X130152384Y-108354761D01*
X130200003Y-108307142D01*
X130247622Y-108211904D01*
X130247622Y-107402380D01*
X131247622Y-108402380D02*
X130676194Y-108402380D01*
X130961908Y-108402380D02*
X130961908Y-107402380D01*
X130866670Y-107545238D01*
X130771432Y-107640476D01*
X130676194Y-107688095D01*
%TD*%
M02*
