%TF.GenerationSoftware,KiCad,Pcbnew,(5.1.6)-1*%
%TF.CreationDate,2020-12-22T10:56:42-08:00*%
%TF.ProjectId,Digimuser_Board,44696769-6d75-4736-9572-5f426f617264,rev?*%
%TF.SameCoordinates,Original*%
%TF.FileFunction,Paste,Top*%
%TF.FilePolarity,Positive*%
%FSLAX46Y46*%
G04 Gerber Fmt 4.6, Leading zero omitted, Abs format (unit mm)*
G04 Created by KiCad (PCBNEW (5.1.6)-1) date 2020-12-22 10:56:42*
%MOMM*%
%LPD*%
G01*
G04 APERTURE LIST*
%ADD10R,1.308100X0.304800*%
%ADD11R,1.650000X0.610000*%
%ADD12R,1.500000X2.000000*%
%ADD13R,3.800000X2.000000*%
G04 APERTURE END LIST*
%TO.C,C1*%
G36*
G01*
X136138500Y-70981250D02*
X136138500Y-71893750D01*
G75*
G02*
X135894750Y-72137500I-243750J0D01*
G01*
X135407250Y-72137500D01*
G75*
G02*
X135163500Y-71893750I0J243750D01*
G01*
X135163500Y-70981250D01*
G75*
G02*
X135407250Y-70737500I243750J0D01*
G01*
X135894750Y-70737500D01*
G75*
G02*
X136138500Y-70981250I0J-243750D01*
G01*
G37*
G36*
G01*
X138013500Y-70981250D02*
X138013500Y-71893750D01*
G75*
G02*
X137769750Y-72137500I-243750J0D01*
G01*
X137282250Y-72137500D01*
G75*
G02*
X137038500Y-71893750I0J243750D01*
G01*
X137038500Y-70981250D01*
G75*
G02*
X137282250Y-70737500I243750J0D01*
G01*
X137769750Y-70737500D01*
G75*
G02*
X138013500Y-70981250I0J-243750D01*
G01*
G37*
%TD*%
%TO.C,C2*%
G36*
G01*
X144214000Y-79704250D02*
X144214000Y-78791750D01*
G75*
G02*
X144457750Y-78548000I243750J0D01*
G01*
X144945250Y-78548000D01*
G75*
G02*
X145189000Y-78791750I0J-243750D01*
G01*
X145189000Y-79704250D01*
G75*
G02*
X144945250Y-79948000I-243750J0D01*
G01*
X144457750Y-79948000D01*
G75*
G02*
X144214000Y-79704250I0J243750D01*
G01*
G37*
G36*
G01*
X142339000Y-79704250D02*
X142339000Y-78791750D01*
G75*
G02*
X142582750Y-78548000I243750J0D01*
G01*
X143070250Y-78548000D01*
G75*
G02*
X143314000Y-78791750I0J-243750D01*
G01*
X143314000Y-79704250D01*
G75*
G02*
X143070250Y-79948000I-243750J0D01*
G01*
X142582750Y-79948000D01*
G75*
G02*
X142339000Y-79704250I0J243750D01*
G01*
G37*
%TD*%
%TO.C,C3*%
G36*
G01*
X143966250Y-69908000D02*
X143053750Y-69908000D01*
G75*
G02*
X142810000Y-69664250I0J243750D01*
G01*
X142810000Y-69176750D01*
G75*
G02*
X143053750Y-68933000I243750J0D01*
G01*
X143966250Y-68933000D01*
G75*
G02*
X144210000Y-69176750I0J-243750D01*
G01*
X144210000Y-69664250D01*
G75*
G02*
X143966250Y-69908000I-243750J0D01*
G01*
G37*
G36*
G01*
X143966250Y-71783000D02*
X143053750Y-71783000D01*
G75*
G02*
X142810000Y-71539250I0J243750D01*
G01*
X142810000Y-71051750D01*
G75*
G02*
X143053750Y-70808000I243750J0D01*
G01*
X143966250Y-70808000D01*
G75*
G02*
X144210000Y-71051750I0J-243750D01*
G01*
X144210000Y-71539250D01*
G75*
G02*
X143966250Y-71783000I-243750J0D01*
G01*
G37*
%TD*%
%TO.C,C4*%
G36*
G01*
X152712000Y-69266750D02*
X152712000Y-70179250D01*
G75*
G02*
X152468250Y-70423000I-243750J0D01*
G01*
X151980750Y-70423000D01*
G75*
G02*
X151737000Y-70179250I0J243750D01*
G01*
X151737000Y-69266750D01*
G75*
G02*
X151980750Y-69023000I243750J0D01*
G01*
X152468250Y-69023000D01*
G75*
G02*
X152712000Y-69266750I0J-243750D01*
G01*
G37*
G36*
G01*
X154587000Y-69266750D02*
X154587000Y-70179250D01*
G75*
G02*
X154343250Y-70423000I-243750J0D01*
G01*
X153855750Y-70423000D01*
G75*
G02*
X153612000Y-70179250I0J243750D01*
G01*
X153612000Y-69266750D01*
G75*
G02*
X153855750Y-69023000I243750J0D01*
G01*
X154343250Y-69023000D01*
G75*
G02*
X154587000Y-69266750I0J-243750D01*
G01*
G37*
%TD*%
%TO.C,C5*%
G36*
G01*
X149664000Y-77521750D02*
X149664000Y-78434250D01*
G75*
G02*
X149420250Y-78678000I-243750J0D01*
G01*
X148932750Y-78678000D01*
G75*
G02*
X148689000Y-78434250I0J243750D01*
G01*
X148689000Y-77521750D01*
G75*
G02*
X148932750Y-77278000I243750J0D01*
G01*
X149420250Y-77278000D01*
G75*
G02*
X149664000Y-77521750I0J-243750D01*
G01*
G37*
G36*
G01*
X151539000Y-77521750D02*
X151539000Y-78434250D01*
G75*
G02*
X151295250Y-78678000I-243750J0D01*
G01*
X150807750Y-78678000D01*
G75*
G02*
X150564000Y-78434250I0J243750D01*
G01*
X150564000Y-77521750D01*
G75*
G02*
X150807750Y-77278000I243750J0D01*
G01*
X151295250Y-77278000D01*
G75*
G02*
X151539000Y-77521750I0J-243750D01*
G01*
G37*
%TD*%
%TO.C,C6*%
G36*
G01*
X156388750Y-78047000D02*
X157301250Y-78047000D01*
G75*
G02*
X157545000Y-78290750I0J-243750D01*
G01*
X157545000Y-78778250D01*
G75*
G02*
X157301250Y-79022000I-243750J0D01*
G01*
X156388750Y-79022000D01*
G75*
G02*
X156145000Y-78778250I0J243750D01*
G01*
X156145000Y-78290750D01*
G75*
G02*
X156388750Y-78047000I243750J0D01*
G01*
G37*
G36*
G01*
X156388750Y-76172000D02*
X157301250Y-76172000D01*
G75*
G02*
X157545000Y-76415750I0J-243750D01*
G01*
X157545000Y-76903250D01*
G75*
G02*
X157301250Y-77147000I-243750J0D01*
G01*
X156388750Y-77147000D01*
G75*
G02*
X156145000Y-76903250I0J243750D01*
G01*
X156145000Y-76415750D01*
G75*
G02*
X156388750Y-76172000I243750J0D01*
G01*
G37*
%TD*%
%TO.C,C7*%
G36*
G01*
X138989750Y-96843000D02*
X139902250Y-96843000D01*
G75*
G02*
X140146000Y-97086750I0J-243750D01*
G01*
X140146000Y-97574250D01*
G75*
G02*
X139902250Y-97818000I-243750J0D01*
G01*
X138989750Y-97818000D01*
G75*
G02*
X138746000Y-97574250I0J243750D01*
G01*
X138746000Y-97086750D01*
G75*
G02*
X138989750Y-96843000I243750J0D01*
G01*
G37*
G36*
G01*
X138989750Y-94968000D02*
X139902250Y-94968000D01*
G75*
G02*
X140146000Y-95211750I0J-243750D01*
G01*
X140146000Y-95699250D01*
G75*
G02*
X139902250Y-95943000I-243750J0D01*
G01*
X138989750Y-95943000D01*
G75*
G02*
X138746000Y-95699250I0J243750D01*
G01*
X138746000Y-95211750D01*
G75*
G02*
X138989750Y-94968000I243750J0D01*
G01*
G37*
%TD*%
%TO.C,C8*%
G36*
G01*
X138735750Y-87572000D02*
X139648250Y-87572000D01*
G75*
G02*
X139892000Y-87815750I0J-243750D01*
G01*
X139892000Y-88303250D01*
G75*
G02*
X139648250Y-88547000I-243750J0D01*
G01*
X138735750Y-88547000D01*
G75*
G02*
X138492000Y-88303250I0J243750D01*
G01*
X138492000Y-87815750D01*
G75*
G02*
X138735750Y-87572000I243750J0D01*
G01*
G37*
G36*
G01*
X138735750Y-85697000D02*
X139648250Y-85697000D01*
G75*
G02*
X139892000Y-85940750I0J-243750D01*
G01*
X139892000Y-86428250D01*
G75*
G02*
X139648250Y-86672000I-243750J0D01*
G01*
X138735750Y-86672000D01*
G75*
G02*
X138492000Y-86428250I0J243750D01*
G01*
X138492000Y-85940750D01*
G75*
G02*
X138735750Y-85697000I243750J0D01*
G01*
G37*
%TD*%
%TO.C,C10*%
G36*
G01*
X142817000Y-97738250D02*
X142817000Y-96825750D01*
G75*
G02*
X143060750Y-96582000I243750J0D01*
G01*
X143548250Y-96582000D01*
G75*
G02*
X143792000Y-96825750I0J-243750D01*
G01*
X143792000Y-97738250D01*
G75*
G02*
X143548250Y-97982000I-243750J0D01*
G01*
X143060750Y-97982000D01*
G75*
G02*
X142817000Y-97738250I0J243750D01*
G01*
G37*
G36*
G01*
X140942000Y-97738250D02*
X140942000Y-96825750D01*
G75*
G02*
X141185750Y-96582000I243750J0D01*
G01*
X141673250Y-96582000D01*
G75*
G02*
X141917000Y-96825750I0J-243750D01*
G01*
X141917000Y-97738250D01*
G75*
G02*
X141673250Y-97982000I-243750J0D01*
G01*
X141185750Y-97982000D01*
G75*
G02*
X140942000Y-97738250I0J243750D01*
G01*
G37*
%TD*%
%TO.C,C11*%
G36*
G01*
X141148750Y-89096000D02*
X142061250Y-89096000D01*
G75*
G02*
X142305000Y-89339750I0J-243750D01*
G01*
X142305000Y-89827250D01*
G75*
G02*
X142061250Y-90071000I-243750J0D01*
G01*
X141148750Y-90071000D01*
G75*
G02*
X140905000Y-89827250I0J243750D01*
G01*
X140905000Y-89339750D01*
G75*
G02*
X141148750Y-89096000I243750J0D01*
G01*
G37*
G36*
G01*
X141148750Y-87221000D02*
X142061250Y-87221000D01*
G75*
G02*
X142305000Y-87464750I0J-243750D01*
G01*
X142305000Y-87952250D01*
G75*
G02*
X142061250Y-88196000I-243750J0D01*
G01*
X141148750Y-88196000D01*
G75*
G02*
X140905000Y-87952250I0J243750D01*
G01*
X140905000Y-87464750D01*
G75*
G02*
X141148750Y-87221000I243750J0D01*
G01*
G37*
%TD*%
%TO.C,C14*%
G36*
G01*
X147268250Y-80830000D02*
X146355750Y-80830000D01*
G75*
G02*
X146112000Y-80586250I0J243750D01*
G01*
X146112000Y-80098750D01*
G75*
G02*
X146355750Y-79855000I243750J0D01*
G01*
X147268250Y-79855000D01*
G75*
G02*
X147512000Y-80098750I0J-243750D01*
G01*
X147512000Y-80586250D01*
G75*
G02*
X147268250Y-80830000I-243750J0D01*
G01*
G37*
G36*
G01*
X147268250Y-82705000D02*
X146355750Y-82705000D01*
G75*
G02*
X146112000Y-82461250I0J243750D01*
G01*
X146112000Y-81973750D01*
G75*
G02*
X146355750Y-81730000I243750J0D01*
G01*
X147268250Y-81730000D01*
G75*
G02*
X147512000Y-81973750I0J-243750D01*
G01*
X147512000Y-82461250D01*
G75*
G02*
X147268250Y-82705000I-243750J0D01*
G01*
G37*
%TD*%
%TO.C,C15*%
G36*
G01*
X149046250Y-85402000D02*
X148133750Y-85402000D01*
G75*
G02*
X147890000Y-85158250I0J243750D01*
G01*
X147890000Y-84670750D01*
G75*
G02*
X148133750Y-84427000I243750J0D01*
G01*
X149046250Y-84427000D01*
G75*
G02*
X149290000Y-84670750I0J-243750D01*
G01*
X149290000Y-85158250D01*
G75*
G02*
X149046250Y-85402000I-243750J0D01*
G01*
G37*
G36*
G01*
X149046250Y-87277000D02*
X148133750Y-87277000D01*
G75*
G02*
X147890000Y-87033250I0J243750D01*
G01*
X147890000Y-86545750D01*
G75*
G02*
X148133750Y-86302000I243750J0D01*
G01*
X149046250Y-86302000D01*
G75*
G02*
X149290000Y-86545750I0J-243750D01*
G01*
X149290000Y-87033250D01*
G75*
G02*
X149046250Y-87277000I-243750J0D01*
G01*
G37*
%TD*%
%TO.C,C16*%
G36*
G01*
X145092000Y-90094750D02*
X145092000Y-91007250D01*
G75*
G02*
X144848250Y-91251000I-243750J0D01*
G01*
X144360750Y-91251000D01*
G75*
G02*
X144117000Y-91007250I0J243750D01*
G01*
X144117000Y-90094750D01*
G75*
G02*
X144360750Y-89851000I243750J0D01*
G01*
X144848250Y-89851000D01*
G75*
G02*
X145092000Y-90094750I0J-243750D01*
G01*
G37*
G36*
G01*
X146967000Y-90094750D02*
X146967000Y-91007250D01*
G75*
G02*
X146723250Y-91251000I-243750J0D01*
G01*
X146235750Y-91251000D01*
G75*
G02*
X145992000Y-91007250I0J243750D01*
G01*
X145992000Y-90094750D01*
G75*
G02*
X146235750Y-89851000I243750J0D01*
G01*
X146723250Y-89851000D01*
G75*
G02*
X146967000Y-90094750I0J-243750D01*
G01*
G37*
%TD*%
%TO.C,C17*%
G36*
G01*
X146119000Y-88340250D02*
X146119000Y-87427750D01*
G75*
G02*
X146362750Y-87184000I243750J0D01*
G01*
X146850250Y-87184000D01*
G75*
G02*
X147094000Y-87427750I0J-243750D01*
G01*
X147094000Y-88340250D01*
G75*
G02*
X146850250Y-88584000I-243750J0D01*
G01*
X146362750Y-88584000D01*
G75*
G02*
X146119000Y-88340250I0J243750D01*
G01*
G37*
G36*
G01*
X144244000Y-88340250D02*
X144244000Y-87427750D01*
G75*
G02*
X144487750Y-87184000I243750J0D01*
G01*
X144975250Y-87184000D01*
G75*
G02*
X145219000Y-87427750I0J-243750D01*
G01*
X145219000Y-88340250D01*
G75*
G02*
X144975250Y-88584000I-243750J0D01*
G01*
X144487750Y-88584000D01*
G75*
G02*
X144244000Y-88340250I0J243750D01*
G01*
G37*
%TD*%
%TO.C,C18*%
G36*
G01*
X157176150Y-81679200D02*
X158088650Y-81679200D01*
G75*
G02*
X158332400Y-81922950I0J-243750D01*
G01*
X158332400Y-82410450D01*
G75*
G02*
X158088650Y-82654200I-243750J0D01*
G01*
X157176150Y-82654200D01*
G75*
G02*
X156932400Y-82410450I0J243750D01*
G01*
X156932400Y-81922950D01*
G75*
G02*
X157176150Y-81679200I243750J0D01*
G01*
G37*
G36*
G01*
X157176150Y-79804200D02*
X158088650Y-79804200D01*
G75*
G02*
X158332400Y-80047950I0J-243750D01*
G01*
X158332400Y-80535450D01*
G75*
G02*
X158088650Y-80779200I-243750J0D01*
G01*
X157176150Y-80779200D01*
G75*
G02*
X156932400Y-80535450I0J243750D01*
G01*
X156932400Y-80047950D01*
G75*
G02*
X157176150Y-79804200I243750J0D01*
G01*
G37*
%TD*%
%TO.C,C19*%
G36*
G01*
X150056000Y-89991250D02*
X150056000Y-89078750D01*
G75*
G02*
X150299750Y-88835000I243750J0D01*
G01*
X150787250Y-88835000D01*
G75*
G02*
X151031000Y-89078750I0J-243750D01*
G01*
X151031000Y-89991250D01*
G75*
G02*
X150787250Y-90235000I-243750J0D01*
G01*
X150299750Y-90235000D01*
G75*
G02*
X150056000Y-89991250I0J243750D01*
G01*
G37*
G36*
G01*
X148181000Y-89991250D02*
X148181000Y-89078750D01*
G75*
G02*
X148424750Y-88835000I243750J0D01*
G01*
X148912250Y-88835000D01*
G75*
G02*
X149156000Y-89078750I0J-243750D01*
G01*
X149156000Y-89991250D01*
G75*
G02*
X148912250Y-90235000I-243750J0D01*
G01*
X148424750Y-90235000D01*
G75*
G02*
X148181000Y-89991250I0J243750D01*
G01*
G37*
%TD*%
%TO.C,C20*%
G36*
G01*
X149554250Y-80830000D02*
X148641750Y-80830000D01*
G75*
G02*
X148398000Y-80586250I0J243750D01*
G01*
X148398000Y-80098750D01*
G75*
G02*
X148641750Y-79855000I243750J0D01*
G01*
X149554250Y-79855000D01*
G75*
G02*
X149798000Y-80098750I0J-243750D01*
G01*
X149798000Y-80586250D01*
G75*
G02*
X149554250Y-80830000I-243750J0D01*
G01*
G37*
G36*
G01*
X149554250Y-82705000D02*
X148641750Y-82705000D01*
G75*
G02*
X148398000Y-82461250I0J243750D01*
G01*
X148398000Y-81973750D01*
G75*
G02*
X148641750Y-81730000I243750J0D01*
G01*
X149554250Y-81730000D01*
G75*
G02*
X149798000Y-81973750I0J-243750D01*
G01*
X149798000Y-82461250D01*
G75*
G02*
X149554250Y-82705000I-243750J0D01*
G01*
G37*
%TD*%
%TO.C,C21*%
G36*
G01*
X151332250Y-85402000D02*
X150419750Y-85402000D01*
G75*
G02*
X150176000Y-85158250I0J243750D01*
G01*
X150176000Y-84670750D01*
G75*
G02*
X150419750Y-84427000I243750J0D01*
G01*
X151332250Y-84427000D01*
G75*
G02*
X151576000Y-84670750I0J-243750D01*
G01*
X151576000Y-85158250D01*
G75*
G02*
X151332250Y-85402000I-243750J0D01*
G01*
G37*
G36*
G01*
X151332250Y-87277000D02*
X150419750Y-87277000D01*
G75*
G02*
X150176000Y-87033250I0J243750D01*
G01*
X150176000Y-86545750D01*
G75*
G02*
X150419750Y-86302000I243750J0D01*
G01*
X151332250Y-86302000D01*
G75*
G02*
X151576000Y-86545750I0J-243750D01*
G01*
X151576000Y-87033250D01*
G75*
G02*
X151332250Y-87277000I-243750J0D01*
G01*
G37*
%TD*%
%TO.C,R1*%
G36*
G01*
X137038500Y-74052750D02*
X137038500Y-73140250D01*
G75*
G02*
X137282250Y-72896500I243750J0D01*
G01*
X137769750Y-72896500D01*
G75*
G02*
X138013500Y-73140250I0J-243750D01*
G01*
X138013500Y-74052750D01*
G75*
G02*
X137769750Y-74296500I-243750J0D01*
G01*
X137282250Y-74296500D01*
G75*
G02*
X137038500Y-74052750I0J243750D01*
G01*
G37*
G36*
G01*
X135163500Y-74052750D02*
X135163500Y-73140250D01*
G75*
G02*
X135407250Y-72896500I243750J0D01*
G01*
X135894750Y-72896500D01*
G75*
G02*
X136138500Y-73140250I0J-243750D01*
G01*
X136138500Y-74052750D01*
G75*
G02*
X135894750Y-74296500I-243750J0D01*
G01*
X135407250Y-74296500D01*
G75*
G02*
X135163500Y-74052750I0J243750D01*
G01*
G37*
%TD*%
%TO.C,R2*%
G36*
G01*
X136138500Y-75299250D02*
X136138500Y-76211750D01*
G75*
G02*
X135894750Y-76455500I-243750J0D01*
G01*
X135407250Y-76455500D01*
G75*
G02*
X135163500Y-76211750I0J243750D01*
G01*
X135163500Y-75299250D01*
G75*
G02*
X135407250Y-75055500I243750J0D01*
G01*
X135894750Y-75055500D01*
G75*
G02*
X136138500Y-75299250I0J-243750D01*
G01*
G37*
G36*
G01*
X138013500Y-75299250D02*
X138013500Y-76211750D01*
G75*
G02*
X137769750Y-76455500I-243750J0D01*
G01*
X137282250Y-76455500D01*
G75*
G02*
X137038500Y-76211750I0J243750D01*
G01*
X137038500Y-75299250D01*
G75*
G02*
X137282250Y-75055500I243750J0D01*
G01*
X137769750Y-75055500D01*
G75*
G02*
X138013500Y-75299250I0J-243750D01*
G01*
G37*
%TD*%
%TO.C,R3*%
G36*
G01*
X126099250Y-86302000D02*
X127011750Y-86302000D01*
G75*
G02*
X127255500Y-86545750I0J-243750D01*
G01*
X127255500Y-87033250D01*
G75*
G02*
X127011750Y-87277000I-243750J0D01*
G01*
X126099250Y-87277000D01*
G75*
G02*
X125855500Y-87033250I0J243750D01*
G01*
X125855500Y-86545750D01*
G75*
G02*
X126099250Y-86302000I243750J0D01*
G01*
G37*
G36*
G01*
X126099250Y-84427000D02*
X127011750Y-84427000D01*
G75*
G02*
X127255500Y-84670750I0J-243750D01*
G01*
X127255500Y-85158250D01*
G75*
G02*
X127011750Y-85402000I-243750J0D01*
G01*
X126099250Y-85402000D01*
G75*
G02*
X125855500Y-85158250I0J243750D01*
G01*
X125855500Y-84670750D01*
G75*
G02*
X126099250Y-84427000I243750J0D01*
G01*
G37*
%TD*%
%TO.C,R4*%
G36*
G01*
X128448750Y-86302000D02*
X129361250Y-86302000D01*
G75*
G02*
X129605000Y-86545750I0J-243750D01*
G01*
X129605000Y-87033250D01*
G75*
G02*
X129361250Y-87277000I-243750J0D01*
G01*
X128448750Y-87277000D01*
G75*
G02*
X128205000Y-87033250I0J243750D01*
G01*
X128205000Y-86545750D01*
G75*
G02*
X128448750Y-86302000I243750J0D01*
G01*
G37*
G36*
G01*
X128448750Y-84427000D02*
X129361250Y-84427000D01*
G75*
G02*
X129605000Y-84670750I0J-243750D01*
G01*
X129605000Y-85158250D01*
G75*
G02*
X129361250Y-85402000I-243750J0D01*
G01*
X128448750Y-85402000D01*
G75*
G02*
X128205000Y-85158250I0J243750D01*
G01*
X128205000Y-84670750D01*
G75*
G02*
X128448750Y-84427000I243750J0D01*
G01*
G37*
%TD*%
%TO.C,R5*%
G36*
G01*
X130988750Y-86302000D02*
X131901250Y-86302000D01*
G75*
G02*
X132145000Y-86545750I0J-243750D01*
G01*
X132145000Y-87033250D01*
G75*
G02*
X131901250Y-87277000I-243750J0D01*
G01*
X130988750Y-87277000D01*
G75*
G02*
X130745000Y-87033250I0J243750D01*
G01*
X130745000Y-86545750D01*
G75*
G02*
X130988750Y-86302000I243750J0D01*
G01*
G37*
G36*
G01*
X130988750Y-84427000D02*
X131901250Y-84427000D01*
G75*
G02*
X132145000Y-84670750I0J-243750D01*
G01*
X132145000Y-85158250D01*
G75*
G02*
X131901250Y-85402000I-243750J0D01*
G01*
X130988750Y-85402000D01*
G75*
G02*
X130745000Y-85158250I0J243750D01*
G01*
X130745000Y-84670750D01*
G75*
G02*
X130988750Y-84427000I243750J0D01*
G01*
G37*
%TD*%
%TO.C,R6*%
G36*
G01*
X139751750Y-78936000D02*
X140664250Y-78936000D01*
G75*
G02*
X140908000Y-79179750I0J-243750D01*
G01*
X140908000Y-79667250D01*
G75*
G02*
X140664250Y-79911000I-243750J0D01*
G01*
X139751750Y-79911000D01*
G75*
G02*
X139508000Y-79667250I0J243750D01*
G01*
X139508000Y-79179750D01*
G75*
G02*
X139751750Y-78936000I243750J0D01*
G01*
G37*
G36*
G01*
X139751750Y-77061000D02*
X140664250Y-77061000D01*
G75*
G02*
X140908000Y-77304750I0J-243750D01*
G01*
X140908000Y-77792250D01*
G75*
G02*
X140664250Y-78036000I-243750J0D01*
G01*
X139751750Y-78036000D01*
G75*
G02*
X139508000Y-77792250I0J243750D01*
G01*
X139508000Y-77304750D01*
G75*
G02*
X139751750Y-77061000I243750J0D01*
G01*
G37*
%TD*%
%TO.C,R7*%
G36*
G01*
X133592250Y-86238500D02*
X134504750Y-86238500D01*
G75*
G02*
X134748500Y-86482250I0J-243750D01*
G01*
X134748500Y-86969750D01*
G75*
G02*
X134504750Y-87213500I-243750J0D01*
G01*
X133592250Y-87213500D01*
G75*
G02*
X133348500Y-86969750I0J243750D01*
G01*
X133348500Y-86482250D01*
G75*
G02*
X133592250Y-86238500I243750J0D01*
G01*
G37*
G36*
G01*
X133592250Y-84363500D02*
X134504750Y-84363500D01*
G75*
G02*
X134748500Y-84607250I0J-243750D01*
G01*
X134748500Y-85094750D01*
G75*
G02*
X134504750Y-85338500I-243750J0D01*
G01*
X133592250Y-85338500D01*
G75*
G02*
X133348500Y-85094750I0J243750D01*
G01*
X133348500Y-84607250D01*
G75*
G02*
X133592250Y-84363500I243750J0D01*
G01*
G37*
%TD*%
%TO.C,R8*%
G36*
G01*
X136259250Y-86238500D02*
X137171750Y-86238500D01*
G75*
G02*
X137415500Y-86482250I0J-243750D01*
G01*
X137415500Y-86969750D01*
G75*
G02*
X137171750Y-87213500I-243750J0D01*
G01*
X136259250Y-87213500D01*
G75*
G02*
X136015500Y-86969750I0J243750D01*
G01*
X136015500Y-86482250D01*
G75*
G02*
X136259250Y-86238500I243750J0D01*
G01*
G37*
G36*
G01*
X136259250Y-84363500D02*
X137171750Y-84363500D01*
G75*
G02*
X137415500Y-84607250I0J-243750D01*
G01*
X137415500Y-85094750D01*
G75*
G02*
X137171750Y-85338500I-243750J0D01*
G01*
X136259250Y-85338500D01*
G75*
G02*
X136015500Y-85094750I0J243750D01*
G01*
X136015500Y-84607250D01*
G75*
G02*
X136259250Y-84363500I243750J0D01*
G01*
G37*
%TD*%
%TO.C,R9*%
G36*
G01*
X143822000Y-73203750D02*
X143822000Y-74116250D01*
G75*
G02*
X143578250Y-74360000I-243750J0D01*
G01*
X143090750Y-74360000D01*
G75*
G02*
X142847000Y-74116250I0J243750D01*
G01*
X142847000Y-73203750D01*
G75*
G02*
X143090750Y-72960000I243750J0D01*
G01*
X143578250Y-72960000D01*
G75*
G02*
X143822000Y-73203750I0J-243750D01*
G01*
G37*
G36*
G01*
X145697000Y-73203750D02*
X145697000Y-74116250D01*
G75*
G02*
X145453250Y-74360000I-243750J0D01*
G01*
X144965750Y-74360000D01*
G75*
G02*
X144722000Y-74116250I0J243750D01*
G01*
X144722000Y-73203750D01*
G75*
G02*
X144965750Y-72960000I243750J0D01*
G01*
X145453250Y-72960000D01*
G75*
G02*
X145697000Y-73203750I0J-243750D01*
G01*
G37*
%TD*%
%TO.C,R10*%
G36*
G01*
X145339750Y-70808000D02*
X146252250Y-70808000D01*
G75*
G02*
X146496000Y-71051750I0J-243750D01*
G01*
X146496000Y-71539250D01*
G75*
G02*
X146252250Y-71783000I-243750J0D01*
G01*
X145339750Y-71783000D01*
G75*
G02*
X145096000Y-71539250I0J243750D01*
G01*
X145096000Y-71051750D01*
G75*
G02*
X145339750Y-70808000I243750J0D01*
G01*
G37*
G36*
G01*
X145339750Y-68933000D02*
X146252250Y-68933000D01*
G75*
G02*
X146496000Y-69176750I0J-243750D01*
G01*
X146496000Y-69664250D01*
G75*
G02*
X146252250Y-69908000I-243750J0D01*
G01*
X145339750Y-69908000D01*
G75*
G02*
X145096000Y-69664250I0J243750D01*
G01*
X145096000Y-69176750D01*
G75*
G02*
X145339750Y-68933000I243750J0D01*
G01*
G37*
%TD*%
%TO.C,R11*%
G36*
G01*
X148648000Y-69139750D02*
X148648000Y-70052250D01*
G75*
G02*
X148404250Y-70296000I-243750J0D01*
G01*
X147916750Y-70296000D01*
G75*
G02*
X147673000Y-70052250I0J243750D01*
G01*
X147673000Y-69139750D01*
G75*
G02*
X147916750Y-68896000I243750J0D01*
G01*
X148404250Y-68896000D01*
G75*
G02*
X148648000Y-69139750I0J-243750D01*
G01*
G37*
G36*
G01*
X150523000Y-69139750D02*
X150523000Y-70052250D01*
G75*
G02*
X150279250Y-70296000I-243750J0D01*
G01*
X149791750Y-70296000D01*
G75*
G02*
X149548000Y-70052250I0J243750D01*
G01*
X149548000Y-69139750D01*
G75*
G02*
X149791750Y-68896000I243750J0D01*
G01*
X150279250Y-68896000D01*
G75*
G02*
X150523000Y-69139750I0J-243750D01*
G01*
G37*
%TD*%
%TO.C,R12*%
G36*
G01*
X153474000Y-77521750D02*
X153474000Y-78434250D01*
G75*
G02*
X153230250Y-78678000I-243750J0D01*
G01*
X152742750Y-78678000D01*
G75*
G02*
X152499000Y-78434250I0J243750D01*
G01*
X152499000Y-77521750D01*
G75*
G02*
X152742750Y-77278000I243750J0D01*
G01*
X153230250Y-77278000D01*
G75*
G02*
X153474000Y-77521750I0J-243750D01*
G01*
G37*
G36*
G01*
X155349000Y-77521750D02*
X155349000Y-78434250D01*
G75*
G02*
X155105250Y-78678000I-243750J0D01*
G01*
X154617750Y-78678000D01*
G75*
G02*
X154374000Y-78434250I0J243750D01*
G01*
X154374000Y-77521750D01*
G75*
G02*
X154617750Y-77278000I243750J0D01*
G01*
X155105250Y-77278000D01*
G75*
G02*
X155349000Y-77521750I0J-243750D01*
G01*
G37*
%TD*%
%TO.C,R13*%
G36*
G01*
X157157000Y-74346750D02*
X157157000Y-75259250D01*
G75*
G02*
X156913250Y-75503000I-243750J0D01*
G01*
X156425750Y-75503000D01*
G75*
G02*
X156182000Y-75259250I0J243750D01*
G01*
X156182000Y-74346750D01*
G75*
G02*
X156425750Y-74103000I243750J0D01*
G01*
X156913250Y-74103000D01*
G75*
G02*
X157157000Y-74346750I0J-243750D01*
G01*
G37*
G36*
G01*
X159032000Y-74346750D02*
X159032000Y-75259250D01*
G75*
G02*
X158788250Y-75503000I-243750J0D01*
G01*
X158300750Y-75503000D01*
G75*
G02*
X158057000Y-75259250I0J243750D01*
G01*
X158057000Y-74346750D01*
G75*
G02*
X158300750Y-74103000I243750J0D01*
G01*
X158788250Y-74103000D01*
G75*
G02*
X159032000Y-74346750I0J-243750D01*
G01*
G37*
%TD*%
%TO.C,R14*%
G36*
G01*
X160222250Y-77210500D02*
X159309750Y-77210500D01*
G75*
G02*
X159066000Y-76966750I0J243750D01*
G01*
X159066000Y-76479250D01*
G75*
G02*
X159309750Y-76235500I243750J0D01*
G01*
X160222250Y-76235500D01*
G75*
G02*
X160466000Y-76479250I0J-243750D01*
G01*
X160466000Y-76966750D01*
G75*
G02*
X160222250Y-77210500I-243750J0D01*
G01*
G37*
G36*
G01*
X160222250Y-79085500D02*
X159309750Y-79085500D01*
G75*
G02*
X159066000Y-78841750I0J243750D01*
G01*
X159066000Y-78354250D01*
G75*
G02*
X159309750Y-78110500I243750J0D01*
G01*
X160222250Y-78110500D01*
G75*
G02*
X160466000Y-78354250I0J-243750D01*
G01*
X160466000Y-78841750D01*
G75*
G02*
X160222250Y-79085500I-243750J0D01*
G01*
G37*
%TD*%
%TO.C,R16*%
G36*
G01*
X141674000Y-82244250D02*
X141674000Y-81331750D01*
G75*
G02*
X141917750Y-81088000I243750J0D01*
G01*
X142405250Y-81088000D01*
G75*
G02*
X142649000Y-81331750I0J-243750D01*
G01*
X142649000Y-82244250D01*
G75*
G02*
X142405250Y-82488000I-243750J0D01*
G01*
X141917750Y-82488000D01*
G75*
G02*
X141674000Y-82244250I0J243750D01*
G01*
G37*
G36*
G01*
X139799000Y-82244250D02*
X139799000Y-81331750D01*
G75*
G02*
X140042750Y-81088000I243750J0D01*
G01*
X140530250Y-81088000D01*
G75*
G02*
X140774000Y-81331750I0J-243750D01*
G01*
X140774000Y-82244250D01*
G75*
G02*
X140530250Y-82488000I-243750J0D01*
G01*
X140042750Y-82488000D01*
G75*
G02*
X139799000Y-82244250I0J243750D01*
G01*
G37*
%TD*%
D10*
%TO.C,U6*%
X145662650Y-83835999D03*
X145662650Y-84336001D03*
X145662650Y-84836000D03*
X145662650Y-85335999D03*
X145662650Y-85836001D03*
X141357350Y-85836001D03*
X141357350Y-85335999D03*
X141357350Y-84836000D03*
X141357350Y-84336001D03*
X141357350Y-83835999D03*
%TD*%
%TO.C,U7*%
X145916650Y-92979999D03*
X145916650Y-93480001D03*
X145916650Y-93980000D03*
X145916650Y-94479999D03*
X145916650Y-94980001D03*
X141611350Y-94980001D03*
X141611350Y-94479999D03*
X141611350Y-93980000D03*
X141611350Y-93480001D03*
X141611350Y-92979999D03*
%TD*%
D11*
%TO.C,U3*%
X153252000Y-72009000D03*
X153252000Y-73279000D03*
X153252000Y-74549000D03*
X153252000Y-75819000D03*
X147992000Y-75819000D03*
X147992000Y-74549000D03*
X147992000Y-73279000D03*
X147992000Y-72009000D03*
%TD*%
%TO.C,C22*%
G36*
G01*
X117272750Y-78745500D02*
X118185250Y-78745500D01*
G75*
G02*
X118429000Y-78989250I0J-243750D01*
G01*
X118429000Y-79476750D01*
G75*
G02*
X118185250Y-79720500I-243750J0D01*
G01*
X117272750Y-79720500D01*
G75*
G02*
X117029000Y-79476750I0J243750D01*
G01*
X117029000Y-78989250D01*
G75*
G02*
X117272750Y-78745500I243750J0D01*
G01*
G37*
G36*
G01*
X117272750Y-76870500D02*
X118185250Y-76870500D01*
G75*
G02*
X118429000Y-77114250I0J-243750D01*
G01*
X118429000Y-77601750D01*
G75*
G02*
X118185250Y-77845500I-243750J0D01*
G01*
X117272750Y-77845500D01*
G75*
G02*
X117029000Y-77601750I0J243750D01*
G01*
X117029000Y-77114250D01*
G75*
G02*
X117272750Y-76870500I243750J0D01*
G01*
G37*
%TD*%
%TO.C,C23*%
G36*
G01*
X122105000Y-78029750D02*
X122105000Y-78942250D01*
G75*
G02*
X121861250Y-79186000I-243750J0D01*
G01*
X121373750Y-79186000D01*
G75*
G02*
X121130000Y-78942250I0J243750D01*
G01*
X121130000Y-78029750D01*
G75*
G02*
X121373750Y-77786000I243750J0D01*
G01*
X121861250Y-77786000D01*
G75*
G02*
X122105000Y-78029750I0J-243750D01*
G01*
G37*
G36*
G01*
X123980000Y-78029750D02*
X123980000Y-78942250D01*
G75*
G02*
X123736250Y-79186000I-243750J0D01*
G01*
X123248750Y-79186000D01*
G75*
G02*
X123005000Y-78942250I0J243750D01*
G01*
X123005000Y-78029750D01*
G75*
G02*
X123248750Y-77786000I243750J0D01*
G01*
X123736250Y-77786000D01*
G75*
G02*
X123980000Y-78029750I0J-243750D01*
G01*
G37*
%TD*%
%TO.C,C9*%
G36*
G01*
X149981500Y-92317250D02*
X149981500Y-93229750D01*
G75*
G02*
X149737750Y-93473500I-243750J0D01*
G01*
X149250250Y-93473500D01*
G75*
G02*
X149006500Y-93229750I0J243750D01*
G01*
X149006500Y-92317250D01*
G75*
G02*
X149250250Y-92073500I243750J0D01*
G01*
X149737750Y-92073500D01*
G75*
G02*
X149981500Y-92317250I0J-243750D01*
G01*
G37*
G36*
G01*
X151856500Y-92317250D02*
X151856500Y-93229750D01*
G75*
G02*
X151612750Y-93473500I-243750J0D01*
G01*
X151125250Y-93473500D01*
G75*
G02*
X150881500Y-93229750I0J243750D01*
G01*
X150881500Y-92317250D01*
G75*
G02*
X151125250Y-92073500I243750J0D01*
G01*
X151612750Y-92073500D01*
G75*
G02*
X151856500Y-92317250I0J-243750D01*
G01*
G37*
%TD*%
%TO.C,C12*%
G36*
G01*
X149968800Y-94488950D02*
X149968800Y-95401450D01*
G75*
G02*
X149725050Y-95645200I-243750J0D01*
G01*
X149237550Y-95645200D01*
G75*
G02*
X148993800Y-95401450I0J243750D01*
G01*
X148993800Y-94488950D01*
G75*
G02*
X149237550Y-94245200I243750J0D01*
G01*
X149725050Y-94245200D01*
G75*
G02*
X149968800Y-94488950I0J-243750D01*
G01*
G37*
G36*
G01*
X151843800Y-94488950D02*
X151843800Y-95401450D01*
G75*
G02*
X151600050Y-95645200I-243750J0D01*
G01*
X151112550Y-95645200D01*
G75*
G02*
X150868800Y-95401450I0J243750D01*
G01*
X150868800Y-94488950D01*
G75*
G02*
X151112550Y-94245200I243750J0D01*
G01*
X151600050Y-94245200D01*
G75*
G02*
X151843800Y-94488950I0J-243750D01*
G01*
G37*
%TD*%
%TO.C,C24*%
G36*
G01*
X156871350Y-92296400D02*
X157783850Y-92296400D01*
G75*
G02*
X158027600Y-92540150I0J-243750D01*
G01*
X158027600Y-93027650D01*
G75*
G02*
X157783850Y-93271400I-243750J0D01*
G01*
X156871350Y-93271400D01*
G75*
G02*
X156627600Y-93027650I0J243750D01*
G01*
X156627600Y-92540150D01*
G75*
G02*
X156871350Y-92296400I243750J0D01*
G01*
G37*
G36*
G01*
X156871350Y-90421400D02*
X157783850Y-90421400D01*
G75*
G02*
X158027600Y-90665150I0J-243750D01*
G01*
X158027600Y-91152650D01*
G75*
G02*
X157783850Y-91396400I-243750J0D01*
G01*
X156871350Y-91396400D01*
G75*
G02*
X156627600Y-91152650I0J243750D01*
G01*
X156627600Y-90665150D01*
G75*
G02*
X156871350Y-90421400I243750J0D01*
G01*
G37*
%TD*%
%TO.C,C25*%
G36*
G01*
X157834650Y-95054000D02*
X156922150Y-95054000D01*
G75*
G02*
X156678400Y-94810250I0J243750D01*
G01*
X156678400Y-94322750D01*
G75*
G02*
X156922150Y-94079000I243750J0D01*
G01*
X157834650Y-94079000D01*
G75*
G02*
X158078400Y-94322750I0J-243750D01*
G01*
X158078400Y-94810250D01*
G75*
G02*
X157834650Y-95054000I-243750J0D01*
G01*
G37*
G36*
G01*
X157834650Y-96929000D02*
X156922150Y-96929000D01*
G75*
G02*
X156678400Y-96685250I0J243750D01*
G01*
X156678400Y-96197750D01*
G75*
G02*
X156922150Y-95954000I243750J0D01*
G01*
X157834650Y-95954000D01*
G75*
G02*
X158078400Y-96197750I0J-243750D01*
G01*
X158078400Y-96685250D01*
G75*
G02*
X157834650Y-96929000I-243750J0D01*
G01*
G37*
%TD*%
%TO.C,C26*%
G36*
G01*
X155701050Y-81439600D02*
X154788550Y-81439600D01*
G75*
G02*
X154544800Y-81195850I0J243750D01*
G01*
X154544800Y-80708350D01*
G75*
G02*
X154788550Y-80464600I243750J0D01*
G01*
X155701050Y-80464600D01*
G75*
G02*
X155944800Y-80708350I0J-243750D01*
G01*
X155944800Y-81195850D01*
G75*
G02*
X155701050Y-81439600I-243750J0D01*
G01*
G37*
G36*
G01*
X155701050Y-83314600D02*
X154788550Y-83314600D01*
G75*
G02*
X154544800Y-83070850I0J243750D01*
G01*
X154544800Y-82583350D01*
G75*
G02*
X154788550Y-82339600I243750J0D01*
G01*
X155701050Y-82339600D01*
G75*
G02*
X155944800Y-82583350I0J-243750D01*
G01*
X155944800Y-83070850D01*
G75*
G02*
X155701050Y-83314600I-243750J0D01*
G01*
G37*
%TD*%
%TO.C,C27*%
G36*
G01*
X152957850Y-81439600D02*
X152045350Y-81439600D01*
G75*
G02*
X151801600Y-81195850I0J243750D01*
G01*
X151801600Y-80708350D01*
G75*
G02*
X152045350Y-80464600I243750J0D01*
G01*
X152957850Y-80464600D01*
G75*
G02*
X153201600Y-80708350I0J-243750D01*
G01*
X153201600Y-81195850D01*
G75*
G02*
X152957850Y-81439600I-243750J0D01*
G01*
G37*
G36*
G01*
X152957850Y-83314600D02*
X152045350Y-83314600D01*
G75*
G02*
X151801600Y-83070850I0J243750D01*
G01*
X151801600Y-82583350D01*
G75*
G02*
X152045350Y-82339600I243750J0D01*
G01*
X152957850Y-82339600D01*
G75*
G02*
X153201600Y-82583350I0J-243750D01*
G01*
X153201600Y-83070850D01*
G75*
G02*
X152957850Y-83314600I-243750J0D01*
G01*
G37*
%TD*%
%TO.C,R15*%
G36*
G01*
X153719850Y-91396400D02*
X152807350Y-91396400D01*
G75*
G02*
X152563600Y-91152650I0J243750D01*
G01*
X152563600Y-90665150D01*
G75*
G02*
X152807350Y-90421400I243750J0D01*
G01*
X153719850Y-90421400D01*
G75*
G02*
X153963600Y-90665150I0J-243750D01*
G01*
X153963600Y-91152650D01*
G75*
G02*
X153719850Y-91396400I-243750J0D01*
G01*
G37*
G36*
G01*
X153719850Y-93271400D02*
X152807350Y-93271400D01*
G75*
G02*
X152563600Y-93027650I0J243750D01*
G01*
X152563600Y-92540150D01*
G75*
G02*
X152807350Y-92296400I243750J0D01*
G01*
X153719850Y-92296400D01*
G75*
G02*
X153963600Y-92540150I0J-243750D01*
G01*
X153963600Y-93027650D01*
G75*
G02*
X153719850Y-93271400I-243750J0D01*
G01*
G37*
%TD*%
%TO.C,R17*%
G36*
G01*
X152807350Y-95954000D02*
X153719850Y-95954000D01*
G75*
G02*
X153963600Y-96197750I0J-243750D01*
G01*
X153963600Y-96685250D01*
G75*
G02*
X153719850Y-96929000I-243750J0D01*
G01*
X152807350Y-96929000D01*
G75*
G02*
X152563600Y-96685250I0J243750D01*
G01*
X152563600Y-96197750D01*
G75*
G02*
X152807350Y-95954000I243750J0D01*
G01*
G37*
G36*
G01*
X152807350Y-94079000D02*
X153719850Y-94079000D01*
G75*
G02*
X153963600Y-94322750I0J-243750D01*
G01*
X153963600Y-94810250D01*
G75*
G02*
X153719850Y-95054000I-243750J0D01*
G01*
X152807350Y-95054000D01*
G75*
G02*
X152563600Y-94810250I0J243750D01*
G01*
X152563600Y-94322750D01*
G75*
G02*
X152807350Y-94079000I243750J0D01*
G01*
G37*
%TD*%
%TO.C,R18*%
G36*
G01*
X154839350Y-92296400D02*
X155751850Y-92296400D01*
G75*
G02*
X155995600Y-92540150I0J-243750D01*
G01*
X155995600Y-93027650D01*
G75*
G02*
X155751850Y-93271400I-243750J0D01*
G01*
X154839350Y-93271400D01*
G75*
G02*
X154595600Y-93027650I0J243750D01*
G01*
X154595600Y-92540150D01*
G75*
G02*
X154839350Y-92296400I243750J0D01*
G01*
G37*
G36*
G01*
X154839350Y-90421400D02*
X155751850Y-90421400D01*
G75*
G02*
X155995600Y-90665150I0J-243750D01*
G01*
X155995600Y-91152650D01*
G75*
G02*
X155751850Y-91396400I-243750J0D01*
G01*
X154839350Y-91396400D01*
G75*
G02*
X154595600Y-91152650I0J243750D01*
G01*
X154595600Y-90665150D01*
G75*
G02*
X154839350Y-90421400I243750J0D01*
G01*
G37*
%TD*%
%TO.C,R19*%
G36*
G01*
X155751850Y-95054000D02*
X154839350Y-95054000D01*
G75*
G02*
X154595600Y-94810250I0J243750D01*
G01*
X154595600Y-94322750D01*
G75*
G02*
X154839350Y-94079000I243750J0D01*
G01*
X155751850Y-94079000D01*
G75*
G02*
X155995600Y-94322750I0J-243750D01*
G01*
X155995600Y-94810250D01*
G75*
G02*
X155751850Y-95054000I-243750J0D01*
G01*
G37*
G36*
G01*
X155751850Y-96929000D02*
X154839350Y-96929000D01*
G75*
G02*
X154595600Y-96685250I0J243750D01*
G01*
X154595600Y-96197750D01*
G75*
G02*
X154839350Y-95954000I243750J0D01*
G01*
X155751850Y-95954000D01*
G75*
G02*
X155995600Y-96197750I0J-243750D01*
G01*
X155995600Y-96685250D01*
G75*
G02*
X155751850Y-96929000I-243750J0D01*
G01*
G37*
%TD*%
D12*
%TO.C,U2*%
X120572500Y-75540000D03*
X125172500Y-75540000D03*
X122872500Y-75540000D03*
D13*
X122872500Y-69240000D03*
%TD*%
M02*
