%TF.GenerationSoftware,KiCad,Pcbnew,(5.1.6)-1*%
%TF.CreationDate,2020-12-22T10:56:42-08:00*%
%TF.ProjectId,Digimuser_Board,44696769-6d75-4736-9572-5f426f617264,rev?*%
%TF.SameCoordinates,Original*%
%TF.FileFunction,Soldermask,Top*%
%TF.FilePolarity,Negative*%
%FSLAX46Y46*%
G04 Gerber Fmt 4.6, Leading zero omitted, Abs format (unit mm)*
G04 Created by KiCad (PCBNEW (5.1.6)-1) date 2020-12-22 10:56:42*
%MOMM*%
%LPD*%
G01*
G04 APERTURE LIST*
%ADD10R,1.800000X1.800000*%
%ADD11O,1.700000X1.700000*%
%ADD12C,1.700000*%
%ADD13R,1.408100X0.404800*%
%ADD14R,1.750000X0.710000*%
%ADD15C,4.500000*%
%ADD16R,3.600000X3.600000*%
%ADD17O,1.800000X1.800000*%
%ADD18R,1.600000X2.100000*%
%ADD19R,3.900000X2.100000*%
G04 APERTURE END LIST*
D10*
%TO.C,J12*%
X112268000Y-102108000D03*
%TD*%
%TO.C,J11*%
X140208000Y-102108000D03*
%TD*%
%TO.C,J10*%
X109728000Y-102108000D03*
%TD*%
%TO.C,J9*%
X122428000Y-102108000D03*
%TD*%
%TO.C,J8*%
X117348000Y-102108000D03*
%TD*%
%TO.C,J7*%
X158851600Y-86918800D03*
%TD*%
%TO.C,J6*%
X155194000Y-86918800D03*
%TD*%
D11*
%TO.C,C13*%
X153194400Y-100279200D03*
D12*
X145694400Y-100279200D03*
%TD*%
%TO.C,C1*%
G36*
G01*
X136188500Y-70956250D02*
X136188500Y-71918750D01*
G75*
G02*
X135919750Y-72187500I-268750J0D01*
G01*
X135382250Y-72187500D01*
G75*
G02*
X135113500Y-71918750I0J268750D01*
G01*
X135113500Y-70956250D01*
G75*
G02*
X135382250Y-70687500I268750J0D01*
G01*
X135919750Y-70687500D01*
G75*
G02*
X136188500Y-70956250I0J-268750D01*
G01*
G37*
G36*
G01*
X138063500Y-70956250D02*
X138063500Y-71918750D01*
G75*
G02*
X137794750Y-72187500I-268750J0D01*
G01*
X137257250Y-72187500D01*
G75*
G02*
X136988500Y-71918750I0J268750D01*
G01*
X136988500Y-70956250D01*
G75*
G02*
X137257250Y-70687500I268750J0D01*
G01*
X137794750Y-70687500D01*
G75*
G02*
X138063500Y-70956250I0J-268750D01*
G01*
G37*
%TD*%
%TO.C,C2*%
G36*
G01*
X144164000Y-79729250D02*
X144164000Y-78766750D01*
G75*
G02*
X144432750Y-78498000I268750J0D01*
G01*
X144970250Y-78498000D01*
G75*
G02*
X145239000Y-78766750I0J-268750D01*
G01*
X145239000Y-79729250D01*
G75*
G02*
X144970250Y-79998000I-268750J0D01*
G01*
X144432750Y-79998000D01*
G75*
G02*
X144164000Y-79729250I0J268750D01*
G01*
G37*
G36*
G01*
X142289000Y-79729250D02*
X142289000Y-78766750D01*
G75*
G02*
X142557750Y-78498000I268750J0D01*
G01*
X143095250Y-78498000D01*
G75*
G02*
X143364000Y-78766750I0J-268750D01*
G01*
X143364000Y-79729250D01*
G75*
G02*
X143095250Y-79998000I-268750J0D01*
G01*
X142557750Y-79998000D01*
G75*
G02*
X142289000Y-79729250I0J268750D01*
G01*
G37*
%TD*%
%TO.C,C3*%
G36*
G01*
X143991250Y-69958000D02*
X143028750Y-69958000D01*
G75*
G02*
X142760000Y-69689250I0J268750D01*
G01*
X142760000Y-69151750D01*
G75*
G02*
X143028750Y-68883000I268750J0D01*
G01*
X143991250Y-68883000D01*
G75*
G02*
X144260000Y-69151750I0J-268750D01*
G01*
X144260000Y-69689250D01*
G75*
G02*
X143991250Y-69958000I-268750J0D01*
G01*
G37*
G36*
G01*
X143991250Y-71833000D02*
X143028750Y-71833000D01*
G75*
G02*
X142760000Y-71564250I0J268750D01*
G01*
X142760000Y-71026750D01*
G75*
G02*
X143028750Y-70758000I268750J0D01*
G01*
X143991250Y-70758000D01*
G75*
G02*
X144260000Y-71026750I0J-268750D01*
G01*
X144260000Y-71564250D01*
G75*
G02*
X143991250Y-71833000I-268750J0D01*
G01*
G37*
%TD*%
%TO.C,C4*%
G36*
G01*
X152762000Y-69241750D02*
X152762000Y-70204250D01*
G75*
G02*
X152493250Y-70473000I-268750J0D01*
G01*
X151955750Y-70473000D01*
G75*
G02*
X151687000Y-70204250I0J268750D01*
G01*
X151687000Y-69241750D01*
G75*
G02*
X151955750Y-68973000I268750J0D01*
G01*
X152493250Y-68973000D01*
G75*
G02*
X152762000Y-69241750I0J-268750D01*
G01*
G37*
G36*
G01*
X154637000Y-69241750D02*
X154637000Y-70204250D01*
G75*
G02*
X154368250Y-70473000I-268750J0D01*
G01*
X153830750Y-70473000D01*
G75*
G02*
X153562000Y-70204250I0J268750D01*
G01*
X153562000Y-69241750D01*
G75*
G02*
X153830750Y-68973000I268750J0D01*
G01*
X154368250Y-68973000D01*
G75*
G02*
X154637000Y-69241750I0J-268750D01*
G01*
G37*
%TD*%
%TO.C,C5*%
G36*
G01*
X149714000Y-77496750D02*
X149714000Y-78459250D01*
G75*
G02*
X149445250Y-78728000I-268750J0D01*
G01*
X148907750Y-78728000D01*
G75*
G02*
X148639000Y-78459250I0J268750D01*
G01*
X148639000Y-77496750D01*
G75*
G02*
X148907750Y-77228000I268750J0D01*
G01*
X149445250Y-77228000D01*
G75*
G02*
X149714000Y-77496750I0J-268750D01*
G01*
G37*
G36*
G01*
X151589000Y-77496750D02*
X151589000Y-78459250D01*
G75*
G02*
X151320250Y-78728000I-268750J0D01*
G01*
X150782750Y-78728000D01*
G75*
G02*
X150514000Y-78459250I0J268750D01*
G01*
X150514000Y-77496750D01*
G75*
G02*
X150782750Y-77228000I268750J0D01*
G01*
X151320250Y-77228000D01*
G75*
G02*
X151589000Y-77496750I0J-268750D01*
G01*
G37*
%TD*%
%TO.C,C6*%
G36*
G01*
X156363750Y-77997000D02*
X157326250Y-77997000D01*
G75*
G02*
X157595000Y-78265750I0J-268750D01*
G01*
X157595000Y-78803250D01*
G75*
G02*
X157326250Y-79072000I-268750J0D01*
G01*
X156363750Y-79072000D01*
G75*
G02*
X156095000Y-78803250I0J268750D01*
G01*
X156095000Y-78265750D01*
G75*
G02*
X156363750Y-77997000I268750J0D01*
G01*
G37*
G36*
G01*
X156363750Y-76122000D02*
X157326250Y-76122000D01*
G75*
G02*
X157595000Y-76390750I0J-268750D01*
G01*
X157595000Y-76928250D01*
G75*
G02*
X157326250Y-77197000I-268750J0D01*
G01*
X156363750Y-77197000D01*
G75*
G02*
X156095000Y-76928250I0J268750D01*
G01*
X156095000Y-76390750D01*
G75*
G02*
X156363750Y-76122000I268750J0D01*
G01*
G37*
%TD*%
%TO.C,C7*%
G36*
G01*
X138964750Y-96793000D02*
X139927250Y-96793000D01*
G75*
G02*
X140196000Y-97061750I0J-268750D01*
G01*
X140196000Y-97599250D01*
G75*
G02*
X139927250Y-97868000I-268750J0D01*
G01*
X138964750Y-97868000D01*
G75*
G02*
X138696000Y-97599250I0J268750D01*
G01*
X138696000Y-97061750D01*
G75*
G02*
X138964750Y-96793000I268750J0D01*
G01*
G37*
G36*
G01*
X138964750Y-94918000D02*
X139927250Y-94918000D01*
G75*
G02*
X140196000Y-95186750I0J-268750D01*
G01*
X140196000Y-95724250D01*
G75*
G02*
X139927250Y-95993000I-268750J0D01*
G01*
X138964750Y-95993000D01*
G75*
G02*
X138696000Y-95724250I0J268750D01*
G01*
X138696000Y-95186750D01*
G75*
G02*
X138964750Y-94918000I268750J0D01*
G01*
G37*
%TD*%
%TO.C,C8*%
G36*
G01*
X138710750Y-87522000D02*
X139673250Y-87522000D01*
G75*
G02*
X139942000Y-87790750I0J-268750D01*
G01*
X139942000Y-88328250D01*
G75*
G02*
X139673250Y-88597000I-268750J0D01*
G01*
X138710750Y-88597000D01*
G75*
G02*
X138442000Y-88328250I0J268750D01*
G01*
X138442000Y-87790750D01*
G75*
G02*
X138710750Y-87522000I268750J0D01*
G01*
G37*
G36*
G01*
X138710750Y-85647000D02*
X139673250Y-85647000D01*
G75*
G02*
X139942000Y-85915750I0J-268750D01*
G01*
X139942000Y-86453250D01*
G75*
G02*
X139673250Y-86722000I-268750J0D01*
G01*
X138710750Y-86722000D01*
G75*
G02*
X138442000Y-86453250I0J268750D01*
G01*
X138442000Y-85915750D01*
G75*
G02*
X138710750Y-85647000I268750J0D01*
G01*
G37*
%TD*%
%TO.C,C10*%
G36*
G01*
X142767000Y-97763250D02*
X142767000Y-96800750D01*
G75*
G02*
X143035750Y-96532000I268750J0D01*
G01*
X143573250Y-96532000D01*
G75*
G02*
X143842000Y-96800750I0J-268750D01*
G01*
X143842000Y-97763250D01*
G75*
G02*
X143573250Y-98032000I-268750J0D01*
G01*
X143035750Y-98032000D01*
G75*
G02*
X142767000Y-97763250I0J268750D01*
G01*
G37*
G36*
G01*
X140892000Y-97763250D02*
X140892000Y-96800750D01*
G75*
G02*
X141160750Y-96532000I268750J0D01*
G01*
X141698250Y-96532000D01*
G75*
G02*
X141967000Y-96800750I0J-268750D01*
G01*
X141967000Y-97763250D01*
G75*
G02*
X141698250Y-98032000I-268750J0D01*
G01*
X141160750Y-98032000D01*
G75*
G02*
X140892000Y-97763250I0J268750D01*
G01*
G37*
%TD*%
%TO.C,C11*%
G36*
G01*
X141123750Y-89046000D02*
X142086250Y-89046000D01*
G75*
G02*
X142355000Y-89314750I0J-268750D01*
G01*
X142355000Y-89852250D01*
G75*
G02*
X142086250Y-90121000I-268750J0D01*
G01*
X141123750Y-90121000D01*
G75*
G02*
X140855000Y-89852250I0J268750D01*
G01*
X140855000Y-89314750D01*
G75*
G02*
X141123750Y-89046000I268750J0D01*
G01*
G37*
G36*
G01*
X141123750Y-87171000D02*
X142086250Y-87171000D01*
G75*
G02*
X142355000Y-87439750I0J-268750D01*
G01*
X142355000Y-87977250D01*
G75*
G02*
X142086250Y-88246000I-268750J0D01*
G01*
X141123750Y-88246000D01*
G75*
G02*
X140855000Y-87977250I0J268750D01*
G01*
X140855000Y-87439750D01*
G75*
G02*
X141123750Y-87171000I268750J0D01*
G01*
G37*
%TD*%
%TO.C,C14*%
G36*
G01*
X147293250Y-80880000D02*
X146330750Y-80880000D01*
G75*
G02*
X146062000Y-80611250I0J268750D01*
G01*
X146062000Y-80073750D01*
G75*
G02*
X146330750Y-79805000I268750J0D01*
G01*
X147293250Y-79805000D01*
G75*
G02*
X147562000Y-80073750I0J-268750D01*
G01*
X147562000Y-80611250D01*
G75*
G02*
X147293250Y-80880000I-268750J0D01*
G01*
G37*
G36*
G01*
X147293250Y-82755000D02*
X146330750Y-82755000D01*
G75*
G02*
X146062000Y-82486250I0J268750D01*
G01*
X146062000Y-81948750D01*
G75*
G02*
X146330750Y-81680000I268750J0D01*
G01*
X147293250Y-81680000D01*
G75*
G02*
X147562000Y-81948750I0J-268750D01*
G01*
X147562000Y-82486250D01*
G75*
G02*
X147293250Y-82755000I-268750J0D01*
G01*
G37*
%TD*%
%TO.C,C15*%
G36*
G01*
X149071250Y-85452000D02*
X148108750Y-85452000D01*
G75*
G02*
X147840000Y-85183250I0J268750D01*
G01*
X147840000Y-84645750D01*
G75*
G02*
X148108750Y-84377000I268750J0D01*
G01*
X149071250Y-84377000D01*
G75*
G02*
X149340000Y-84645750I0J-268750D01*
G01*
X149340000Y-85183250D01*
G75*
G02*
X149071250Y-85452000I-268750J0D01*
G01*
G37*
G36*
G01*
X149071250Y-87327000D02*
X148108750Y-87327000D01*
G75*
G02*
X147840000Y-87058250I0J268750D01*
G01*
X147840000Y-86520750D01*
G75*
G02*
X148108750Y-86252000I268750J0D01*
G01*
X149071250Y-86252000D01*
G75*
G02*
X149340000Y-86520750I0J-268750D01*
G01*
X149340000Y-87058250D01*
G75*
G02*
X149071250Y-87327000I-268750J0D01*
G01*
G37*
%TD*%
%TO.C,C16*%
G36*
G01*
X145142000Y-90069750D02*
X145142000Y-91032250D01*
G75*
G02*
X144873250Y-91301000I-268750J0D01*
G01*
X144335750Y-91301000D01*
G75*
G02*
X144067000Y-91032250I0J268750D01*
G01*
X144067000Y-90069750D01*
G75*
G02*
X144335750Y-89801000I268750J0D01*
G01*
X144873250Y-89801000D01*
G75*
G02*
X145142000Y-90069750I0J-268750D01*
G01*
G37*
G36*
G01*
X147017000Y-90069750D02*
X147017000Y-91032250D01*
G75*
G02*
X146748250Y-91301000I-268750J0D01*
G01*
X146210750Y-91301000D01*
G75*
G02*
X145942000Y-91032250I0J268750D01*
G01*
X145942000Y-90069750D01*
G75*
G02*
X146210750Y-89801000I268750J0D01*
G01*
X146748250Y-89801000D01*
G75*
G02*
X147017000Y-90069750I0J-268750D01*
G01*
G37*
%TD*%
%TO.C,C17*%
G36*
G01*
X146069000Y-88365250D02*
X146069000Y-87402750D01*
G75*
G02*
X146337750Y-87134000I268750J0D01*
G01*
X146875250Y-87134000D01*
G75*
G02*
X147144000Y-87402750I0J-268750D01*
G01*
X147144000Y-88365250D01*
G75*
G02*
X146875250Y-88634000I-268750J0D01*
G01*
X146337750Y-88634000D01*
G75*
G02*
X146069000Y-88365250I0J268750D01*
G01*
G37*
G36*
G01*
X144194000Y-88365250D02*
X144194000Y-87402750D01*
G75*
G02*
X144462750Y-87134000I268750J0D01*
G01*
X145000250Y-87134000D01*
G75*
G02*
X145269000Y-87402750I0J-268750D01*
G01*
X145269000Y-88365250D01*
G75*
G02*
X145000250Y-88634000I-268750J0D01*
G01*
X144462750Y-88634000D01*
G75*
G02*
X144194000Y-88365250I0J268750D01*
G01*
G37*
%TD*%
%TO.C,C18*%
G36*
G01*
X157151150Y-81629200D02*
X158113650Y-81629200D01*
G75*
G02*
X158382400Y-81897950I0J-268750D01*
G01*
X158382400Y-82435450D01*
G75*
G02*
X158113650Y-82704200I-268750J0D01*
G01*
X157151150Y-82704200D01*
G75*
G02*
X156882400Y-82435450I0J268750D01*
G01*
X156882400Y-81897950D01*
G75*
G02*
X157151150Y-81629200I268750J0D01*
G01*
G37*
G36*
G01*
X157151150Y-79754200D02*
X158113650Y-79754200D01*
G75*
G02*
X158382400Y-80022950I0J-268750D01*
G01*
X158382400Y-80560450D01*
G75*
G02*
X158113650Y-80829200I-268750J0D01*
G01*
X157151150Y-80829200D01*
G75*
G02*
X156882400Y-80560450I0J268750D01*
G01*
X156882400Y-80022950D01*
G75*
G02*
X157151150Y-79754200I268750J0D01*
G01*
G37*
%TD*%
%TO.C,C19*%
G36*
G01*
X150006000Y-90016250D02*
X150006000Y-89053750D01*
G75*
G02*
X150274750Y-88785000I268750J0D01*
G01*
X150812250Y-88785000D01*
G75*
G02*
X151081000Y-89053750I0J-268750D01*
G01*
X151081000Y-90016250D01*
G75*
G02*
X150812250Y-90285000I-268750J0D01*
G01*
X150274750Y-90285000D01*
G75*
G02*
X150006000Y-90016250I0J268750D01*
G01*
G37*
G36*
G01*
X148131000Y-90016250D02*
X148131000Y-89053750D01*
G75*
G02*
X148399750Y-88785000I268750J0D01*
G01*
X148937250Y-88785000D01*
G75*
G02*
X149206000Y-89053750I0J-268750D01*
G01*
X149206000Y-90016250D01*
G75*
G02*
X148937250Y-90285000I-268750J0D01*
G01*
X148399750Y-90285000D01*
G75*
G02*
X148131000Y-90016250I0J268750D01*
G01*
G37*
%TD*%
%TO.C,C20*%
G36*
G01*
X149579250Y-80880000D02*
X148616750Y-80880000D01*
G75*
G02*
X148348000Y-80611250I0J268750D01*
G01*
X148348000Y-80073750D01*
G75*
G02*
X148616750Y-79805000I268750J0D01*
G01*
X149579250Y-79805000D01*
G75*
G02*
X149848000Y-80073750I0J-268750D01*
G01*
X149848000Y-80611250D01*
G75*
G02*
X149579250Y-80880000I-268750J0D01*
G01*
G37*
G36*
G01*
X149579250Y-82755000D02*
X148616750Y-82755000D01*
G75*
G02*
X148348000Y-82486250I0J268750D01*
G01*
X148348000Y-81948750D01*
G75*
G02*
X148616750Y-81680000I268750J0D01*
G01*
X149579250Y-81680000D01*
G75*
G02*
X149848000Y-81948750I0J-268750D01*
G01*
X149848000Y-82486250D01*
G75*
G02*
X149579250Y-82755000I-268750J0D01*
G01*
G37*
%TD*%
%TO.C,C21*%
G36*
G01*
X151357250Y-85452000D02*
X150394750Y-85452000D01*
G75*
G02*
X150126000Y-85183250I0J268750D01*
G01*
X150126000Y-84645750D01*
G75*
G02*
X150394750Y-84377000I268750J0D01*
G01*
X151357250Y-84377000D01*
G75*
G02*
X151626000Y-84645750I0J-268750D01*
G01*
X151626000Y-85183250D01*
G75*
G02*
X151357250Y-85452000I-268750J0D01*
G01*
G37*
G36*
G01*
X151357250Y-87327000D02*
X150394750Y-87327000D01*
G75*
G02*
X150126000Y-87058250I0J268750D01*
G01*
X150126000Y-86520750D01*
G75*
G02*
X150394750Y-86252000I268750J0D01*
G01*
X151357250Y-86252000D01*
G75*
G02*
X151626000Y-86520750I0J-268750D01*
G01*
X151626000Y-87058250D01*
G75*
G02*
X151357250Y-87327000I-268750J0D01*
G01*
G37*
%TD*%
%TO.C,R1*%
G36*
G01*
X136988500Y-74077750D02*
X136988500Y-73115250D01*
G75*
G02*
X137257250Y-72846500I268750J0D01*
G01*
X137794750Y-72846500D01*
G75*
G02*
X138063500Y-73115250I0J-268750D01*
G01*
X138063500Y-74077750D01*
G75*
G02*
X137794750Y-74346500I-268750J0D01*
G01*
X137257250Y-74346500D01*
G75*
G02*
X136988500Y-74077750I0J268750D01*
G01*
G37*
G36*
G01*
X135113500Y-74077750D02*
X135113500Y-73115250D01*
G75*
G02*
X135382250Y-72846500I268750J0D01*
G01*
X135919750Y-72846500D01*
G75*
G02*
X136188500Y-73115250I0J-268750D01*
G01*
X136188500Y-74077750D01*
G75*
G02*
X135919750Y-74346500I-268750J0D01*
G01*
X135382250Y-74346500D01*
G75*
G02*
X135113500Y-74077750I0J268750D01*
G01*
G37*
%TD*%
%TO.C,R2*%
G36*
G01*
X136188500Y-75274250D02*
X136188500Y-76236750D01*
G75*
G02*
X135919750Y-76505500I-268750J0D01*
G01*
X135382250Y-76505500D01*
G75*
G02*
X135113500Y-76236750I0J268750D01*
G01*
X135113500Y-75274250D01*
G75*
G02*
X135382250Y-75005500I268750J0D01*
G01*
X135919750Y-75005500D01*
G75*
G02*
X136188500Y-75274250I0J-268750D01*
G01*
G37*
G36*
G01*
X138063500Y-75274250D02*
X138063500Y-76236750D01*
G75*
G02*
X137794750Y-76505500I-268750J0D01*
G01*
X137257250Y-76505500D01*
G75*
G02*
X136988500Y-76236750I0J268750D01*
G01*
X136988500Y-75274250D01*
G75*
G02*
X137257250Y-75005500I268750J0D01*
G01*
X137794750Y-75005500D01*
G75*
G02*
X138063500Y-75274250I0J-268750D01*
G01*
G37*
%TD*%
%TO.C,R3*%
G36*
G01*
X126074250Y-86252000D02*
X127036750Y-86252000D01*
G75*
G02*
X127305500Y-86520750I0J-268750D01*
G01*
X127305500Y-87058250D01*
G75*
G02*
X127036750Y-87327000I-268750J0D01*
G01*
X126074250Y-87327000D01*
G75*
G02*
X125805500Y-87058250I0J268750D01*
G01*
X125805500Y-86520750D01*
G75*
G02*
X126074250Y-86252000I268750J0D01*
G01*
G37*
G36*
G01*
X126074250Y-84377000D02*
X127036750Y-84377000D01*
G75*
G02*
X127305500Y-84645750I0J-268750D01*
G01*
X127305500Y-85183250D01*
G75*
G02*
X127036750Y-85452000I-268750J0D01*
G01*
X126074250Y-85452000D01*
G75*
G02*
X125805500Y-85183250I0J268750D01*
G01*
X125805500Y-84645750D01*
G75*
G02*
X126074250Y-84377000I268750J0D01*
G01*
G37*
%TD*%
%TO.C,R4*%
G36*
G01*
X128423750Y-86252000D02*
X129386250Y-86252000D01*
G75*
G02*
X129655000Y-86520750I0J-268750D01*
G01*
X129655000Y-87058250D01*
G75*
G02*
X129386250Y-87327000I-268750J0D01*
G01*
X128423750Y-87327000D01*
G75*
G02*
X128155000Y-87058250I0J268750D01*
G01*
X128155000Y-86520750D01*
G75*
G02*
X128423750Y-86252000I268750J0D01*
G01*
G37*
G36*
G01*
X128423750Y-84377000D02*
X129386250Y-84377000D01*
G75*
G02*
X129655000Y-84645750I0J-268750D01*
G01*
X129655000Y-85183250D01*
G75*
G02*
X129386250Y-85452000I-268750J0D01*
G01*
X128423750Y-85452000D01*
G75*
G02*
X128155000Y-85183250I0J268750D01*
G01*
X128155000Y-84645750D01*
G75*
G02*
X128423750Y-84377000I268750J0D01*
G01*
G37*
%TD*%
%TO.C,R5*%
G36*
G01*
X130963750Y-86252000D02*
X131926250Y-86252000D01*
G75*
G02*
X132195000Y-86520750I0J-268750D01*
G01*
X132195000Y-87058250D01*
G75*
G02*
X131926250Y-87327000I-268750J0D01*
G01*
X130963750Y-87327000D01*
G75*
G02*
X130695000Y-87058250I0J268750D01*
G01*
X130695000Y-86520750D01*
G75*
G02*
X130963750Y-86252000I268750J0D01*
G01*
G37*
G36*
G01*
X130963750Y-84377000D02*
X131926250Y-84377000D01*
G75*
G02*
X132195000Y-84645750I0J-268750D01*
G01*
X132195000Y-85183250D01*
G75*
G02*
X131926250Y-85452000I-268750J0D01*
G01*
X130963750Y-85452000D01*
G75*
G02*
X130695000Y-85183250I0J268750D01*
G01*
X130695000Y-84645750D01*
G75*
G02*
X130963750Y-84377000I268750J0D01*
G01*
G37*
%TD*%
%TO.C,R6*%
G36*
G01*
X139726750Y-78886000D02*
X140689250Y-78886000D01*
G75*
G02*
X140958000Y-79154750I0J-268750D01*
G01*
X140958000Y-79692250D01*
G75*
G02*
X140689250Y-79961000I-268750J0D01*
G01*
X139726750Y-79961000D01*
G75*
G02*
X139458000Y-79692250I0J268750D01*
G01*
X139458000Y-79154750D01*
G75*
G02*
X139726750Y-78886000I268750J0D01*
G01*
G37*
G36*
G01*
X139726750Y-77011000D02*
X140689250Y-77011000D01*
G75*
G02*
X140958000Y-77279750I0J-268750D01*
G01*
X140958000Y-77817250D01*
G75*
G02*
X140689250Y-78086000I-268750J0D01*
G01*
X139726750Y-78086000D01*
G75*
G02*
X139458000Y-77817250I0J268750D01*
G01*
X139458000Y-77279750D01*
G75*
G02*
X139726750Y-77011000I268750J0D01*
G01*
G37*
%TD*%
%TO.C,R7*%
G36*
G01*
X133567250Y-86188500D02*
X134529750Y-86188500D01*
G75*
G02*
X134798500Y-86457250I0J-268750D01*
G01*
X134798500Y-86994750D01*
G75*
G02*
X134529750Y-87263500I-268750J0D01*
G01*
X133567250Y-87263500D01*
G75*
G02*
X133298500Y-86994750I0J268750D01*
G01*
X133298500Y-86457250D01*
G75*
G02*
X133567250Y-86188500I268750J0D01*
G01*
G37*
G36*
G01*
X133567250Y-84313500D02*
X134529750Y-84313500D01*
G75*
G02*
X134798500Y-84582250I0J-268750D01*
G01*
X134798500Y-85119750D01*
G75*
G02*
X134529750Y-85388500I-268750J0D01*
G01*
X133567250Y-85388500D01*
G75*
G02*
X133298500Y-85119750I0J268750D01*
G01*
X133298500Y-84582250D01*
G75*
G02*
X133567250Y-84313500I268750J0D01*
G01*
G37*
%TD*%
%TO.C,R8*%
G36*
G01*
X136234250Y-86188500D02*
X137196750Y-86188500D01*
G75*
G02*
X137465500Y-86457250I0J-268750D01*
G01*
X137465500Y-86994750D01*
G75*
G02*
X137196750Y-87263500I-268750J0D01*
G01*
X136234250Y-87263500D01*
G75*
G02*
X135965500Y-86994750I0J268750D01*
G01*
X135965500Y-86457250D01*
G75*
G02*
X136234250Y-86188500I268750J0D01*
G01*
G37*
G36*
G01*
X136234250Y-84313500D02*
X137196750Y-84313500D01*
G75*
G02*
X137465500Y-84582250I0J-268750D01*
G01*
X137465500Y-85119750D01*
G75*
G02*
X137196750Y-85388500I-268750J0D01*
G01*
X136234250Y-85388500D01*
G75*
G02*
X135965500Y-85119750I0J268750D01*
G01*
X135965500Y-84582250D01*
G75*
G02*
X136234250Y-84313500I268750J0D01*
G01*
G37*
%TD*%
%TO.C,R9*%
G36*
G01*
X143872000Y-73178750D02*
X143872000Y-74141250D01*
G75*
G02*
X143603250Y-74410000I-268750J0D01*
G01*
X143065750Y-74410000D01*
G75*
G02*
X142797000Y-74141250I0J268750D01*
G01*
X142797000Y-73178750D01*
G75*
G02*
X143065750Y-72910000I268750J0D01*
G01*
X143603250Y-72910000D01*
G75*
G02*
X143872000Y-73178750I0J-268750D01*
G01*
G37*
G36*
G01*
X145747000Y-73178750D02*
X145747000Y-74141250D01*
G75*
G02*
X145478250Y-74410000I-268750J0D01*
G01*
X144940750Y-74410000D01*
G75*
G02*
X144672000Y-74141250I0J268750D01*
G01*
X144672000Y-73178750D01*
G75*
G02*
X144940750Y-72910000I268750J0D01*
G01*
X145478250Y-72910000D01*
G75*
G02*
X145747000Y-73178750I0J-268750D01*
G01*
G37*
%TD*%
%TO.C,R10*%
G36*
G01*
X145314750Y-70758000D02*
X146277250Y-70758000D01*
G75*
G02*
X146546000Y-71026750I0J-268750D01*
G01*
X146546000Y-71564250D01*
G75*
G02*
X146277250Y-71833000I-268750J0D01*
G01*
X145314750Y-71833000D01*
G75*
G02*
X145046000Y-71564250I0J268750D01*
G01*
X145046000Y-71026750D01*
G75*
G02*
X145314750Y-70758000I268750J0D01*
G01*
G37*
G36*
G01*
X145314750Y-68883000D02*
X146277250Y-68883000D01*
G75*
G02*
X146546000Y-69151750I0J-268750D01*
G01*
X146546000Y-69689250D01*
G75*
G02*
X146277250Y-69958000I-268750J0D01*
G01*
X145314750Y-69958000D01*
G75*
G02*
X145046000Y-69689250I0J268750D01*
G01*
X145046000Y-69151750D01*
G75*
G02*
X145314750Y-68883000I268750J0D01*
G01*
G37*
%TD*%
%TO.C,R11*%
G36*
G01*
X148698000Y-69114750D02*
X148698000Y-70077250D01*
G75*
G02*
X148429250Y-70346000I-268750J0D01*
G01*
X147891750Y-70346000D01*
G75*
G02*
X147623000Y-70077250I0J268750D01*
G01*
X147623000Y-69114750D01*
G75*
G02*
X147891750Y-68846000I268750J0D01*
G01*
X148429250Y-68846000D01*
G75*
G02*
X148698000Y-69114750I0J-268750D01*
G01*
G37*
G36*
G01*
X150573000Y-69114750D02*
X150573000Y-70077250D01*
G75*
G02*
X150304250Y-70346000I-268750J0D01*
G01*
X149766750Y-70346000D01*
G75*
G02*
X149498000Y-70077250I0J268750D01*
G01*
X149498000Y-69114750D01*
G75*
G02*
X149766750Y-68846000I268750J0D01*
G01*
X150304250Y-68846000D01*
G75*
G02*
X150573000Y-69114750I0J-268750D01*
G01*
G37*
%TD*%
%TO.C,R12*%
G36*
G01*
X153524000Y-77496750D02*
X153524000Y-78459250D01*
G75*
G02*
X153255250Y-78728000I-268750J0D01*
G01*
X152717750Y-78728000D01*
G75*
G02*
X152449000Y-78459250I0J268750D01*
G01*
X152449000Y-77496750D01*
G75*
G02*
X152717750Y-77228000I268750J0D01*
G01*
X153255250Y-77228000D01*
G75*
G02*
X153524000Y-77496750I0J-268750D01*
G01*
G37*
G36*
G01*
X155399000Y-77496750D02*
X155399000Y-78459250D01*
G75*
G02*
X155130250Y-78728000I-268750J0D01*
G01*
X154592750Y-78728000D01*
G75*
G02*
X154324000Y-78459250I0J268750D01*
G01*
X154324000Y-77496750D01*
G75*
G02*
X154592750Y-77228000I268750J0D01*
G01*
X155130250Y-77228000D01*
G75*
G02*
X155399000Y-77496750I0J-268750D01*
G01*
G37*
%TD*%
%TO.C,R13*%
G36*
G01*
X157207000Y-74321750D02*
X157207000Y-75284250D01*
G75*
G02*
X156938250Y-75553000I-268750J0D01*
G01*
X156400750Y-75553000D01*
G75*
G02*
X156132000Y-75284250I0J268750D01*
G01*
X156132000Y-74321750D01*
G75*
G02*
X156400750Y-74053000I268750J0D01*
G01*
X156938250Y-74053000D01*
G75*
G02*
X157207000Y-74321750I0J-268750D01*
G01*
G37*
G36*
G01*
X159082000Y-74321750D02*
X159082000Y-75284250D01*
G75*
G02*
X158813250Y-75553000I-268750J0D01*
G01*
X158275750Y-75553000D01*
G75*
G02*
X158007000Y-75284250I0J268750D01*
G01*
X158007000Y-74321750D01*
G75*
G02*
X158275750Y-74053000I268750J0D01*
G01*
X158813250Y-74053000D01*
G75*
G02*
X159082000Y-74321750I0J-268750D01*
G01*
G37*
%TD*%
%TO.C,R14*%
G36*
G01*
X160247250Y-77260500D02*
X159284750Y-77260500D01*
G75*
G02*
X159016000Y-76991750I0J268750D01*
G01*
X159016000Y-76454250D01*
G75*
G02*
X159284750Y-76185500I268750J0D01*
G01*
X160247250Y-76185500D01*
G75*
G02*
X160516000Y-76454250I0J-268750D01*
G01*
X160516000Y-76991750D01*
G75*
G02*
X160247250Y-77260500I-268750J0D01*
G01*
G37*
G36*
G01*
X160247250Y-79135500D02*
X159284750Y-79135500D01*
G75*
G02*
X159016000Y-78866750I0J268750D01*
G01*
X159016000Y-78329250D01*
G75*
G02*
X159284750Y-78060500I268750J0D01*
G01*
X160247250Y-78060500D01*
G75*
G02*
X160516000Y-78329250I0J-268750D01*
G01*
X160516000Y-78866750D01*
G75*
G02*
X160247250Y-79135500I-268750J0D01*
G01*
G37*
%TD*%
%TO.C,R16*%
G36*
G01*
X141624000Y-82269250D02*
X141624000Y-81306750D01*
G75*
G02*
X141892750Y-81038000I268750J0D01*
G01*
X142430250Y-81038000D01*
G75*
G02*
X142699000Y-81306750I0J-268750D01*
G01*
X142699000Y-82269250D01*
G75*
G02*
X142430250Y-82538000I-268750J0D01*
G01*
X141892750Y-82538000D01*
G75*
G02*
X141624000Y-82269250I0J268750D01*
G01*
G37*
G36*
G01*
X139749000Y-82269250D02*
X139749000Y-81306750D01*
G75*
G02*
X140017750Y-81038000I268750J0D01*
G01*
X140555250Y-81038000D01*
G75*
G02*
X140824000Y-81306750I0J-268750D01*
G01*
X140824000Y-82269250D01*
G75*
G02*
X140555250Y-82538000I-268750J0D01*
G01*
X140017750Y-82538000D01*
G75*
G02*
X139749000Y-82269250I0J268750D01*
G01*
G37*
%TD*%
D13*
%TO.C,U6*%
X145662650Y-83835999D03*
X145662650Y-84336001D03*
X145662650Y-84836000D03*
X145662650Y-85335999D03*
X145662650Y-85836001D03*
X141357350Y-85836001D03*
X141357350Y-85335999D03*
X141357350Y-84836000D03*
X141357350Y-84336001D03*
X141357350Y-83835999D03*
%TD*%
%TO.C,U7*%
X145916650Y-92979999D03*
X145916650Y-93480001D03*
X145916650Y-93980000D03*
X145916650Y-94479999D03*
X145916650Y-94980001D03*
X141611350Y-94980001D03*
X141611350Y-94479999D03*
X141611350Y-93980000D03*
X141611350Y-93480001D03*
X141611350Y-92979999D03*
%TD*%
D14*
%TO.C,U3*%
X153252000Y-72009000D03*
X153252000Y-73279000D03*
X153252000Y-74549000D03*
X153252000Y-75819000D03*
X147992000Y-75819000D03*
X147992000Y-74549000D03*
X147992000Y-73279000D03*
X147992000Y-72009000D03*
%TD*%
D15*
%TO.C,H1*%
X158369000Y-70104000D03*
%TD*%
%TO.C,H2*%
X158369000Y-101981000D03*
%TD*%
%TO.C,H3*%
X104775000Y-102235000D03*
%TD*%
%TO.C,J3*%
G36*
G01*
X110770000Y-78625000D02*
X110770000Y-76825000D01*
G75*
G02*
X111670000Y-75925000I900000J0D01*
G01*
X113470000Y-75925000D01*
G75*
G02*
X114370000Y-76825000I0J-900000D01*
G01*
X114370000Y-78625000D01*
G75*
G02*
X113470000Y-79525000I-900000J0D01*
G01*
X111670000Y-79525000D01*
G75*
G02*
X110770000Y-78625000I0J900000D01*
G01*
G37*
G36*
G01*
X108020000Y-74050000D02*
X108020000Y-72000000D01*
G75*
G02*
X108795000Y-71225000I775000J0D01*
G01*
X110345000Y-71225000D01*
G75*
G02*
X111120000Y-72000000I0J-775000D01*
G01*
X111120000Y-74050000D01*
G75*
G02*
X110345000Y-74825000I-775000J0D01*
G01*
X108795000Y-74825000D01*
G75*
G02*
X108020000Y-74050000I0J775000D01*
G01*
G37*
D16*
X115570000Y-73025000D03*
%TD*%
%TO.C,C22*%
G36*
G01*
X117247750Y-78695500D02*
X118210250Y-78695500D01*
G75*
G02*
X118479000Y-78964250I0J-268750D01*
G01*
X118479000Y-79501750D01*
G75*
G02*
X118210250Y-79770500I-268750J0D01*
G01*
X117247750Y-79770500D01*
G75*
G02*
X116979000Y-79501750I0J268750D01*
G01*
X116979000Y-78964250D01*
G75*
G02*
X117247750Y-78695500I268750J0D01*
G01*
G37*
G36*
G01*
X117247750Y-76820500D02*
X118210250Y-76820500D01*
G75*
G02*
X118479000Y-77089250I0J-268750D01*
G01*
X118479000Y-77626750D01*
G75*
G02*
X118210250Y-77895500I-268750J0D01*
G01*
X117247750Y-77895500D01*
G75*
G02*
X116979000Y-77626750I0J268750D01*
G01*
X116979000Y-77089250D01*
G75*
G02*
X117247750Y-76820500I268750J0D01*
G01*
G37*
%TD*%
%TO.C,C23*%
G36*
G01*
X122155000Y-78004750D02*
X122155000Y-78967250D01*
G75*
G02*
X121886250Y-79236000I-268750J0D01*
G01*
X121348750Y-79236000D01*
G75*
G02*
X121080000Y-78967250I0J268750D01*
G01*
X121080000Y-78004750D01*
G75*
G02*
X121348750Y-77736000I268750J0D01*
G01*
X121886250Y-77736000D01*
G75*
G02*
X122155000Y-78004750I0J-268750D01*
G01*
G37*
G36*
G01*
X124030000Y-78004750D02*
X124030000Y-78967250D01*
G75*
G02*
X123761250Y-79236000I-268750J0D01*
G01*
X123223750Y-79236000D01*
G75*
G02*
X122955000Y-78967250I0J268750D01*
G01*
X122955000Y-78004750D01*
G75*
G02*
X123223750Y-77736000I268750J0D01*
G01*
X123761250Y-77736000D01*
G75*
G02*
X124030000Y-78004750I0J-268750D01*
G01*
G37*
%TD*%
D12*
%TO.C,U4*%
X123952000Y-82296000D03*
X126492000Y-82296000D03*
X134112000Y-97536000D03*
X118872000Y-82296000D03*
X108712000Y-97536000D03*
X108712000Y-82296000D03*
X113792000Y-82296000D03*
X129032000Y-82296000D03*
X129032000Y-97536000D03*
X126492000Y-97536000D03*
X136652000Y-82296000D03*
X121412000Y-82296000D03*
X123952000Y-97536000D03*
X106172000Y-97536000D03*
X103632000Y-97536000D03*
X134112000Y-82296000D03*
X116332000Y-97536000D03*
X111252000Y-97536000D03*
X131572000Y-97536000D03*
X106172000Y-82296000D03*
X116332000Y-82296000D03*
X113792000Y-97536000D03*
X118872000Y-97536000D03*
X131572000Y-82296000D03*
X103632000Y-82296000D03*
X121412000Y-97536000D03*
X136652000Y-97536000D03*
X111252000Y-82296000D03*
%TD*%
D10*
%TO.C,J1*%
X131114800Y-69900800D03*
%TD*%
%TO.C,J2*%
X131114800Y-72440800D03*
%TD*%
D17*
%TO.C,J4*%
X140398500Y-72009000D03*
X140398500Y-74549000D03*
D10*
X140398500Y-69469000D03*
%TD*%
D17*
%TO.C,J5*%
X135128000Y-102108000D03*
X137668000Y-102108000D03*
D10*
X132588000Y-102108000D03*
%TD*%
%TO.C,U1*%
X136588500Y-79121000D03*
D17*
X134048500Y-79121000D03*
X128968500Y-79121000D03*
X126428500Y-79121000D03*
X131508500Y-79121000D03*
%TD*%
%TO.C,C9*%
G36*
G01*
X150031500Y-92292250D02*
X150031500Y-93254750D01*
G75*
G02*
X149762750Y-93523500I-268750J0D01*
G01*
X149225250Y-93523500D01*
G75*
G02*
X148956500Y-93254750I0J268750D01*
G01*
X148956500Y-92292250D01*
G75*
G02*
X149225250Y-92023500I268750J0D01*
G01*
X149762750Y-92023500D01*
G75*
G02*
X150031500Y-92292250I0J-268750D01*
G01*
G37*
G36*
G01*
X151906500Y-92292250D02*
X151906500Y-93254750D01*
G75*
G02*
X151637750Y-93523500I-268750J0D01*
G01*
X151100250Y-93523500D01*
G75*
G02*
X150831500Y-93254750I0J268750D01*
G01*
X150831500Y-92292250D01*
G75*
G02*
X151100250Y-92023500I268750J0D01*
G01*
X151637750Y-92023500D01*
G75*
G02*
X151906500Y-92292250I0J-268750D01*
G01*
G37*
%TD*%
%TO.C,C12*%
G36*
G01*
X150018800Y-94463950D02*
X150018800Y-95426450D01*
G75*
G02*
X149750050Y-95695200I-268750J0D01*
G01*
X149212550Y-95695200D01*
G75*
G02*
X148943800Y-95426450I0J268750D01*
G01*
X148943800Y-94463950D01*
G75*
G02*
X149212550Y-94195200I268750J0D01*
G01*
X149750050Y-94195200D01*
G75*
G02*
X150018800Y-94463950I0J-268750D01*
G01*
G37*
G36*
G01*
X151893800Y-94463950D02*
X151893800Y-95426450D01*
G75*
G02*
X151625050Y-95695200I-268750J0D01*
G01*
X151087550Y-95695200D01*
G75*
G02*
X150818800Y-95426450I0J268750D01*
G01*
X150818800Y-94463950D01*
G75*
G02*
X151087550Y-94195200I268750J0D01*
G01*
X151625050Y-94195200D01*
G75*
G02*
X151893800Y-94463950I0J-268750D01*
G01*
G37*
%TD*%
%TO.C,C24*%
G36*
G01*
X156846350Y-92246400D02*
X157808850Y-92246400D01*
G75*
G02*
X158077600Y-92515150I0J-268750D01*
G01*
X158077600Y-93052650D01*
G75*
G02*
X157808850Y-93321400I-268750J0D01*
G01*
X156846350Y-93321400D01*
G75*
G02*
X156577600Y-93052650I0J268750D01*
G01*
X156577600Y-92515150D01*
G75*
G02*
X156846350Y-92246400I268750J0D01*
G01*
G37*
G36*
G01*
X156846350Y-90371400D02*
X157808850Y-90371400D01*
G75*
G02*
X158077600Y-90640150I0J-268750D01*
G01*
X158077600Y-91177650D01*
G75*
G02*
X157808850Y-91446400I-268750J0D01*
G01*
X156846350Y-91446400D01*
G75*
G02*
X156577600Y-91177650I0J268750D01*
G01*
X156577600Y-90640150D01*
G75*
G02*
X156846350Y-90371400I268750J0D01*
G01*
G37*
%TD*%
%TO.C,C25*%
G36*
G01*
X157859650Y-95104000D02*
X156897150Y-95104000D01*
G75*
G02*
X156628400Y-94835250I0J268750D01*
G01*
X156628400Y-94297750D01*
G75*
G02*
X156897150Y-94029000I268750J0D01*
G01*
X157859650Y-94029000D01*
G75*
G02*
X158128400Y-94297750I0J-268750D01*
G01*
X158128400Y-94835250D01*
G75*
G02*
X157859650Y-95104000I-268750J0D01*
G01*
G37*
G36*
G01*
X157859650Y-96979000D02*
X156897150Y-96979000D01*
G75*
G02*
X156628400Y-96710250I0J268750D01*
G01*
X156628400Y-96172750D01*
G75*
G02*
X156897150Y-95904000I268750J0D01*
G01*
X157859650Y-95904000D01*
G75*
G02*
X158128400Y-96172750I0J-268750D01*
G01*
X158128400Y-96710250D01*
G75*
G02*
X157859650Y-96979000I-268750J0D01*
G01*
G37*
%TD*%
%TO.C,C26*%
G36*
G01*
X155726050Y-81489600D02*
X154763550Y-81489600D01*
G75*
G02*
X154494800Y-81220850I0J268750D01*
G01*
X154494800Y-80683350D01*
G75*
G02*
X154763550Y-80414600I268750J0D01*
G01*
X155726050Y-80414600D01*
G75*
G02*
X155994800Y-80683350I0J-268750D01*
G01*
X155994800Y-81220850D01*
G75*
G02*
X155726050Y-81489600I-268750J0D01*
G01*
G37*
G36*
G01*
X155726050Y-83364600D02*
X154763550Y-83364600D01*
G75*
G02*
X154494800Y-83095850I0J268750D01*
G01*
X154494800Y-82558350D01*
G75*
G02*
X154763550Y-82289600I268750J0D01*
G01*
X155726050Y-82289600D01*
G75*
G02*
X155994800Y-82558350I0J-268750D01*
G01*
X155994800Y-83095850D01*
G75*
G02*
X155726050Y-83364600I-268750J0D01*
G01*
G37*
%TD*%
%TO.C,C27*%
G36*
G01*
X152982850Y-81489600D02*
X152020350Y-81489600D01*
G75*
G02*
X151751600Y-81220850I0J268750D01*
G01*
X151751600Y-80683350D01*
G75*
G02*
X152020350Y-80414600I268750J0D01*
G01*
X152982850Y-80414600D01*
G75*
G02*
X153251600Y-80683350I0J-268750D01*
G01*
X153251600Y-81220850D01*
G75*
G02*
X152982850Y-81489600I-268750J0D01*
G01*
G37*
G36*
G01*
X152982850Y-83364600D02*
X152020350Y-83364600D01*
G75*
G02*
X151751600Y-83095850I0J268750D01*
G01*
X151751600Y-82558350D01*
G75*
G02*
X152020350Y-82289600I268750J0D01*
G01*
X152982850Y-82289600D01*
G75*
G02*
X153251600Y-82558350I0J-268750D01*
G01*
X153251600Y-83095850D01*
G75*
G02*
X152982850Y-83364600I-268750J0D01*
G01*
G37*
%TD*%
%TO.C,R15*%
G36*
G01*
X153744850Y-91446400D02*
X152782350Y-91446400D01*
G75*
G02*
X152513600Y-91177650I0J268750D01*
G01*
X152513600Y-90640150D01*
G75*
G02*
X152782350Y-90371400I268750J0D01*
G01*
X153744850Y-90371400D01*
G75*
G02*
X154013600Y-90640150I0J-268750D01*
G01*
X154013600Y-91177650D01*
G75*
G02*
X153744850Y-91446400I-268750J0D01*
G01*
G37*
G36*
G01*
X153744850Y-93321400D02*
X152782350Y-93321400D01*
G75*
G02*
X152513600Y-93052650I0J268750D01*
G01*
X152513600Y-92515150D01*
G75*
G02*
X152782350Y-92246400I268750J0D01*
G01*
X153744850Y-92246400D01*
G75*
G02*
X154013600Y-92515150I0J-268750D01*
G01*
X154013600Y-93052650D01*
G75*
G02*
X153744850Y-93321400I-268750J0D01*
G01*
G37*
%TD*%
%TO.C,R17*%
G36*
G01*
X152782350Y-95904000D02*
X153744850Y-95904000D01*
G75*
G02*
X154013600Y-96172750I0J-268750D01*
G01*
X154013600Y-96710250D01*
G75*
G02*
X153744850Y-96979000I-268750J0D01*
G01*
X152782350Y-96979000D01*
G75*
G02*
X152513600Y-96710250I0J268750D01*
G01*
X152513600Y-96172750D01*
G75*
G02*
X152782350Y-95904000I268750J0D01*
G01*
G37*
G36*
G01*
X152782350Y-94029000D02*
X153744850Y-94029000D01*
G75*
G02*
X154013600Y-94297750I0J-268750D01*
G01*
X154013600Y-94835250D01*
G75*
G02*
X153744850Y-95104000I-268750J0D01*
G01*
X152782350Y-95104000D01*
G75*
G02*
X152513600Y-94835250I0J268750D01*
G01*
X152513600Y-94297750D01*
G75*
G02*
X152782350Y-94029000I268750J0D01*
G01*
G37*
%TD*%
%TO.C,R18*%
G36*
G01*
X154814350Y-92246400D02*
X155776850Y-92246400D01*
G75*
G02*
X156045600Y-92515150I0J-268750D01*
G01*
X156045600Y-93052650D01*
G75*
G02*
X155776850Y-93321400I-268750J0D01*
G01*
X154814350Y-93321400D01*
G75*
G02*
X154545600Y-93052650I0J268750D01*
G01*
X154545600Y-92515150D01*
G75*
G02*
X154814350Y-92246400I268750J0D01*
G01*
G37*
G36*
G01*
X154814350Y-90371400D02*
X155776850Y-90371400D01*
G75*
G02*
X156045600Y-90640150I0J-268750D01*
G01*
X156045600Y-91177650D01*
G75*
G02*
X155776850Y-91446400I-268750J0D01*
G01*
X154814350Y-91446400D01*
G75*
G02*
X154545600Y-91177650I0J268750D01*
G01*
X154545600Y-90640150D01*
G75*
G02*
X154814350Y-90371400I268750J0D01*
G01*
G37*
%TD*%
%TO.C,R19*%
G36*
G01*
X155776850Y-95104000D02*
X154814350Y-95104000D01*
G75*
G02*
X154545600Y-94835250I0J268750D01*
G01*
X154545600Y-94297750D01*
G75*
G02*
X154814350Y-94029000I268750J0D01*
G01*
X155776850Y-94029000D01*
G75*
G02*
X156045600Y-94297750I0J-268750D01*
G01*
X156045600Y-94835250D01*
G75*
G02*
X155776850Y-95104000I-268750J0D01*
G01*
G37*
G36*
G01*
X155776850Y-96979000D02*
X154814350Y-96979000D01*
G75*
G02*
X154545600Y-96710250I0J268750D01*
G01*
X154545600Y-96172750D01*
G75*
G02*
X154814350Y-95904000I268750J0D01*
G01*
X155776850Y-95904000D01*
G75*
G02*
X156045600Y-96172750I0J-268750D01*
G01*
X156045600Y-96710250D01*
G75*
G02*
X155776850Y-96979000I-268750J0D01*
G01*
G37*
%TD*%
D10*
%TO.C,J13*%
X119888000Y-102108000D03*
%TD*%
%TO.C,J14*%
X114808000Y-102108000D03*
%TD*%
%TO.C,J15*%
X124968000Y-102108000D03*
%TD*%
D18*
%TO.C,U2*%
X120572500Y-75540000D03*
X125172500Y-75540000D03*
X122872500Y-75540000D03*
D19*
X122872500Y-69240000D03*
%TD*%
M02*
