%TF.GenerationSoftware,KiCad,Pcbnew,(5.1.6)-1*%
%TF.CreationDate,2020-12-22T10:56:42-08:00*%
%TF.ProjectId,Digimuser_Board,44696769-6d75-4736-9572-5f426f617264,rev?*%
%TF.SameCoordinates,Original*%
%TF.FileFunction,Soldermask,Bot*%
%TF.FilePolarity,Negative*%
%FSLAX46Y46*%
G04 Gerber Fmt 4.6, Leading zero omitted, Abs format (unit mm)*
G04 Created by KiCad (PCBNEW (5.1.6)-1) date 2020-12-22 10:56:42*
%MOMM*%
%LPD*%
G01*
G04 APERTURE LIST*
%ADD10R,1.800000X1.800000*%
%ADD11O,1.700000X1.700000*%
%ADD12C,1.700000*%
%ADD13C,4.500000*%
%ADD14R,3.600000X3.600000*%
%ADD15O,1.800000X1.800000*%
%ADD16R,3.900000X2.100000*%
G04 APERTURE END LIST*
D10*
%TO.C,J12*%
X112268000Y-102108000D03*
%TD*%
%TO.C,J11*%
X140208000Y-102108000D03*
%TD*%
%TO.C,J10*%
X109728000Y-102108000D03*
%TD*%
%TO.C,J9*%
X122428000Y-102108000D03*
%TD*%
%TO.C,J8*%
X117348000Y-102108000D03*
%TD*%
%TO.C,J7*%
X158851600Y-86918800D03*
%TD*%
%TO.C,J6*%
X155194000Y-86918800D03*
%TD*%
D11*
%TO.C,C13*%
X153194400Y-100279200D03*
D12*
X145694400Y-100279200D03*
%TD*%
D13*
%TO.C,H1*%
X158369000Y-70104000D03*
%TD*%
%TO.C,H2*%
X158369000Y-101981000D03*
%TD*%
%TO.C,H3*%
X104775000Y-102235000D03*
%TD*%
%TO.C,J3*%
G36*
G01*
X110770000Y-78625000D02*
X110770000Y-76825000D01*
G75*
G02*
X111670000Y-75925000I900000J0D01*
G01*
X113470000Y-75925000D01*
G75*
G02*
X114370000Y-76825000I0J-900000D01*
G01*
X114370000Y-78625000D01*
G75*
G02*
X113470000Y-79525000I-900000J0D01*
G01*
X111670000Y-79525000D01*
G75*
G02*
X110770000Y-78625000I0J900000D01*
G01*
G37*
G36*
G01*
X108020000Y-74050000D02*
X108020000Y-72000000D01*
G75*
G02*
X108795000Y-71225000I775000J0D01*
G01*
X110345000Y-71225000D01*
G75*
G02*
X111120000Y-72000000I0J-775000D01*
G01*
X111120000Y-74050000D01*
G75*
G02*
X110345000Y-74825000I-775000J0D01*
G01*
X108795000Y-74825000D01*
G75*
G02*
X108020000Y-74050000I0J775000D01*
G01*
G37*
D14*
X115570000Y-73025000D03*
%TD*%
D12*
%TO.C,U4*%
X123952000Y-82296000D03*
X126492000Y-82296000D03*
X134112000Y-97536000D03*
X118872000Y-82296000D03*
X108712000Y-97536000D03*
X108712000Y-82296000D03*
X113792000Y-82296000D03*
X129032000Y-82296000D03*
X129032000Y-97536000D03*
X126492000Y-97536000D03*
X136652000Y-82296000D03*
X121412000Y-82296000D03*
X123952000Y-97536000D03*
X106172000Y-97536000D03*
X103632000Y-97536000D03*
X134112000Y-82296000D03*
X116332000Y-97536000D03*
X111252000Y-97536000D03*
X131572000Y-97536000D03*
X106172000Y-82296000D03*
X116332000Y-82296000D03*
X113792000Y-97536000D03*
X118872000Y-97536000D03*
X131572000Y-82296000D03*
X103632000Y-82296000D03*
X121412000Y-97536000D03*
X136652000Y-97536000D03*
X111252000Y-82296000D03*
%TD*%
D10*
%TO.C,J1*%
X131114800Y-69900800D03*
%TD*%
%TO.C,J2*%
X131114800Y-72440800D03*
%TD*%
D15*
%TO.C,J4*%
X140398500Y-72009000D03*
X140398500Y-74549000D03*
D10*
X140398500Y-69469000D03*
%TD*%
D15*
%TO.C,J5*%
X135128000Y-102108000D03*
X137668000Y-102108000D03*
D10*
X132588000Y-102108000D03*
%TD*%
%TO.C,U1*%
X136588500Y-79121000D03*
D15*
X134048500Y-79121000D03*
X128968500Y-79121000D03*
X126428500Y-79121000D03*
X131508500Y-79121000D03*
%TD*%
D16*
%TO.C,TP1*%
X146812000Y-71628000D03*
%TD*%
%TO.C,TP2*%
X153606500Y-78740000D03*
%TD*%
%TO.C,TP3*%
X145415000Y-89725500D03*
%TD*%
%TO.C,TP4*%
X146304000Y-96469200D03*
%TD*%
D10*
%TO.C,J13*%
X119888000Y-102108000D03*
%TD*%
%TO.C,J14*%
X114808000Y-102108000D03*
%TD*%
%TO.C,J15*%
X124968000Y-102108000D03*
%TD*%
M02*
