M48
; DRILL file {KiCad (5.1.6)-1} date 12/22/20 10:56:18
; FORMAT={-:-/ absolute / metric / decimal}
; #@! TF.CreationDate,2020-12-22T10:56:18-08:00
; #@! TF.GenerationSoftware,Kicad,Pcbnew,(5.1.6)-1
FMAT,2
METRIC
T1C0.300
T2C0.400
T3C0.500
T4C0.800
T5C1.000
T6C1.100
T7C2.200
%
G90
G05
T1
X114.205Y-85.249
X116.891Y-84.531
X118.808Y-84.709
X120.142Y-84.138
X138.303Y-85.28
X138.748Y-84.138
X138.748Y-84.836
X139.954Y-83.566
X147.066Y-85.852
X147.523Y-92.05
X156.909Y-84.709
T2
X104.394Y-72.339
X105.664Y-73.0
X105.715Y-71.78
X114.808Y-88.29
X115.57Y-89.103
X118.745Y-87.122
X118.821Y-92.456
X119.583Y-93.269
X119.634Y-78.232
X119.634Y-88.138
X120.523Y-89.027
X121.818Y-94.285
X124.409Y-86.665
X127.61Y-89.51
X128.778Y-89.51
X129.476Y-92.265
X130.099Y-89.51
X136.779Y-89.916
X136.779Y-91.186
X138.43Y-91.186
X139.802Y-91.186
X143.954Y-93.98
X146.939Y-68.278
X147.066Y-83.439
X147.879Y-98.908
X148.184Y-94.488
X149.504Y-97.536
X150.035Y-68.087
X154.862Y-76.532
X155.035Y-74.39
T3
X133.921Y-73.596
X143.065Y-76.517
X147.511Y-93.472
X148.653Y-91.186
X150.51Y-82.218
X154.94Y-72.898
T4
X145.694Y-100.279
X153.194Y-100.279
T5
X140.208Y-102.108
X122.428Y-102.108
X109.728Y-102.108
X119.888Y-102.108
X117.348Y-102.108
X132.588Y-102.108
X135.128Y-102.108
X137.668Y-102.108
X131.115Y-72.441
X155.194Y-86.919
X131.115Y-69.901
X124.968Y-102.108
X112.268Y-102.108
X126.428Y-79.121
X128.969Y-79.121
X131.508Y-79.121
X134.048Y-79.121
X136.588Y-79.121
X114.808Y-102.108
X140.398Y-69.469
X140.398Y-72.009
X140.398Y-74.549
X158.852Y-86.919
T6
X103.632Y-82.296
X103.632Y-97.536
X106.172Y-82.296
X106.172Y-97.536
X108.712Y-82.296
X108.712Y-97.536
X111.252Y-82.296
X111.252Y-97.536
X113.792Y-82.296
X113.792Y-97.536
X116.332Y-82.296
X116.332Y-97.536
X118.872Y-82.296
X118.872Y-97.536
X121.412Y-82.296
X121.412Y-97.536
X123.952Y-82.296
X123.952Y-97.536
X126.492Y-82.296
X126.492Y-97.536
X129.032Y-82.296
X129.032Y-97.536
X131.572Y-82.296
X131.572Y-97.536
X134.112Y-82.296
X134.112Y-97.536
X136.652Y-82.296
X136.652Y-97.536
T7
X158.369Y-101.981
X158.369Y-70.104
X104.775Y-102.235
T5
G00X109.57Y-72.025
M15
G01X109.57Y-74.025
M16
G05
G00X111.57Y-77.725
M15
G01X113.57Y-77.725
M16
G05
G00X115.57Y-72.025
M15
G01X115.57Y-74.025
M16
G05
T0
M30
