%TF.GenerationSoftware,KiCad,Pcbnew,(5.1.6)-1*%
%TF.CreationDate,2020-12-22T10:56:42-08:00*%
%TF.ProjectId,Digimuser_Board,44696769-6d75-4736-9572-5f426f617264,rev?*%
%TF.SameCoordinates,Original*%
%TF.FileFunction,Legend,Top*%
%TF.FilePolarity,Positive*%
%FSLAX46Y46*%
G04 Gerber Fmt 4.6, Leading zero omitted, Abs format (unit mm)*
G04 Created by KiCad (PCBNEW (5.1.6)-1) date 2020-12-22 10:56:42*
%MOMM*%
%LPD*%
G01*
G04 APERTURE LIST*
%ADD10C,0.120000*%
%ADD11C,0.150000*%
%ADD12C,0.100000*%
%ADD13C,0.152400*%
%ADD14C,0.127000*%
%ADD15C,0.200000*%
G04 APERTURE END LIST*
D10*
X126238000Y-103632000D02*
X126238000Y-100634800D01*
X121158000Y-103632000D02*
X126238000Y-103632000D01*
X121158000Y-100634800D02*
X126238000Y-100634800D01*
X121158000Y-103632000D02*
X121158000Y-100634800D01*
X116078000Y-103632000D02*
X121158000Y-103632000D01*
X116078000Y-100634800D02*
X121158000Y-100634800D01*
X116078000Y-103632000D02*
X116078000Y-100634800D01*
D11*
X128484666Y-75001380D02*
X128484666Y-74001380D01*
X128818000Y-74715666D01*
X129151333Y-74001380D01*
X129151333Y-75001380D01*
X129627523Y-75001380D02*
X129627523Y-74001380D01*
X130675142Y-74906142D02*
X130627523Y-74953761D01*
X130484666Y-75001380D01*
X130389428Y-75001380D01*
X130246571Y-74953761D01*
X130151333Y-74858523D01*
X130103714Y-74763285D01*
X130056095Y-74572809D01*
X130056095Y-74429952D01*
X130103714Y-74239476D01*
X130151333Y-74144238D01*
X130246571Y-74049000D01*
X130389428Y-74001380D01*
X130484666Y-74001380D01*
X130627523Y-74049000D01*
X130675142Y-74096619D01*
X130865619Y-75096619D02*
X131627523Y-75096619D01*
X131865619Y-75001380D02*
X131865619Y-74001380D01*
X132341809Y-75001380D02*
X132341809Y-74001380D01*
X132913238Y-75001380D01*
X132913238Y-74001380D01*
X133389428Y-74620428D02*
X134151333Y-74620428D01*
D12*
X102920095Y-83464047D02*
X103136761Y-84114047D01*
X103353428Y-83464047D01*
X103570095Y-84114047D02*
X103570095Y-83464047D01*
X103879619Y-84114047D02*
X103879619Y-83464047D01*
X104251047Y-84114047D01*
X104251047Y-83464047D01*
X105625961Y-83495000D02*
X105564057Y-83464047D01*
X105471200Y-83464047D01*
X105378342Y-83495000D01*
X105316438Y-83556904D01*
X105285485Y-83618809D01*
X105254533Y-83742619D01*
X105254533Y-83835476D01*
X105285485Y-83959285D01*
X105316438Y-84021190D01*
X105378342Y-84083095D01*
X105471200Y-84114047D01*
X105533104Y-84114047D01*
X105625961Y-84083095D01*
X105656914Y-84052142D01*
X105656914Y-83835476D01*
X105533104Y-83835476D01*
X105935485Y-84114047D02*
X105935485Y-83464047D01*
X106306914Y-84114047D01*
X106306914Y-83464047D01*
X106616438Y-84114047D02*
X106616438Y-83464047D01*
X106771200Y-83464047D01*
X106864057Y-83495000D01*
X106925961Y-83556904D01*
X106956914Y-83618809D01*
X106987866Y-83742619D01*
X106987866Y-83835476D01*
X106956914Y-83959285D01*
X106925961Y-84021190D01*
X106864057Y-84083095D01*
X106771200Y-84114047D01*
X106616438Y-84114047D01*
X107701676Y-83464047D02*
X108104057Y-83464047D01*
X107887390Y-83711666D01*
X107980247Y-83711666D01*
X108042152Y-83742619D01*
X108073104Y-83773571D01*
X108104057Y-83835476D01*
X108104057Y-83990238D01*
X108073104Y-84052142D01*
X108042152Y-84083095D01*
X107980247Y-84114047D01*
X107794533Y-84114047D01*
X107732628Y-84083095D01*
X107701676Y-84052142D01*
X108382628Y-84052142D02*
X108413580Y-84083095D01*
X108382628Y-84114047D01*
X108351676Y-84083095D01*
X108382628Y-84052142D01*
X108382628Y-84114047D01*
X108630247Y-83464047D02*
X109032628Y-83464047D01*
X108815961Y-83711666D01*
X108908819Y-83711666D01*
X108970723Y-83742619D01*
X109001676Y-83773571D01*
X109032628Y-83835476D01*
X109032628Y-83990238D01*
X109001676Y-84052142D01*
X108970723Y-84083095D01*
X108908819Y-84114047D01*
X108723104Y-84114047D01*
X108661200Y-84083095D01*
X108630247Y-84052142D01*
X109218342Y-83464047D02*
X109435009Y-84114047D01*
X109651676Y-83464047D01*
X110705961Y-83475152D02*
X110736914Y-83444200D01*
X110798819Y-83413247D01*
X110953580Y-83413247D01*
X111015485Y-83444200D01*
X111046438Y-83475152D01*
X111077390Y-83537057D01*
X111077390Y-83598961D01*
X111046438Y-83691819D01*
X110675009Y-84063247D01*
X111077390Y-84063247D01*
X111294057Y-83413247D02*
X111696438Y-83413247D01*
X111479771Y-83660866D01*
X111572628Y-83660866D01*
X111634533Y-83691819D01*
X111665485Y-83722771D01*
X111696438Y-83784676D01*
X111696438Y-83939438D01*
X111665485Y-84001342D01*
X111634533Y-84032295D01*
X111572628Y-84063247D01*
X111386914Y-84063247D01*
X111325009Y-84032295D01*
X111294057Y-84001342D01*
X113296761Y-83525952D02*
X113327714Y-83495000D01*
X113389619Y-83464047D01*
X113544380Y-83464047D01*
X113606285Y-83495000D01*
X113637238Y-83525952D01*
X113668190Y-83587857D01*
X113668190Y-83649761D01*
X113637238Y-83742619D01*
X113265809Y-84114047D01*
X113668190Y-84114047D01*
X113915809Y-83525952D02*
X113946761Y-83495000D01*
X114008666Y-83464047D01*
X114163428Y-83464047D01*
X114225333Y-83495000D01*
X114256285Y-83525952D01*
X114287238Y-83587857D01*
X114287238Y-83649761D01*
X114256285Y-83742619D01*
X113884857Y-84114047D01*
X114287238Y-84114047D01*
X115785961Y-83475152D02*
X115816914Y-83444200D01*
X115878819Y-83413247D01*
X116033580Y-83413247D01*
X116095485Y-83444200D01*
X116126438Y-83475152D01*
X116157390Y-83537057D01*
X116157390Y-83598961D01*
X116126438Y-83691819D01*
X115755009Y-84063247D01*
X116157390Y-84063247D01*
X116776438Y-84063247D02*
X116405009Y-84063247D01*
X116590723Y-84063247D02*
X116590723Y-83413247D01*
X116528819Y-83506104D01*
X116466914Y-83568009D01*
X116405009Y-83598961D01*
X118325961Y-83424352D02*
X118356914Y-83393400D01*
X118418819Y-83362447D01*
X118573580Y-83362447D01*
X118635485Y-83393400D01*
X118666438Y-83424352D01*
X118697390Y-83486257D01*
X118697390Y-83548161D01*
X118666438Y-83641019D01*
X118295009Y-84012447D01*
X118697390Y-84012447D01*
X119099771Y-83362447D02*
X119161676Y-83362447D01*
X119223580Y-83393400D01*
X119254533Y-83424352D01*
X119285485Y-83486257D01*
X119316438Y-83610066D01*
X119316438Y-83764828D01*
X119285485Y-83888638D01*
X119254533Y-83950542D01*
X119223580Y-83981495D01*
X119161676Y-84012447D01*
X119099771Y-84012447D01*
X119037866Y-83981495D01*
X119006914Y-83950542D01*
X118975961Y-83888638D01*
X118945009Y-83764828D01*
X118945009Y-83610066D01*
X118975961Y-83486257D01*
X119006914Y-83424352D01*
X119037866Y-83393400D01*
X119099771Y-83362447D01*
X121237390Y-84114047D02*
X120865961Y-84114047D01*
X121051676Y-84114047D02*
X121051676Y-83464047D01*
X120989771Y-83556904D01*
X120927866Y-83618809D01*
X120865961Y-83649761D01*
X121546914Y-84114047D02*
X121670723Y-84114047D01*
X121732628Y-84083095D01*
X121763580Y-84052142D01*
X121825485Y-83959285D01*
X121856438Y-83835476D01*
X121856438Y-83587857D01*
X121825485Y-83525952D01*
X121794533Y-83495000D01*
X121732628Y-83464047D01*
X121608819Y-83464047D01*
X121546914Y-83495000D01*
X121515961Y-83525952D01*
X121485009Y-83587857D01*
X121485009Y-83742619D01*
X121515961Y-83804523D01*
X121546914Y-83835476D01*
X121608819Y-83866428D01*
X121732628Y-83866428D01*
X121794533Y-83835476D01*
X121825485Y-83804523D01*
X121856438Y-83742619D01*
X123828190Y-84114047D02*
X123456761Y-84114047D01*
X123642476Y-84114047D02*
X123642476Y-83464047D01*
X123580571Y-83556904D01*
X123518666Y-83618809D01*
X123456761Y-83649761D01*
X124199619Y-83742619D02*
X124137714Y-83711666D01*
X124106761Y-83680714D01*
X124075809Y-83618809D01*
X124075809Y-83587857D01*
X124106761Y-83525952D01*
X124137714Y-83495000D01*
X124199619Y-83464047D01*
X124323428Y-83464047D01*
X124385333Y-83495000D01*
X124416285Y-83525952D01*
X124447238Y-83587857D01*
X124447238Y-83618809D01*
X124416285Y-83680714D01*
X124385333Y-83711666D01*
X124323428Y-83742619D01*
X124199619Y-83742619D01*
X124137714Y-83773571D01*
X124106761Y-83804523D01*
X124075809Y-83866428D01*
X124075809Y-83990238D01*
X124106761Y-84052142D01*
X124137714Y-84083095D01*
X124199619Y-84114047D01*
X124323428Y-84114047D01*
X124385333Y-84083095D01*
X124416285Y-84052142D01*
X124447238Y-83990238D01*
X124447238Y-83866428D01*
X124416285Y-83804523D01*
X124385333Y-83773571D01*
X124323428Y-83742619D01*
X126418990Y-84063247D02*
X126047561Y-84063247D01*
X126233276Y-84063247D02*
X126233276Y-83413247D01*
X126171371Y-83506104D01*
X126109466Y-83568009D01*
X126047561Y-83598961D01*
X126635657Y-83413247D02*
X127068990Y-83413247D01*
X126790419Y-84063247D01*
X128908190Y-84063247D02*
X128536761Y-84063247D01*
X128722476Y-84063247D02*
X128722476Y-83413247D01*
X128660571Y-83506104D01*
X128598666Y-83568009D01*
X128536761Y-83598961D01*
X129465333Y-83413247D02*
X129341523Y-83413247D01*
X129279619Y-83444200D01*
X129248666Y-83475152D01*
X129186761Y-83568009D01*
X129155809Y-83691819D01*
X129155809Y-83939438D01*
X129186761Y-84001342D01*
X129217714Y-84032295D01*
X129279619Y-84063247D01*
X129403428Y-84063247D01*
X129465333Y-84032295D01*
X129496285Y-84001342D01*
X129527238Y-83939438D01*
X129527238Y-83784676D01*
X129496285Y-83722771D01*
X129465333Y-83691819D01*
X129403428Y-83660866D01*
X129279619Y-83660866D01*
X129217714Y-83691819D01*
X129186761Y-83722771D01*
X129155809Y-83784676D01*
X131346590Y-84063247D02*
X130975161Y-84063247D01*
X131160876Y-84063247D02*
X131160876Y-83413247D01*
X131098971Y-83506104D01*
X131037066Y-83568009D01*
X130975161Y-83598961D01*
X131934685Y-83413247D02*
X131625161Y-83413247D01*
X131594209Y-83722771D01*
X131625161Y-83691819D01*
X131687066Y-83660866D01*
X131841828Y-83660866D01*
X131903733Y-83691819D01*
X131934685Y-83722771D01*
X131965638Y-83784676D01*
X131965638Y-83939438D01*
X131934685Y-84001342D01*
X131903733Y-84032295D01*
X131841828Y-84063247D01*
X131687066Y-84063247D01*
X131625161Y-84032295D01*
X131594209Y-84001342D01*
X133988190Y-84063247D02*
X133616761Y-84063247D01*
X133802476Y-84063247D02*
X133802476Y-83413247D01*
X133740571Y-83506104D01*
X133678666Y-83568009D01*
X133616761Y-83598961D01*
X134545333Y-83629914D02*
X134545333Y-84063247D01*
X134390571Y-83382295D02*
X134235809Y-83846580D01*
X134638190Y-83846580D01*
X136578990Y-84063247D02*
X136207561Y-84063247D01*
X136393276Y-84063247D02*
X136393276Y-83413247D01*
X136331371Y-83506104D01*
X136269466Y-83568009D01*
X136207561Y-83598961D01*
X136795657Y-83413247D02*
X137198038Y-83413247D01*
X136981371Y-83660866D01*
X137074228Y-83660866D01*
X137136133Y-83691819D01*
X137167085Y-83722771D01*
X137198038Y-83784676D01*
X137198038Y-83939438D01*
X137167085Y-84001342D01*
X137136133Y-84032295D01*
X137074228Y-84063247D01*
X136888514Y-84063247D01*
X136826609Y-84032295D01*
X136795657Y-84001342D01*
X136477390Y-96204447D02*
X136105961Y-96204447D01*
X136291676Y-96204447D02*
X136291676Y-95554447D01*
X136229771Y-95647304D01*
X136167866Y-95709209D01*
X136105961Y-95740161D01*
X136725009Y-95616352D02*
X136755961Y-95585400D01*
X136817866Y-95554447D01*
X136972628Y-95554447D01*
X137034533Y-95585400D01*
X137065485Y-95616352D01*
X137096438Y-95678257D01*
X137096438Y-95740161D01*
X137065485Y-95833019D01*
X136694057Y-96204447D01*
X137096438Y-96204447D01*
X134038990Y-96204447D02*
X133667561Y-96204447D01*
X133853276Y-96204447D02*
X133853276Y-95554447D01*
X133791371Y-95647304D01*
X133729466Y-95709209D01*
X133667561Y-95740161D01*
X134658038Y-96204447D02*
X134286609Y-96204447D01*
X134472323Y-96204447D02*
X134472323Y-95554447D01*
X134410419Y-95647304D01*
X134348514Y-95709209D01*
X134286609Y-95740161D01*
X131448190Y-96306047D02*
X131076761Y-96306047D01*
X131262476Y-96306047D02*
X131262476Y-95656047D01*
X131200571Y-95748904D01*
X131138666Y-95810809D01*
X131076761Y-95841761D01*
X131850571Y-95656047D02*
X131912476Y-95656047D01*
X131974380Y-95687000D01*
X132005333Y-95717952D01*
X132036285Y-95779857D01*
X132067238Y-95903666D01*
X132067238Y-96058428D01*
X132036285Y-96182238D01*
X132005333Y-96244142D01*
X131974380Y-96275095D01*
X131912476Y-96306047D01*
X131850571Y-96306047D01*
X131788666Y-96275095D01*
X131757714Y-96244142D01*
X131726761Y-96182238D01*
X131695809Y-96058428D01*
X131695809Y-95903666D01*
X131726761Y-95779857D01*
X131757714Y-95717952D01*
X131788666Y-95687000D01*
X131850571Y-95656047D01*
X128958990Y-96255247D02*
X129082800Y-96255247D01*
X129144704Y-96224295D01*
X129175657Y-96193342D01*
X129237561Y-96100485D01*
X129268514Y-95976676D01*
X129268514Y-95729057D01*
X129237561Y-95667152D01*
X129206609Y-95636200D01*
X129144704Y-95605247D01*
X129020895Y-95605247D01*
X128958990Y-95636200D01*
X128928038Y-95667152D01*
X128897085Y-95729057D01*
X128897085Y-95883819D01*
X128928038Y-95945723D01*
X128958990Y-95976676D01*
X129020895Y-96007628D01*
X129144704Y-96007628D01*
X129206609Y-95976676D01*
X129237561Y-95945723D01*
X129268514Y-95883819D01*
X126430095Y-96036219D02*
X126368190Y-96005266D01*
X126337238Y-95974314D01*
X126306285Y-95912409D01*
X126306285Y-95881457D01*
X126337238Y-95819552D01*
X126368190Y-95788600D01*
X126430095Y-95757647D01*
X126553904Y-95757647D01*
X126615809Y-95788600D01*
X126646761Y-95819552D01*
X126677714Y-95881457D01*
X126677714Y-95912409D01*
X126646761Y-95974314D01*
X126615809Y-96005266D01*
X126553904Y-96036219D01*
X126430095Y-96036219D01*
X126368190Y-96067171D01*
X126337238Y-96098123D01*
X126306285Y-96160028D01*
X126306285Y-96283838D01*
X126337238Y-96345742D01*
X126368190Y-96376695D01*
X126430095Y-96407647D01*
X126553904Y-96407647D01*
X126615809Y-96376695D01*
X126646761Y-96345742D01*
X126677714Y-96283838D01*
X126677714Y-96160028D01*
X126646761Y-96098123D01*
X126615809Y-96067171D01*
X126553904Y-96036219D01*
X123786133Y-95808447D02*
X124219466Y-95808447D01*
X123940895Y-96458447D01*
X121535809Y-95656047D02*
X121412000Y-95656047D01*
X121350095Y-95687000D01*
X121319142Y-95717952D01*
X121257238Y-95810809D01*
X121226285Y-95934619D01*
X121226285Y-96182238D01*
X121257238Y-96244142D01*
X121288190Y-96275095D01*
X121350095Y-96306047D01*
X121473904Y-96306047D01*
X121535809Y-96275095D01*
X121566761Y-96244142D01*
X121597714Y-96182238D01*
X121597714Y-96027476D01*
X121566761Y-95965571D01*
X121535809Y-95934619D01*
X121473904Y-95903666D01*
X121350095Y-95903666D01*
X121288190Y-95934619D01*
X121257238Y-95965571D01*
X121226285Y-96027476D01*
X119077561Y-95656047D02*
X118768038Y-95656047D01*
X118737085Y-95965571D01*
X118768038Y-95934619D01*
X118829942Y-95903666D01*
X118984704Y-95903666D01*
X119046609Y-95934619D01*
X119077561Y-95965571D01*
X119108514Y-96027476D01*
X119108514Y-96182238D01*
X119077561Y-96244142D01*
X119046609Y-96275095D01*
X118984704Y-96306047D01*
X118829942Y-96306047D01*
X118768038Y-96275095D01*
X118737085Y-96244142D01*
X116506609Y-95872714D02*
X116506609Y-96306047D01*
X116351847Y-95625095D02*
X116197085Y-96089380D01*
X116599466Y-96089380D01*
X113575333Y-95656047D02*
X113977714Y-95656047D01*
X113761047Y-95903666D01*
X113853904Y-95903666D01*
X113915809Y-95934619D01*
X113946761Y-95965571D01*
X113977714Y-96027476D01*
X113977714Y-96182238D01*
X113946761Y-96244142D01*
X113915809Y-96275095D01*
X113853904Y-96306047D01*
X113668190Y-96306047D01*
X113606285Y-96275095D01*
X113575333Y-96244142D01*
X111117085Y-95717952D02*
X111148038Y-95687000D01*
X111209942Y-95656047D01*
X111364704Y-95656047D01*
X111426609Y-95687000D01*
X111457561Y-95717952D01*
X111488514Y-95779857D01*
X111488514Y-95841761D01*
X111457561Y-95934619D01*
X111086133Y-96306047D01*
X111488514Y-96306047D01*
X108897714Y-96306047D02*
X108526285Y-96306047D01*
X108712000Y-96306047D02*
X108712000Y-95656047D01*
X108650095Y-95748904D01*
X108588190Y-95810809D01*
X108526285Y-95841761D01*
X106039447Y-95656047D02*
X106101352Y-95656047D01*
X106163257Y-95687000D01*
X106194209Y-95717952D01*
X106225161Y-95779857D01*
X106256114Y-95903666D01*
X106256114Y-96058428D01*
X106225161Y-96182238D01*
X106194209Y-96244142D01*
X106163257Y-96275095D01*
X106101352Y-96306047D01*
X106039447Y-96306047D01*
X105977542Y-96275095D01*
X105946590Y-96244142D01*
X105915638Y-96182238D01*
X105884685Y-96058428D01*
X105884685Y-95903666D01*
X105915638Y-95779857D01*
X105946590Y-95717952D01*
X105977542Y-95687000D01*
X106039447Y-95656047D01*
X103085961Y-95687000D02*
X103024057Y-95656047D01*
X102931200Y-95656047D01*
X102838342Y-95687000D01*
X102776438Y-95748904D01*
X102745485Y-95810809D01*
X102714533Y-95934619D01*
X102714533Y-96027476D01*
X102745485Y-96151285D01*
X102776438Y-96213190D01*
X102838342Y-96275095D01*
X102931200Y-96306047D01*
X102993104Y-96306047D01*
X103085961Y-96275095D01*
X103116914Y-96244142D01*
X103116914Y-96027476D01*
X102993104Y-96027476D01*
X103395485Y-96306047D02*
X103395485Y-95656047D01*
X103766914Y-96306047D01*
X103766914Y-95656047D01*
X104076438Y-96306047D02*
X104076438Y-95656047D01*
X104231200Y-95656047D01*
X104324057Y-95687000D01*
X104385961Y-95748904D01*
X104416914Y-95810809D01*
X104447866Y-95934619D01*
X104447866Y-96027476D01*
X104416914Y-96151285D01*
X104385961Y-96213190D01*
X104324057Y-96275095D01*
X104231200Y-96306047D01*
X104076438Y-96306047D01*
D11*
X128506742Y-77058780D02*
X128173409Y-76582590D01*
X127935314Y-77058780D02*
X127935314Y-76058780D01*
X128316266Y-76058780D01*
X128411504Y-76106400D01*
X128459123Y-76154019D01*
X128506742Y-76249257D01*
X128506742Y-76392114D01*
X128459123Y-76487352D01*
X128411504Y-76534971D01*
X128316266Y-76582590D01*
X127935314Y-76582590D01*
X129125790Y-76058780D02*
X129316266Y-76058780D01*
X129411504Y-76106400D01*
X129506742Y-76201638D01*
X129554361Y-76392114D01*
X129554361Y-76725447D01*
X129506742Y-76915923D01*
X129411504Y-77011161D01*
X129316266Y-77058780D01*
X129125790Y-77058780D01*
X129030552Y-77011161D01*
X128935314Y-76915923D01*
X128887695Y-76725447D01*
X128887695Y-76392114D01*
X128935314Y-76201638D01*
X129030552Y-76106400D01*
X129125790Y-76058780D01*
X129840076Y-76058780D02*
X130411504Y-76058780D01*
X130125790Y-77058780D02*
X130125790Y-76058780D01*
X130697219Y-77011161D02*
X130840076Y-77058780D01*
X131078171Y-77058780D01*
X131173409Y-77011161D01*
X131221028Y-76963542D01*
X131268647Y-76868304D01*
X131268647Y-76773066D01*
X131221028Y-76677828D01*
X131173409Y-76630209D01*
X131078171Y-76582590D01*
X130887695Y-76534971D01*
X130792457Y-76487352D01*
X130744838Y-76439733D01*
X130697219Y-76344495D01*
X130697219Y-76249257D01*
X130744838Y-76154019D01*
X130792457Y-76106400D01*
X130887695Y-76058780D01*
X131125790Y-76058780D01*
X131268647Y-76106400D01*
X131601980Y-76058780D02*
X131840076Y-77058780D01*
X132030552Y-76344495D01*
X132221028Y-77058780D01*
X132459123Y-76058780D01*
X111506095Y-99195000D02*
X111410857Y-99147380D01*
X111268000Y-99147380D01*
X111125142Y-99195000D01*
X111029904Y-99290238D01*
X110982285Y-99385476D01*
X110934666Y-99575952D01*
X110934666Y-99718809D01*
X110982285Y-99909285D01*
X111029904Y-100004523D01*
X111125142Y-100099761D01*
X111268000Y-100147380D01*
X111363238Y-100147380D01*
X111506095Y-100099761D01*
X111553714Y-100052142D01*
X111553714Y-99718809D01*
X111363238Y-99718809D01*
X111982285Y-100147380D02*
X111982285Y-99147380D01*
X112553714Y-100147380D01*
X112553714Y-99147380D01*
X113029904Y-100147380D02*
X113029904Y-99147380D01*
X113268000Y-99147380D01*
X113410857Y-99195000D01*
X113506095Y-99290238D01*
X113553714Y-99385476D01*
X113601333Y-99575952D01*
X113601333Y-99718809D01*
X113553714Y-99909285D01*
X113506095Y-100004523D01*
X113410857Y-100099761D01*
X113268000Y-100147380D01*
X113029904Y-100147380D01*
D10*
X108458000Y-100634800D02*
X116078000Y-100634800D01*
X108458000Y-103632000D02*
X108458000Y-100634800D01*
X116078000Y-103632000D02*
X108458000Y-103632000D01*
D11*
X132464228Y-99648971D02*
X132607085Y-99696590D01*
X132654704Y-99744209D01*
X132702323Y-99839447D01*
X132702323Y-99982304D01*
X132654704Y-100077542D01*
X132607085Y-100125161D01*
X132511847Y-100172780D01*
X132130895Y-100172780D01*
X132130895Y-99172780D01*
X132464228Y-99172780D01*
X132559466Y-99220400D01*
X132607085Y-99268019D01*
X132654704Y-99363257D01*
X132654704Y-99458495D01*
X132607085Y-99553733D01*
X132559466Y-99601352D01*
X132464228Y-99648971D01*
X132130895Y-99648971D01*
X133130895Y-100172780D02*
X133130895Y-99172780D01*
X133511847Y-99172780D01*
X133607085Y-99220400D01*
X133654704Y-99268019D01*
X133702323Y-99363257D01*
X133702323Y-99506114D01*
X133654704Y-99601352D01*
X133607085Y-99648971D01*
X133511847Y-99696590D01*
X133130895Y-99696590D01*
X117345009Y-99071180D02*
X117964057Y-99071180D01*
X117630723Y-99452133D01*
X117773580Y-99452133D01*
X117868819Y-99499752D01*
X117916438Y-99547371D01*
X117964057Y-99642609D01*
X117964057Y-99880704D01*
X117916438Y-99975942D01*
X117868819Y-100023561D01*
X117773580Y-100071180D01*
X117487866Y-100071180D01*
X117392628Y-100023561D01*
X117345009Y-99975942D01*
X118392628Y-99975942D02*
X118440247Y-100023561D01*
X118392628Y-100071180D01*
X118345009Y-100023561D01*
X118392628Y-99975942D01*
X118392628Y-100071180D01*
X118773580Y-99071180D02*
X119392628Y-99071180D01*
X119059295Y-99452133D01*
X119202152Y-99452133D01*
X119297390Y-99499752D01*
X119345009Y-99547371D01*
X119392628Y-99642609D01*
X119392628Y-99880704D01*
X119345009Y-99975942D01*
X119297390Y-100023561D01*
X119202152Y-100071180D01*
X118916438Y-100071180D01*
X118821200Y-100023561D01*
X118773580Y-99975942D01*
X119678342Y-99071180D02*
X120011676Y-100071180D01*
X120345009Y-99071180D01*
X122055142Y-100071180D02*
X122055142Y-99071180D01*
X122436095Y-99071180D01*
X122531333Y-99118800D01*
X122578952Y-99166419D01*
X122626571Y-99261657D01*
X122626571Y-99404514D01*
X122578952Y-99499752D01*
X122531333Y-99547371D01*
X122436095Y-99594990D01*
X122055142Y-99594990D01*
X123245619Y-99071180D02*
X123436095Y-99071180D01*
X123531333Y-99118800D01*
X123626571Y-99214038D01*
X123674190Y-99404514D01*
X123674190Y-99737847D01*
X123626571Y-99928323D01*
X123531333Y-100023561D01*
X123436095Y-100071180D01*
X123245619Y-100071180D01*
X123150380Y-100023561D01*
X123055142Y-99928323D01*
X123007523Y-99737847D01*
X123007523Y-99404514D01*
X123055142Y-99214038D01*
X123150380Y-99118800D01*
X123245619Y-99071180D01*
X123959904Y-99071180D02*
X124531333Y-99071180D01*
X124245619Y-100071180D02*
X124245619Y-99071180D01*
X124817047Y-100023561D02*
X124959904Y-100071180D01*
X125198000Y-100071180D01*
X125293238Y-100023561D01*
X125340857Y-99975942D01*
X125388476Y-99880704D01*
X125388476Y-99785466D01*
X125340857Y-99690228D01*
X125293238Y-99642609D01*
X125198000Y-99594990D01*
X125007523Y-99547371D01*
X124912285Y-99499752D01*
X124864666Y-99452133D01*
X124817047Y-99356895D01*
X124817047Y-99261657D01*
X124864666Y-99166419D01*
X124912285Y-99118800D01*
X125007523Y-99071180D01*
X125245619Y-99071180D01*
X125388476Y-99118800D01*
X116510323Y-90308180D02*
X117081752Y-90308180D01*
X116796038Y-91308180D02*
X116796038Y-90308180D01*
X117415085Y-90784371D02*
X117748419Y-90784371D01*
X117891276Y-91308180D02*
X117415085Y-91308180D01*
X117415085Y-90308180D01*
X117891276Y-90308180D01*
X118319847Y-90784371D02*
X118653180Y-90784371D01*
X118796038Y-91308180D02*
X118319847Y-91308180D01*
X118319847Y-90308180D01*
X118796038Y-90308180D01*
X119224609Y-91308180D02*
X119224609Y-90308180D01*
X119796038Y-91308180D01*
X119796038Y-90308180D01*
X120224609Y-91260561D02*
X120367466Y-91308180D01*
X120605561Y-91308180D01*
X120700800Y-91260561D01*
X120748419Y-91212942D01*
X120796038Y-91117704D01*
X120796038Y-91022466D01*
X120748419Y-90927228D01*
X120700800Y-90879609D01*
X120605561Y-90831990D01*
X120415085Y-90784371D01*
X120319847Y-90736752D01*
X120272228Y-90689133D01*
X120224609Y-90593895D01*
X120224609Y-90498657D01*
X120272228Y-90403419D01*
X120319847Y-90355800D01*
X120415085Y-90308180D01*
X120653180Y-90308180D01*
X120796038Y-90355800D01*
X121415085Y-90831990D02*
X121415085Y-91308180D01*
X121081752Y-90308180D02*
X121415085Y-90831990D01*
X121748419Y-90308180D01*
X123272228Y-90641514D02*
X123272228Y-91308180D01*
X123034133Y-90260561D02*
X122796038Y-90974847D01*
X123415085Y-90974847D01*
X123796038Y-91212942D02*
X123843657Y-91260561D01*
X123796038Y-91308180D01*
X123748419Y-91260561D01*
X123796038Y-91212942D01*
X123796038Y-91308180D01*
X124462704Y-90308180D02*
X124557942Y-90308180D01*
X124653180Y-90355800D01*
X124700800Y-90403419D01*
X124748419Y-90498657D01*
X124796038Y-90689133D01*
X124796038Y-90927228D01*
X124748419Y-91117704D01*
X124700800Y-91212942D01*
X124653180Y-91260561D01*
X124557942Y-91308180D01*
X124462704Y-91308180D01*
X124367466Y-91260561D01*
X124319847Y-91212942D01*
X124272228Y-91117704D01*
X124224609Y-90927228D01*
X124224609Y-90689133D01*
X124272228Y-90498657D01*
X124319847Y-90403419D01*
X124367466Y-90355800D01*
X124462704Y-90308180D01*
X141636952Y-102119180D02*
X141827428Y-102119180D01*
X141922666Y-102166800D01*
X142017904Y-102262038D01*
X142065523Y-102452514D01*
X142065523Y-102785847D01*
X142017904Y-102976323D01*
X141922666Y-103071561D01*
X141827428Y-103119180D01*
X141636952Y-103119180D01*
X141541714Y-103071561D01*
X141446476Y-102976323D01*
X141398857Y-102785847D01*
X141398857Y-102452514D01*
X141446476Y-102262038D01*
X141541714Y-102166800D01*
X141636952Y-102119180D01*
X142494095Y-102119180D02*
X142494095Y-102928704D01*
X142541714Y-103023942D01*
X142589333Y-103071561D01*
X142684571Y-103119180D01*
X142875047Y-103119180D01*
X142970285Y-103071561D01*
X143017904Y-103023942D01*
X143065523Y-102928704D01*
X143065523Y-102119180D01*
X143398857Y-102119180D02*
X143970285Y-102119180D01*
X143684571Y-103119180D02*
X143684571Y-102119180D01*
X144303619Y-102738228D02*
X145065523Y-102738228D01*
X144684571Y-103119180D02*
X144684571Y-102357276D01*
X137175928Y-68572071D02*
X137318785Y-68619690D01*
X137366404Y-68667309D01*
X137414023Y-68762547D01*
X137414023Y-68905404D01*
X137366404Y-69000642D01*
X137318785Y-69048261D01*
X137223547Y-69095880D01*
X136842595Y-69095880D01*
X136842595Y-68095880D01*
X137175928Y-68095880D01*
X137271166Y-68143500D01*
X137318785Y-68191119D01*
X137366404Y-68286357D01*
X137366404Y-68381595D01*
X137318785Y-68476833D01*
X137271166Y-68524452D01*
X137175928Y-68572071D01*
X136842595Y-68572071D01*
X137842595Y-69095880D02*
X137842595Y-68095880D01*
X138223547Y-68095880D01*
X138318785Y-68143500D01*
X138366404Y-68191119D01*
X138414023Y-68286357D01*
X138414023Y-68429214D01*
X138366404Y-68524452D01*
X138318785Y-68572071D01*
X138223547Y-68619690D01*
X137842595Y-68619690D01*
X128687866Y-68219580D02*
X128687866Y-67219580D01*
X129021200Y-67933866D01*
X129354533Y-67219580D01*
X129354533Y-68219580D01*
X129830723Y-68219580D02*
X129830723Y-67219580D01*
X130878342Y-68124342D02*
X130830723Y-68171961D01*
X130687866Y-68219580D01*
X130592628Y-68219580D01*
X130449771Y-68171961D01*
X130354533Y-68076723D01*
X130306914Y-67981485D01*
X130259295Y-67791009D01*
X130259295Y-67648152D01*
X130306914Y-67457676D01*
X130354533Y-67362438D01*
X130449771Y-67267200D01*
X130592628Y-67219580D01*
X130687866Y-67219580D01*
X130830723Y-67267200D01*
X130878342Y-67314819D01*
X131068819Y-68314819D02*
X131830723Y-68314819D01*
X132068819Y-68219580D02*
X132068819Y-67219580D01*
X132545009Y-68219580D02*
X132545009Y-67219580D01*
X133116438Y-68219580D01*
X133116438Y-67219580D01*
X133592628Y-67838628D02*
X134354533Y-67838628D01*
X133973580Y-68219580D02*
X133973580Y-67457676D01*
D10*
%TO.C,C13*%
X152154400Y-100279200D02*
X152114400Y-100279200D01*
X146734400Y-100279200D02*
X146774400Y-100279200D01*
X152114400Y-98609200D02*
X146774400Y-98609200D01*
X152114400Y-101949200D02*
X152114400Y-98609200D01*
X146774400Y-101949200D02*
X152114400Y-101949200D01*
X146774400Y-98609200D02*
X146774400Y-101949200D01*
%TO.C,C1*%
X136847078Y-70727500D02*
X136329922Y-70727500D01*
X136847078Y-72147500D02*
X136329922Y-72147500D01*
%TO.C,C2*%
X143505422Y-79958000D02*
X144022578Y-79958000D01*
X143505422Y-78538000D02*
X144022578Y-78538000D01*
%TO.C,C3*%
X144220000Y-70616578D02*
X144220000Y-70099422D01*
X142800000Y-70616578D02*
X142800000Y-70099422D01*
%TO.C,C4*%
X153420578Y-69013000D02*
X152903422Y-69013000D01*
X153420578Y-70433000D02*
X152903422Y-70433000D01*
%TO.C,C5*%
X150372578Y-77268000D02*
X149855422Y-77268000D01*
X150372578Y-78688000D02*
X149855422Y-78688000D01*
%TO.C,C6*%
X156135000Y-77338422D02*
X156135000Y-77855578D01*
X157555000Y-77338422D02*
X157555000Y-77855578D01*
%TO.C,C7*%
X138736000Y-96134422D02*
X138736000Y-96651578D01*
X140156000Y-96134422D02*
X140156000Y-96651578D01*
%TO.C,C8*%
X138482000Y-86863422D02*
X138482000Y-87380578D01*
X139902000Y-86863422D02*
X139902000Y-87380578D01*
%TO.C,C10*%
X142108422Y-97992000D02*
X142625578Y-97992000D01*
X142108422Y-96572000D02*
X142625578Y-96572000D01*
%TO.C,C11*%
X140895000Y-88387422D02*
X140895000Y-88904578D01*
X142315000Y-88387422D02*
X142315000Y-88904578D01*
%TO.C,C14*%
X147522000Y-81538578D02*
X147522000Y-81021422D01*
X146102000Y-81538578D02*
X146102000Y-81021422D01*
%TO.C,C15*%
X149300000Y-86110578D02*
X149300000Y-85593422D01*
X147880000Y-86110578D02*
X147880000Y-85593422D01*
%TO.C,C16*%
X145800578Y-89841000D02*
X145283422Y-89841000D01*
X145800578Y-91261000D02*
X145283422Y-91261000D01*
%TO.C,C17*%
X145410422Y-88594000D02*
X145927578Y-88594000D01*
X145410422Y-87174000D02*
X145927578Y-87174000D01*
%TO.C,C18*%
X156922400Y-80970622D02*
X156922400Y-81487778D01*
X158342400Y-80970622D02*
X158342400Y-81487778D01*
%TO.C,C19*%
X149347422Y-90245000D02*
X149864578Y-90245000D01*
X149347422Y-88825000D02*
X149864578Y-88825000D01*
%TO.C,C20*%
X149808000Y-81538578D02*
X149808000Y-81021422D01*
X148388000Y-81538578D02*
X148388000Y-81021422D01*
%TO.C,C21*%
X151586000Y-86110578D02*
X151586000Y-85593422D01*
X150166000Y-86110578D02*
X150166000Y-85593422D01*
%TO.C,R1*%
X136329922Y-74306500D02*
X136847078Y-74306500D01*
X136329922Y-72886500D02*
X136847078Y-72886500D01*
%TO.C,R2*%
X136847078Y-75045500D02*
X136329922Y-75045500D01*
X136847078Y-76465500D02*
X136329922Y-76465500D01*
%TO.C,R3*%
X125845500Y-85593422D02*
X125845500Y-86110578D01*
X127265500Y-85593422D02*
X127265500Y-86110578D01*
%TO.C,R4*%
X128195000Y-85593422D02*
X128195000Y-86110578D01*
X129615000Y-85593422D02*
X129615000Y-86110578D01*
%TO.C,R5*%
X130735000Y-85593422D02*
X130735000Y-86110578D01*
X132155000Y-85593422D02*
X132155000Y-86110578D01*
%TO.C,R6*%
X139498000Y-78227422D02*
X139498000Y-78744578D01*
X140918000Y-78227422D02*
X140918000Y-78744578D01*
%TO.C,R7*%
X133338500Y-85529922D02*
X133338500Y-86047078D01*
X134758500Y-85529922D02*
X134758500Y-86047078D01*
%TO.C,R8*%
X136005500Y-85529922D02*
X136005500Y-86047078D01*
X137425500Y-85529922D02*
X137425500Y-86047078D01*
%TO.C,R9*%
X144530578Y-72950000D02*
X144013422Y-72950000D01*
X144530578Y-74370000D02*
X144013422Y-74370000D01*
%TO.C,R10*%
X145086000Y-70099422D02*
X145086000Y-70616578D01*
X146506000Y-70099422D02*
X146506000Y-70616578D01*
%TO.C,R11*%
X149356578Y-68886000D02*
X148839422Y-68886000D01*
X149356578Y-70306000D02*
X148839422Y-70306000D01*
%TO.C,R12*%
X154182578Y-77268000D02*
X153665422Y-77268000D01*
X154182578Y-78688000D02*
X153665422Y-78688000D01*
%TO.C,R13*%
X157865578Y-74093000D02*
X157348422Y-74093000D01*
X157865578Y-75513000D02*
X157348422Y-75513000D01*
%TO.C,R14*%
X160476000Y-77919078D02*
X160476000Y-77401922D01*
X159056000Y-77919078D02*
X159056000Y-77401922D01*
%TO.C,R16*%
X140965422Y-82498000D02*
X141482578Y-82498000D01*
X140965422Y-81078000D02*
X141482578Y-81078000D01*
D13*
%TO.C,U6*%
X146570700Y-83645499D02*
X146824700Y-83645499D01*
X146570700Y-84026499D02*
X146570700Y-83645499D01*
X146824700Y-84026499D02*
X146570700Y-84026499D01*
X146824700Y-83645499D02*
X146824700Y-84026499D01*
X145135600Y-83210400D02*
X141884400Y-83210400D01*
X141884400Y-86461600D02*
X145135600Y-86461600D01*
%TO.C,U7*%
X146824700Y-92789499D02*
X147078700Y-92789499D01*
X146824700Y-93170499D02*
X146824700Y-92789499D01*
X147078700Y-93170499D02*
X146824700Y-93170499D01*
X147078700Y-92789499D02*
X147078700Y-93170499D01*
X145389600Y-92354400D02*
X142138400Y-92354400D01*
X142138400Y-95605600D02*
X145389600Y-95605600D01*
D14*
%TO.C,U3*%
X148622000Y-76437500D02*
X152622000Y-76437500D01*
X148622000Y-71390500D02*
X152622000Y-71390500D01*
D15*
X146442000Y-71469000D02*
G75*
G03*
X146442000Y-71469000I-100000J0D01*
G01*
D10*
%TO.C,J3*%
X116470000Y-68425000D02*
X116470000Y-71025000D01*
X101770000Y-68425000D02*
X116470000Y-68425000D01*
X116470000Y-77625000D02*
X114570000Y-77625000D01*
X116470000Y-74925000D02*
X116470000Y-77625000D01*
X101770000Y-77625000D02*
X101770000Y-68425000D01*
X110570000Y-77625000D02*
X101770000Y-77625000D01*
X115620000Y-68225000D02*
X116670000Y-68225000D01*
X116670000Y-69275000D02*
X116670000Y-68225000D01*
%TO.C,C22*%
X117019000Y-78036922D02*
X117019000Y-78554078D01*
X118439000Y-78036922D02*
X118439000Y-78554078D01*
%TO.C,C23*%
X122813578Y-77776000D02*
X122296422Y-77776000D01*
X122813578Y-79196000D02*
X122296422Y-79196000D01*
D11*
%TO.C,U4*%
X102362000Y-81026000D02*
X137922000Y-81026000D01*
X107442000Y-86106000D02*
X102362000Y-86106000D01*
X101092000Y-93726000D02*
X101092000Y-86106000D01*
X137922000Y-98806000D02*
X102362000Y-98806000D01*
X137922000Y-81026000D02*
X137922000Y-98806000D01*
X107442000Y-93726000D02*
X102362000Y-93726000D01*
X102362000Y-93726000D02*
X101092000Y-93726000D01*
X107442000Y-93726000D02*
X107442000Y-86106000D01*
X102362000Y-98806000D02*
X102362000Y-81026000D01*
X101092000Y-86106000D02*
X102362000Y-86106000D01*
D10*
%TO.C,J4*%
X141728500Y-70739000D02*
X141728500Y-75879000D01*
X139068500Y-68139000D02*
X140398500Y-68139000D01*
X139068500Y-75879000D02*
X141728500Y-75879000D01*
X139068500Y-70739000D02*
X141728500Y-70739000D01*
X139068500Y-69469000D02*
X139068500Y-68139000D01*
X139068500Y-70739000D02*
X139068500Y-75879000D01*
%TO.C,J5*%
X133858000Y-100778000D02*
X138998000Y-100778000D01*
X131258000Y-103438000D02*
X131258000Y-102108000D01*
X138998000Y-103438000D02*
X138998000Y-100778000D01*
X133858000Y-103438000D02*
X133858000Y-100778000D01*
X132588000Y-103438000D02*
X131258000Y-103438000D01*
X133858000Y-103438000D02*
X138998000Y-103438000D01*
%TO.C,U1*%
X135318500Y-80451000D02*
X125098500Y-80451000D01*
X125098500Y-77791000D02*
X125098500Y-80451000D01*
X135318500Y-77791000D02*
X135318500Y-80451000D01*
X137918500Y-77791000D02*
X137918500Y-79121000D01*
X135318500Y-77791000D02*
X125098500Y-77791000D01*
X136588500Y-77791000D02*
X137918500Y-77791000D01*
%TO.C,C9*%
X150690078Y-92063500D02*
X150172922Y-92063500D01*
X150690078Y-93483500D02*
X150172922Y-93483500D01*
%TO.C,C12*%
X150677378Y-94235200D02*
X150160222Y-94235200D01*
X150677378Y-95655200D02*
X150160222Y-95655200D01*
%TO.C,C24*%
X156617600Y-91587822D02*
X156617600Y-92104978D01*
X158037600Y-91587822D02*
X158037600Y-92104978D01*
%TO.C,C25*%
X158088400Y-95762578D02*
X158088400Y-95245422D01*
X156668400Y-95762578D02*
X156668400Y-95245422D01*
%TO.C,C26*%
X155954800Y-82148178D02*
X155954800Y-81631022D01*
X154534800Y-82148178D02*
X154534800Y-81631022D01*
%TO.C,C27*%
X153211600Y-82148178D02*
X153211600Y-81631022D01*
X151791600Y-82148178D02*
X151791600Y-81631022D01*
%TO.C,R15*%
X153973600Y-92104978D02*
X153973600Y-91587822D01*
X152553600Y-92104978D02*
X152553600Y-91587822D01*
%TO.C,R17*%
X152553600Y-95245422D02*
X152553600Y-95762578D01*
X153973600Y-95245422D02*
X153973600Y-95762578D01*
%TO.C,R18*%
X154585600Y-91587822D02*
X154585600Y-92104978D01*
X156005600Y-91587822D02*
X156005600Y-92104978D01*
%TO.C,R19*%
X156005600Y-95762578D02*
X156005600Y-95245422D01*
X154585600Y-95762578D02*
X154585600Y-95245422D01*
%TO.C,U2*%
X119462500Y-76490000D02*
X119462500Y-70480000D01*
X126282500Y-74240000D02*
X126282500Y-70480000D01*
X119462500Y-70480000D02*
X120722500Y-70480000D01*
X126282500Y-70480000D02*
X125022500Y-70480000D01*
%TO.C,J7*%
D11*
X158550800Y-84679285D02*
X158550800Y-85215000D01*
X158515085Y-85322142D01*
X158443657Y-85393571D01*
X158336514Y-85429285D01*
X158265085Y-85429285D01*
X158836514Y-84679285D02*
X159336514Y-84679285D01*
X159015085Y-85429285D01*
%TO.C,J6*%
X154969400Y-84730085D02*
X154969400Y-85265800D01*
X154933685Y-85372942D01*
X154862257Y-85444371D01*
X154755114Y-85480085D01*
X154683685Y-85480085D01*
X155647971Y-84730085D02*
X155505114Y-84730085D01*
X155433685Y-84765800D01*
X155397971Y-84801514D01*
X155326542Y-84908657D01*
X155290828Y-85051514D01*
X155290828Y-85337228D01*
X155326542Y-85408657D01*
X155362257Y-85444371D01*
X155433685Y-85480085D01*
X155576542Y-85480085D01*
X155647971Y-85444371D01*
X155683685Y-85408657D01*
X155719400Y-85337228D01*
X155719400Y-85158657D01*
X155683685Y-85087228D01*
X155647971Y-85051514D01*
X155576542Y-85015800D01*
X155433685Y-85015800D01*
X155362257Y-85051514D01*
X155326542Y-85087228D01*
X155290828Y-85158657D01*
%TO.C,C13*%
X148962257Y-100547057D02*
X148926542Y-100582771D01*
X148819400Y-100618485D01*
X148747971Y-100618485D01*
X148640828Y-100582771D01*
X148569400Y-100511342D01*
X148533685Y-100439914D01*
X148497971Y-100297057D01*
X148497971Y-100189914D01*
X148533685Y-100047057D01*
X148569400Y-99975628D01*
X148640828Y-99904200D01*
X148747971Y-99868485D01*
X148819400Y-99868485D01*
X148926542Y-99904200D01*
X148962257Y-99939914D01*
X149676542Y-100618485D02*
X149247971Y-100618485D01*
X149462257Y-100618485D02*
X149462257Y-99868485D01*
X149390828Y-99975628D01*
X149319400Y-100047057D01*
X149247971Y-100082771D01*
X149926542Y-99868485D02*
X150390828Y-99868485D01*
X150140828Y-100154200D01*
X150247971Y-100154200D01*
X150319400Y-100189914D01*
X150355114Y-100225628D01*
X150390828Y-100297057D01*
X150390828Y-100475628D01*
X150355114Y-100547057D01*
X150319400Y-100582771D01*
X150247971Y-100618485D01*
X150033685Y-100618485D01*
X149962257Y-100582771D01*
X149926542Y-100547057D01*
%TO.C,C1*%
X135193500Y-69990857D02*
X135157785Y-70026571D01*
X135050642Y-70062285D01*
X134979214Y-70062285D01*
X134872071Y-70026571D01*
X134800642Y-69955142D01*
X134764928Y-69883714D01*
X134729214Y-69740857D01*
X134729214Y-69633714D01*
X134764928Y-69490857D01*
X134800642Y-69419428D01*
X134872071Y-69348000D01*
X134979214Y-69312285D01*
X135050642Y-69312285D01*
X135157785Y-69348000D01*
X135193500Y-69383714D01*
X135907785Y-70062285D02*
X135479214Y-70062285D01*
X135693500Y-70062285D02*
X135693500Y-69312285D01*
X135622071Y-69419428D01*
X135550642Y-69490857D01*
X135479214Y-69526571D01*
%TO.C,C2*%
X144375600Y-81090657D02*
X144339885Y-81126371D01*
X144232742Y-81162085D01*
X144161314Y-81162085D01*
X144054171Y-81126371D01*
X143982742Y-81054942D01*
X143947028Y-80983514D01*
X143911314Y-80840657D01*
X143911314Y-80733514D01*
X143947028Y-80590657D01*
X143982742Y-80519228D01*
X144054171Y-80447800D01*
X144161314Y-80412085D01*
X144232742Y-80412085D01*
X144339885Y-80447800D01*
X144375600Y-80483514D01*
X144661314Y-80483514D02*
X144697028Y-80447800D01*
X144768457Y-80412085D01*
X144947028Y-80412085D01*
X145018457Y-80447800D01*
X145054171Y-80483514D01*
X145089885Y-80554942D01*
X145089885Y-80626371D01*
X145054171Y-80733514D01*
X144625600Y-81162085D01*
X145089885Y-81162085D01*
%TO.C,C3*%
X142877000Y-68428757D02*
X142841285Y-68464471D01*
X142734142Y-68500185D01*
X142662714Y-68500185D01*
X142555571Y-68464471D01*
X142484142Y-68393042D01*
X142448428Y-68321614D01*
X142412714Y-68178757D01*
X142412714Y-68071614D01*
X142448428Y-67928757D01*
X142484142Y-67857328D01*
X142555571Y-67785900D01*
X142662714Y-67750185D01*
X142734142Y-67750185D01*
X142841285Y-67785900D01*
X142877000Y-67821614D01*
X143127000Y-67750185D02*
X143591285Y-67750185D01*
X143341285Y-68035900D01*
X143448428Y-68035900D01*
X143519857Y-68071614D01*
X143555571Y-68107328D01*
X143591285Y-68178757D01*
X143591285Y-68357328D01*
X143555571Y-68428757D01*
X143519857Y-68464471D01*
X143448428Y-68500185D01*
X143234142Y-68500185D01*
X143162714Y-68464471D01*
X143127000Y-68428757D01*
%TO.C,C4*%
X153240200Y-68593857D02*
X153204485Y-68629571D01*
X153097342Y-68665285D01*
X153025914Y-68665285D01*
X152918771Y-68629571D01*
X152847342Y-68558142D01*
X152811628Y-68486714D01*
X152775914Y-68343857D01*
X152775914Y-68236714D01*
X152811628Y-68093857D01*
X152847342Y-68022428D01*
X152918771Y-67951000D01*
X153025914Y-67915285D01*
X153097342Y-67915285D01*
X153204485Y-67951000D01*
X153240200Y-67986714D01*
X153883057Y-68165285D02*
X153883057Y-68665285D01*
X153704485Y-67879571D02*
X153525914Y-68415285D01*
X153990200Y-68415285D01*
%TO.C,C5*%
X147385500Y-77737857D02*
X147349785Y-77773571D01*
X147242642Y-77809285D01*
X147171214Y-77809285D01*
X147064071Y-77773571D01*
X146992642Y-77702142D01*
X146956928Y-77630714D01*
X146921214Y-77487857D01*
X146921214Y-77380714D01*
X146956928Y-77237857D01*
X146992642Y-77166428D01*
X147064071Y-77095000D01*
X147171214Y-77059285D01*
X147242642Y-77059285D01*
X147349785Y-77095000D01*
X147385500Y-77130714D01*
X148064071Y-77059285D02*
X147706928Y-77059285D01*
X147671214Y-77416428D01*
X147706928Y-77380714D01*
X147778357Y-77345000D01*
X147956928Y-77345000D01*
X148028357Y-77380714D01*
X148064071Y-77416428D01*
X148099785Y-77487857D01*
X148099785Y-77666428D01*
X148064071Y-77737857D01*
X148028357Y-77773571D01*
X147956928Y-77809285D01*
X147778357Y-77809285D01*
X147706928Y-77773571D01*
X147671214Y-77737857D01*
%TO.C,C6*%
X155043600Y-79795257D02*
X155007885Y-79830971D01*
X154900742Y-79866685D01*
X154829314Y-79866685D01*
X154722171Y-79830971D01*
X154650742Y-79759542D01*
X154615028Y-79688114D01*
X154579314Y-79545257D01*
X154579314Y-79438114D01*
X154615028Y-79295257D01*
X154650742Y-79223828D01*
X154722171Y-79152400D01*
X154829314Y-79116685D01*
X154900742Y-79116685D01*
X155007885Y-79152400D01*
X155043600Y-79188114D01*
X155686457Y-79116685D02*
X155543600Y-79116685D01*
X155472171Y-79152400D01*
X155436457Y-79188114D01*
X155365028Y-79295257D01*
X155329314Y-79438114D01*
X155329314Y-79723828D01*
X155365028Y-79795257D01*
X155400742Y-79830971D01*
X155472171Y-79866685D01*
X155615028Y-79866685D01*
X155686457Y-79830971D01*
X155722171Y-79795257D01*
X155757885Y-79723828D01*
X155757885Y-79545257D01*
X155722171Y-79473828D01*
X155686457Y-79438114D01*
X155615028Y-79402400D01*
X155472171Y-79402400D01*
X155400742Y-79438114D01*
X155365028Y-79473828D01*
X155329314Y-79545257D01*
%TO.C,C7*%
X138914600Y-98972257D02*
X138878885Y-99007971D01*
X138771742Y-99043685D01*
X138700314Y-99043685D01*
X138593171Y-99007971D01*
X138521742Y-98936542D01*
X138486028Y-98865114D01*
X138450314Y-98722257D01*
X138450314Y-98615114D01*
X138486028Y-98472257D01*
X138521742Y-98400828D01*
X138593171Y-98329400D01*
X138700314Y-98293685D01*
X138771742Y-98293685D01*
X138878885Y-98329400D01*
X138914600Y-98365114D01*
X139164600Y-98293685D02*
X139664600Y-98293685D01*
X139343171Y-99043685D01*
%TO.C,C8*%
X139067000Y-89726657D02*
X139031285Y-89762371D01*
X138924142Y-89798085D01*
X138852714Y-89798085D01*
X138745571Y-89762371D01*
X138674142Y-89690942D01*
X138638428Y-89619514D01*
X138602714Y-89476657D01*
X138602714Y-89369514D01*
X138638428Y-89226657D01*
X138674142Y-89155228D01*
X138745571Y-89083800D01*
X138852714Y-89048085D01*
X138924142Y-89048085D01*
X139031285Y-89083800D01*
X139067000Y-89119514D01*
X139495571Y-89369514D02*
X139424142Y-89333800D01*
X139388428Y-89298085D01*
X139352714Y-89226657D01*
X139352714Y-89190942D01*
X139388428Y-89119514D01*
X139424142Y-89083800D01*
X139495571Y-89048085D01*
X139638428Y-89048085D01*
X139709857Y-89083800D01*
X139745571Y-89119514D01*
X139781285Y-89190942D01*
X139781285Y-89226657D01*
X139745571Y-89298085D01*
X139709857Y-89333800D01*
X139638428Y-89369514D01*
X139495571Y-89369514D01*
X139424142Y-89405228D01*
X139388428Y-89440942D01*
X139352714Y-89512371D01*
X139352714Y-89655228D01*
X139388428Y-89726657D01*
X139424142Y-89762371D01*
X139495571Y-89798085D01*
X139638428Y-89798085D01*
X139709857Y-89762371D01*
X139745571Y-89726657D01*
X139781285Y-89655228D01*
X139781285Y-89512371D01*
X139745571Y-89440942D01*
X139709857Y-89405228D01*
X139638428Y-89369514D01*
%TO.C,C10*%
X141186357Y-99073857D02*
X141150642Y-99109571D01*
X141043500Y-99145285D01*
X140972071Y-99145285D01*
X140864928Y-99109571D01*
X140793500Y-99038142D01*
X140757785Y-98966714D01*
X140722071Y-98823857D01*
X140722071Y-98716714D01*
X140757785Y-98573857D01*
X140793500Y-98502428D01*
X140864928Y-98431000D01*
X140972071Y-98395285D01*
X141043500Y-98395285D01*
X141150642Y-98431000D01*
X141186357Y-98466714D01*
X141900642Y-99145285D02*
X141472071Y-99145285D01*
X141686357Y-99145285D02*
X141686357Y-98395285D01*
X141614928Y-98502428D01*
X141543500Y-98573857D01*
X141472071Y-98609571D01*
X142364928Y-98395285D02*
X142436357Y-98395285D01*
X142507785Y-98431000D01*
X142543500Y-98466714D01*
X142579214Y-98538142D01*
X142614928Y-98681000D01*
X142614928Y-98859571D01*
X142579214Y-99002428D01*
X142543500Y-99073857D01*
X142507785Y-99109571D01*
X142436357Y-99145285D01*
X142364928Y-99145285D01*
X142293500Y-99109571D01*
X142257785Y-99073857D01*
X142222071Y-99002428D01*
X142186357Y-98859571D01*
X142186357Y-98681000D01*
X142222071Y-98538142D01*
X142257785Y-98466714D01*
X142293500Y-98431000D01*
X142364928Y-98395285D01*
%TO.C,C11*%
X141046657Y-91352257D02*
X141010942Y-91387971D01*
X140903800Y-91423685D01*
X140832371Y-91423685D01*
X140725228Y-91387971D01*
X140653800Y-91316542D01*
X140618085Y-91245114D01*
X140582371Y-91102257D01*
X140582371Y-90995114D01*
X140618085Y-90852257D01*
X140653800Y-90780828D01*
X140725228Y-90709400D01*
X140832371Y-90673685D01*
X140903800Y-90673685D01*
X141010942Y-90709400D01*
X141046657Y-90745114D01*
X141760942Y-91423685D02*
X141332371Y-91423685D01*
X141546657Y-91423685D02*
X141546657Y-90673685D01*
X141475228Y-90780828D01*
X141403800Y-90852257D01*
X141332371Y-90887971D01*
X142475228Y-91423685D02*
X142046657Y-91423685D01*
X142260942Y-91423685D02*
X142260942Y-90673685D01*
X142189514Y-90780828D01*
X142118085Y-90852257D01*
X142046657Y-90887971D01*
%TO.C,C14*%
X146456857Y-79198357D02*
X146421142Y-79234071D01*
X146314000Y-79269785D01*
X146242571Y-79269785D01*
X146135428Y-79234071D01*
X146064000Y-79162642D01*
X146028285Y-79091214D01*
X145992571Y-78948357D01*
X145992571Y-78841214D01*
X146028285Y-78698357D01*
X146064000Y-78626928D01*
X146135428Y-78555500D01*
X146242571Y-78519785D01*
X146314000Y-78519785D01*
X146421142Y-78555500D01*
X146456857Y-78591214D01*
X147171142Y-79269785D02*
X146742571Y-79269785D01*
X146956857Y-79269785D02*
X146956857Y-78519785D01*
X146885428Y-78626928D01*
X146814000Y-78698357D01*
X146742571Y-78734071D01*
X147814000Y-78769785D02*
X147814000Y-79269785D01*
X147635428Y-78484071D02*
X147456857Y-79019785D01*
X147921142Y-79019785D01*
%TO.C,C15*%
X148488857Y-88342357D02*
X148453142Y-88378071D01*
X148346000Y-88413785D01*
X148274571Y-88413785D01*
X148167428Y-88378071D01*
X148096000Y-88306642D01*
X148060285Y-88235214D01*
X148024571Y-88092357D01*
X148024571Y-87985214D01*
X148060285Y-87842357D01*
X148096000Y-87770928D01*
X148167428Y-87699500D01*
X148274571Y-87663785D01*
X148346000Y-87663785D01*
X148453142Y-87699500D01*
X148488857Y-87735214D01*
X149203142Y-88413785D02*
X148774571Y-88413785D01*
X148988857Y-88413785D02*
X148988857Y-87663785D01*
X148917428Y-87770928D01*
X148846000Y-87842357D01*
X148774571Y-87878071D01*
X149881714Y-87663785D02*
X149524571Y-87663785D01*
X149488857Y-88020928D01*
X149524571Y-87985214D01*
X149596000Y-87949500D01*
X149774571Y-87949500D01*
X149846000Y-87985214D01*
X149881714Y-88020928D01*
X149917428Y-88092357D01*
X149917428Y-88270928D01*
X149881714Y-88342357D01*
X149846000Y-88378071D01*
X149774571Y-88413785D01*
X149596000Y-88413785D01*
X149524571Y-88378071D01*
X149488857Y-88342357D01*
%TO.C,C16*%
X143625457Y-91007742D02*
X143661171Y-91043457D01*
X143696885Y-91150600D01*
X143696885Y-91222028D01*
X143661171Y-91329171D01*
X143589742Y-91400600D01*
X143518314Y-91436314D01*
X143375457Y-91472028D01*
X143268314Y-91472028D01*
X143125457Y-91436314D01*
X143054028Y-91400600D01*
X142982600Y-91329171D01*
X142946885Y-91222028D01*
X142946885Y-91150600D01*
X142982600Y-91043457D01*
X143018314Y-91007742D01*
X143696885Y-90293457D02*
X143696885Y-90722028D01*
X143696885Y-90507742D02*
X142946885Y-90507742D01*
X143054028Y-90579171D01*
X143125457Y-90650600D01*
X143161171Y-90722028D01*
X142946885Y-89650600D02*
X142946885Y-89793457D01*
X142982600Y-89864885D01*
X143018314Y-89900600D01*
X143125457Y-89972028D01*
X143268314Y-90007742D01*
X143554028Y-90007742D01*
X143625457Y-89972028D01*
X143661171Y-89936314D01*
X143696885Y-89864885D01*
X143696885Y-89722028D01*
X143661171Y-89650600D01*
X143625457Y-89614885D01*
X143554028Y-89579171D01*
X143375457Y-89579171D01*
X143304028Y-89614885D01*
X143268314Y-89650600D01*
X143232600Y-89722028D01*
X143232600Y-89864885D01*
X143268314Y-89936314D01*
X143304028Y-89972028D01*
X143375457Y-90007742D01*
%TO.C,C17*%
X143727057Y-88315342D02*
X143762771Y-88351057D01*
X143798485Y-88458200D01*
X143798485Y-88529628D01*
X143762771Y-88636771D01*
X143691342Y-88708200D01*
X143619914Y-88743914D01*
X143477057Y-88779628D01*
X143369914Y-88779628D01*
X143227057Y-88743914D01*
X143155628Y-88708200D01*
X143084200Y-88636771D01*
X143048485Y-88529628D01*
X143048485Y-88458200D01*
X143084200Y-88351057D01*
X143119914Y-88315342D01*
X143798485Y-87601057D02*
X143798485Y-88029628D01*
X143798485Y-87815342D02*
X143048485Y-87815342D01*
X143155628Y-87886771D01*
X143227057Y-87958200D01*
X143262771Y-88029628D01*
X143048485Y-87351057D02*
X143048485Y-86851057D01*
X143798485Y-87172485D01*
%TO.C,C18*%
X159334657Y-81954257D02*
X159298942Y-81989971D01*
X159191800Y-82025685D01*
X159120371Y-82025685D01*
X159013228Y-81989971D01*
X158941800Y-81918542D01*
X158906085Y-81847114D01*
X158870371Y-81704257D01*
X158870371Y-81597114D01*
X158906085Y-81454257D01*
X158941800Y-81382828D01*
X159013228Y-81311400D01*
X159120371Y-81275685D01*
X159191800Y-81275685D01*
X159298942Y-81311400D01*
X159334657Y-81347114D01*
X160048942Y-82025685D02*
X159620371Y-82025685D01*
X159834657Y-82025685D02*
X159834657Y-81275685D01*
X159763228Y-81382828D01*
X159691800Y-81454257D01*
X159620371Y-81489971D01*
X160477514Y-81597114D02*
X160406085Y-81561400D01*
X160370371Y-81525685D01*
X160334657Y-81454257D01*
X160334657Y-81418542D01*
X160370371Y-81347114D01*
X160406085Y-81311400D01*
X160477514Y-81275685D01*
X160620371Y-81275685D01*
X160691800Y-81311400D01*
X160727514Y-81347114D01*
X160763228Y-81418542D01*
X160763228Y-81454257D01*
X160727514Y-81525685D01*
X160691800Y-81561400D01*
X160620371Y-81597114D01*
X160477514Y-81597114D01*
X160406085Y-81632828D01*
X160370371Y-81668542D01*
X160334657Y-81739971D01*
X160334657Y-81882828D01*
X160370371Y-81954257D01*
X160406085Y-81989971D01*
X160477514Y-82025685D01*
X160620371Y-82025685D01*
X160691800Y-81989971D01*
X160727514Y-81954257D01*
X160763228Y-81882828D01*
X160763228Y-81739971D01*
X160727514Y-81668542D01*
X160691800Y-81632828D01*
X160620371Y-81597114D01*
%TO.C,C19*%
X151054257Y-88456657D02*
X151018542Y-88492371D01*
X150911400Y-88528085D01*
X150839971Y-88528085D01*
X150732828Y-88492371D01*
X150661400Y-88420942D01*
X150625685Y-88349514D01*
X150589971Y-88206657D01*
X150589971Y-88099514D01*
X150625685Y-87956657D01*
X150661400Y-87885228D01*
X150732828Y-87813800D01*
X150839971Y-87778085D01*
X150911400Y-87778085D01*
X151018542Y-87813800D01*
X151054257Y-87849514D01*
X151768542Y-88528085D02*
X151339971Y-88528085D01*
X151554257Y-88528085D02*
X151554257Y-87778085D01*
X151482828Y-87885228D01*
X151411400Y-87956657D01*
X151339971Y-87992371D01*
X152125685Y-88528085D02*
X152268542Y-88528085D01*
X152339971Y-88492371D01*
X152375685Y-88456657D01*
X152447114Y-88349514D01*
X152482828Y-88206657D01*
X152482828Y-87920942D01*
X152447114Y-87849514D01*
X152411400Y-87813800D01*
X152339971Y-87778085D01*
X152197114Y-87778085D01*
X152125685Y-87813800D01*
X152089971Y-87849514D01*
X152054257Y-87920942D01*
X152054257Y-88099514D01*
X152089971Y-88170942D01*
X152125685Y-88206657D01*
X152197114Y-88242371D01*
X152339971Y-88242371D01*
X152411400Y-88206657D01*
X152447114Y-88170942D01*
X152482828Y-88099514D01*
%TO.C,C20*%
X148158657Y-83935457D02*
X148122942Y-83971171D01*
X148015800Y-84006885D01*
X147944371Y-84006885D01*
X147837228Y-83971171D01*
X147765800Y-83899742D01*
X147730085Y-83828314D01*
X147694371Y-83685457D01*
X147694371Y-83578314D01*
X147730085Y-83435457D01*
X147765800Y-83364028D01*
X147837228Y-83292600D01*
X147944371Y-83256885D01*
X148015800Y-83256885D01*
X148122942Y-83292600D01*
X148158657Y-83328314D01*
X148444371Y-83328314D02*
X148480085Y-83292600D01*
X148551514Y-83256885D01*
X148730085Y-83256885D01*
X148801514Y-83292600D01*
X148837228Y-83328314D01*
X148872942Y-83399742D01*
X148872942Y-83471171D01*
X148837228Y-83578314D01*
X148408657Y-84006885D01*
X148872942Y-84006885D01*
X149337228Y-83256885D02*
X149408657Y-83256885D01*
X149480085Y-83292600D01*
X149515800Y-83328314D01*
X149551514Y-83399742D01*
X149587228Y-83542600D01*
X149587228Y-83721171D01*
X149551514Y-83864028D01*
X149515800Y-83935457D01*
X149480085Y-83971171D01*
X149408657Y-84006885D01*
X149337228Y-84006885D01*
X149265800Y-83971171D01*
X149230085Y-83935457D01*
X149194371Y-83864028D01*
X149158657Y-83721171D01*
X149158657Y-83542600D01*
X149194371Y-83399742D01*
X149230085Y-83328314D01*
X149265800Y-83292600D01*
X149337228Y-83256885D01*
%TO.C,C21*%
X150444657Y-83960857D02*
X150408942Y-83996571D01*
X150301800Y-84032285D01*
X150230371Y-84032285D01*
X150123228Y-83996571D01*
X150051800Y-83925142D01*
X150016085Y-83853714D01*
X149980371Y-83710857D01*
X149980371Y-83603714D01*
X150016085Y-83460857D01*
X150051800Y-83389428D01*
X150123228Y-83318000D01*
X150230371Y-83282285D01*
X150301800Y-83282285D01*
X150408942Y-83318000D01*
X150444657Y-83353714D01*
X150730371Y-83353714D02*
X150766085Y-83318000D01*
X150837514Y-83282285D01*
X151016085Y-83282285D01*
X151087514Y-83318000D01*
X151123228Y-83353714D01*
X151158942Y-83425142D01*
X151158942Y-83496571D01*
X151123228Y-83603714D01*
X150694657Y-84032285D01*
X151158942Y-84032285D01*
X151873228Y-84032285D02*
X151444657Y-84032285D01*
X151658942Y-84032285D02*
X151658942Y-83282285D01*
X151587514Y-83389428D01*
X151516085Y-83460857D01*
X151444657Y-83496571D01*
%TO.C,R1*%
X133898100Y-72729285D02*
X133648100Y-72372142D01*
X133469528Y-72729285D02*
X133469528Y-71979285D01*
X133755242Y-71979285D01*
X133826671Y-72015000D01*
X133862385Y-72050714D01*
X133898100Y-72122142D01*
X133898100Y-72229285D01*
X133862385Y-72300714D01*
X133826671Y-72336428D01*
X133755242Y-72372142D01*
X133469528Y-72372142D01*
X134612385Y-72729285D02*
X134183814Y-72729285D01*
X134398100Y-72729285D02*
X134398100Y-71979285D01*
X134326671Y-72086428D01*
X134255242Y-72157857D01*
X134183814Y-72193571D01*
%TO.C,R2*%
X133796500Y-76221785D02*
X133546500Y-75864642D01*
X133367928Y-76221785D02*
X133367928Y-75471785D01*
X133653642Y-75471785D01*
X133725071Y-75507500D01*
X133760785Y-75543214D01*
X133796500Y-75614642D01*
X133796500Y-75721785D01*
X133760785Y-75793214D01*
X133725071Y-75828928D01*
X133653642Y-75864642D01*
X133367928Y-75864642D01*
X134082214Y-75543214D02*
X134117928Y-75507500D01*
X134189357Y-75471785D01*
X134367928Y-75471785D01*
X134439357Y-75507500D01*
X134475071Y-75543214D01*
X134510785Y-75614642D01*
X134510785Y-75686071D01*
X134475071Y-75793214D01*
X134046500Y-76221785D01*
X134510785Y-76221785D01*
%TO.C,R3*%
X126494000Y-88477285D02*
X126244000Y-88120142D01*
X126065428Y-88477285D02*
X126065428Y-87727285D01*
X126351142Y-87727285D01*
X126422571Y-87763000D01*
X126458285Y-87798714D01*
X126494000Y-87870142D01*
X126494000Y-87977285D01*
X126458285Y-88048714D01*
X126422571Y-88084428D01*
X126351142Y-88120142D01*
X126065428Y-88120142D01*
X126744000Y-87727285D02*
X127208285Y-87727285D01*
X126958285Y-88013000D01*
X127065428Y-88013000D01*
X127136857Y-88048714D01*
X127172571Y-88084428D01*
X127208285Y-88155857D01*
X127208285Y-88334428D01*
X127172571Y-88405857D01*
X127136857Y-88441571D01*
X127065428Y-88477285D01*
X126851142Y-88477285D01*
X126779714Y-88441571D01*
X126744000Y-88405857D01*
%TO.C,R4*%
X128792700Y-88489985D02*
X128542700Y-88132842D01*
X128364128Y-88489985D02*
X128364128Y-87739985D01*
X128649842Y-87739985D01*
X128721271Y-87775700D01*
X128756985Y-87811414D01*
X128792700Y-87882842D01*
X128792700Y-87989985D01*
X128756985Y-88061414D01*
X128721271Y-88097128D01*
X128649842Y-88132842D01*
X128364128Y-88132842D01*
X129435557Y-87989985D02*
X129435557Y-88489985D01*
X129256985Y-87704271D02*
X129078414Y-88239985D01*
X129542700Y-88239985D01*
%TO.C,R5*%
X131358100Y-88451885D02*
X131108100Y-88094742D01*
X130929528Y-88451885D02*
X130929528Y-87701885D01*
X131215242Y-87701885D01*
X131286671Y-87737600D01*
X131322385Y-87773314D01*
X131358100Y-87844742D01*
X131358100Y-87951885D01*
X131322385Y-88023314D01*
X131286671Y-88059028D01*
X131215242Y-88094742D01*
X130929528Y-88094742D01*
X132036671Y-87701885D02*
X131679528Y-87701885D01*
X131643814Y-88059028D01*
X131679528Y-88023314D01*
X131750957Y-87987600D01*
X131929528Y-87987600D01*
X132000957Y-88023314D01*
X132036671Y-88059028D01*
X132072385Y-88130457D01*
X132072385Y-88309028D01*
X132036671Y-88380457D01*
X132000957Y-88416171D01*
X131929528Y-88451885D01*
X131750957Y-88451885D01*
X131679528Y-88416171D01*
X131643814Y-88380457D01*
%TO.C,R6*%
X141886400Y-77936285D02*
X141636400Y-77579142D01*
X141457828Y-77936285D02*
X141457828Y-77186285D01*
X141743542Y-77186285D01*
X141814971Y-77222000D01*
X141850685Y-77257714D01*
X141886400Y-77329142D01*
X141886400Y-77436285D01*
X141850685Y-77507714D01*
X141814971Y-77543428D01*
X141743542Y-77579142D01*
X141457828Y-77579142D01*
X142529257Y-77186285D02*
X142386400Y-77186285D01*
X142314971Y-77222000D01*
X142279257Y-77257714D01*
X142207828Y-77364857D01*
X142172114Y-77507714D01*
X142172114Y-77793428D01*
X142207828Y-77864857D01*
X142243542Y-77900571D01*
X142314971Y-77936285D01*
X142457828Y-77936285D01*
X142529257Y-77900571D01*
X142564971Y-77864857D01*
X142600685Y-77793428D01*
X142600685Y-77614857D01*
X142564971Y-77543428D01*
X142529257Y-77507714D01*
X142457828Y-77472000D01*
X142314971Y-77472000D01*
X142243542Y-77507714D01*
X142207828Y-77543428D01*
X142172114Y-77614857D01*
%TO.C,R7*%
X133974300Y-88477285D02*
X133724300Y-88120142D01*
X133545728Y-88477285D02*
X133545728Y-87727285D01*
X133831442Y-87727285D01*
X133902871Y-87763000D01*
X133938585Y-87798714D01*
X133974300Y-87870142D01*
X133974300Y-87977285D01*
X133938585Y-88048714D01*
X133902871Y-88084428D01*
X133831442Y-88120142D01*
X133545728Y-88120142D01*
X134224300Y-87727285D02*
X134724300Y-87727285D01*
X134402871Y-88477285D01*
%TO.C,R8*%
X136501600Y-88464585D02*
X136251600Y-88107442D01*
X136073028Y-88464585D02*
X136073028Y-87714585D01*
X136358742Y-87714585D01*
X136430171Y-87750300D01*
X136465885Y-87786014D01*
X136501600Y-87857442D01*
X136501600Y-87964585D01*
X136465885Y-88036014D01*
X136430171Y-88071728D01*
X136358742Y-88107442D01*
X136073028Y-88107442D01*
X136930171Y-88036014D02*
X136858742Y-88000300D01*
X136823028Y-87964585D01*
X136787314Y-87893157D01*
X136787314Y-87857442D01*
X136823028Y-87786014D01*
X136858742Y-87750300D01*
X136930171Y-87714585D01*
X137073028Y-87714585D01*
X137144457Y-87750300D01*
X137180171Y-87786014D01*
X137215885Y-87857442D01*
X137215885Y-87893157D01*
X137180171Y-87964585D01*
X137144457Y-88000300D01*
X137073028Y-88036014D01*
X136930171Y-88036014D01*
X136858742Y-88071728D01*
X136823028Y-88107442D01*
X136787314Y-88178871D01*
X136787314Y-88321728D01*
X136823028Y-88393157D01*
X136858742Y-88428871D01*
X136930171Y-88464585D01*
X137073028Y-88464585D01*
X137144457Y-88428871D01*
X137180171Y-88393157D01*
X137215885Y-88321728D01*
X137215885Y-88178871D01*
X137180171Y-88107442D01*
X137144457Y-88071728D01*
X137073028Y-88036014D01*
%TO.C,R9*%
X144147000Y-75649285D02*
X143897000Y-75292142D01*
X143718428Y-75649285D02*
X143718428Y-74899285D01*
X144004142Y-74899285D01*
X144075571Y-74935000D01*
X144111285Y-74970714D01*
X144147000Y-75042142D01*
X144147000Y-75149285D01*
X144111285Y-75220714D01*
X144075571Y-75256428D01*
X144004142Y-75292142D01*
X143718428Y-75292142D01*
X144504142Y-75649285D02*
X144647000Y-75649285D01*
X144718428Y-75613571D01*
X144754142Y-75577857D01*
X144825571Y-75470714D01*
X144861285Y-75327857D01*
X144861285Y-75042142D01*
X144825571Y-74970714D01*
X144789857Y-74935000D01*
X144718428Y-74899285D01*
X144575571Y-74899285D01*
X144504142Y-74935000D01*
X144468428Y-74970714D01*
X144432714Y-75042142D01*
X144432714Y-75220714D01*
X144468428Y-75292142D01*
X144504142Y-75327857D01*
X144575571Y-75363571D01*
X144718428Y-75363571D01*
X144789857Y-75327857D01*
X144825571Y-75292142D01*
X144861285Y-75220714D01*
%TO.C,R10*%
X144805857Y-68487485D02*
X144555857Y-68130342D01*
X144377285Y-68487485D02*
X144377285Y-67737485D01*
X144663000Y-67737485D01*
X144734428Y-67773200D01*
X144770142Y-67808914D01*
X144805857Y-67880342D01*
X144805857Y-67987485D01*
X144770142Y-68058914D01*
X144734428Y-68094628D01*
X144663000Y-68130342D01*
X144377285Y-68130342D01*
X145520142Y-68487485D02*
X145091571Y-68487485D01*
X145305857Y-68487485D02*
X145305857Y-67737485D01*
X145234428Y-67844628D01*
X145163000Y-67916057D01*
X145091571Y-67951771D01*
X145984428Y-67737485D02*
X146055857Y-67737485D01*
X146127285Y-67773200D01*
X146163000Y-67808914D01*
X146198714Y-67880342D01*
X146234428Y-68023200D01*
X146234428Y-68201771D01*
X146198714Y-68344628D01*
X146163000Y-68416057D01*
X146127285Y-68451771D01*
X146055857Y-68487485D01*
X145984428Y-68487485D01*
X145913000Y-68451771D01*
X145877285Y-68416057D01*
X145841571Y-68344628D01*
X145805857Y-68201771D01*
X145805857Y-68023200D01*
X145841571Y-67880342D01*
X145877285Y-67808914D01*
X145913000Y-67773200D01*
X145984428Y-67737485D01*
%TO.C,R11*%
X148095157Y-68449385D02*
X147845157Y-68092242D01*
X147666585Y-68449385D02*
X147666585Y-67699385D01*
X147952300Y-67699385D01*
X148023728Y-67735100D01*
X148059442Y-67770814D01*
X148095157Y-67842242D01*
X148095157Y-67949385D01*
X148059442Y-68020814D01*
X148023728Y-68056528D01*
X147952300Y-68092242D01*
X147666585Y-68092242D01*
X148809442Y-68449385D02*
X148380871Y-68449385D01*
X148595157Y-68449385D02*
X148595157Y-67699385D01*
X148523728Y-67806528D01*
X148452300Y-67877957D01*
X148380871Y-67913671D01*
X149523728Y-68449385D02*
X149095157Y-68449385D01*
X149309442Y-68449385D02*
X149309442Y-67699385D01*
X149238014Y-67806528D01*
X149166585Y-67877957D01*
X149095157Y-67913671D01*
%TO.C,R12*%
X152324257Y-79892085D02*
X152074257Y-79534942D01*
X151895685Y-79892085D02*
X151895685Y-79142085D01*
X152181400Y-79142085D01*
X152252828Y-79177800D01*
X152288542Y-79213514D01*
X152324257Y-79284942D01*
X152324257Y-79392085D01*
X152288542Y-79463514D01*
X152252828Y-79499228D01*
X152181400Y-79534942D01*
X151895685Y-79534942D01*
X153038542Y-79892085D02*
X152609971Y-79892085D01*
X152824257Y-79892085D02*
X152824257Y-79142085D01*
X152752828Y-79249228D01*
X152681400Y-79320657D01*
X152609971Y-79356371D01*
X153324257Y-79213514D02*
X153359971Y-79177800D01*
X153431400Y-79142085D01*
X153609971Y-79142085D01*
X153681400Y-79177800D01*
X153717114Y-79213514D01*
X153752828Y-79284942D01*
X153752828Y-79356371D01*
X153717114Y-79463514D01*
X153288542Y-79892085D01*
X153752828Y-79892085D01*
%TO.C,R13*%
X160410085Y-75285142D02*
X160052942Y-75535142D01*
X160410085Y-75713714D02*
X159660085Y-75713714D01*
X159660085Y-75428000D01*
X159695800Y-75356571D01*
X159731514Y-75320857D01*
X159802942Y-75285142D01*
X159910085Y-75285142D01*
X159981514Y-75320857D01*
X160017228Y-75356571D01*
X160052942Y-75428000D01*
X160052942Y-75713714D01*
X160410085Y-74570857D02*
X160410085Y-74999428D01*
X160410085Y-74785142D02*
X159660085Y-74785142D01*
X159767228Y-74856571D01*
X159838657Y-74928000D01*
X159874371Y-74999428D01*
X159660085Y-74320857D02*
X159660085Y-73856571D01*
X159945800Y-74106571D01*
X159945800Y-73999428D01*
X159981514Y-73928000D01*
X160017228Y-73892285D01*
X160088657Y-73856571D01*
X160267228Y-73856571D01*
X160338657Y-73892285D01*
X160374371Y-73928000D01*
X160410085Y-73999428D01*
X160410085Y-74213714D01*
X160374371Y-74285142D01*
X160338657Y-74320857D01*
%TO.C,R14*%
X159334657Y-80349285D02*
X159084657Y-79992142D01*
X158906085Y-80349285D02*
X158906085Y-79599285D01*
X159191800Y-79599285D01*
X159263228Y-79635000D01*
X159298942Y-79670714D01*
X159334657Y-79742142D01*
X159334657Y-79849285D01*
X159298942Y-79920714D01*
X159263228Y-79956428D01*
X159191800Y-79992142D01*
X158906085Y-79992142D01*
X160048942Y-80349285D02*
X159620371Y-80349285D01*
X159834657Y-80349285D02*
X159834657Y-79599285D01*
X159763228Y-79706428D01*
X159691800Y-79777857D01*
X159620371Y-79813571D01*
X160691800Y-79849285D02*
X160691800Y-80349285D01*
X160513228Y-79563571D02*
X160334657Y-80099285D01*
X160798942Y-80099285D01*
%TO.C,R16*%
X143485057Y-82787685D02*
X143235057Y-82430542D01*
X143056485Y-82787685D02*
X143056485Y-82037685D01*
X143342200Y-82037685D01*
X143413628Y-82073400D01*
X143449342Y-82109114D01*
X143485057Y-82180542D01*
X143485057Y-82287685D01*
X143449342Y-82359114D01*
X143413628Y-82394828D01*
X143342200Y-82430542D01*
X143056485Y-82430542D01*
X144199342Y-82787685D02*
X143770771Y-82787685D01*
X143985057Y-82787685D02*
X143985057Y-82037685D01*
X143913628Y-82144828D01*
X143842200Y-82216257D01*
X143770771Y-82251971D01*
X144842200Y-82037685D02*
X144699342Y-82037685D01*
X144627914Y-82073400D01*
X144592200Y-82109114D01*
X144520771Y-82216257D01*
X144485057Y-82359114D01*
X144485057Y-82644828D01*
X144520771Y-82716257D01*
X144556485Y-82751971D01*
X144627914Y-82787685D01*
X144770771Y-82787685D01*
X144842200Y-82751971D01*
X144877914Y-82716257D01*
X144913628Y-82644828D01*
X144913628Y-82466257D01*
X144877914Y-82394828D01*
X144842200Y-82359114D01*
X144770771Y-82323400D01*
X144627914Y-82323400D01*
X144556485Y-82359114D01*
X144520771Y-82394828D01*
X144485057Y-82466257D01*
%TO.C,U6*%
X142748095Y-84288380D02*
X142748095Y-85097904D01*
X142795714Y-85193142D01*
X142843333Y-85240761D01*
X142938571Y-85288380D01*
X143129047Y-85288380D01*
X143224285Y-85240761D01*
X143271904Y-85193142D01*
X143319523Y-85097904D01*
X143319523Y-84288380D01*
X144224285Y-84288380D02*
X144033809Y-84288380D01*
X143938571Y-84336000D01*
X143890952Y-84383619D01*
X143795714Y-84526476D01*
X143748095Y-84716952D01*
X143748095Y-85097904D01*
X143795714Y-85193142D01*
X143843333Y-85240761D01*
X143938571Y-85288380D01*
X144129047Y-85288380D01*
X144224285Y-85240761D01*
X144271904Y-85193142D01*
X144319523Y-85097904D01*
X144319523Y-84859809D01*
X144271904Y-84764571D01*
X144224285Y-84716952D01*
X144129047Y-84669333D01*
X143938571Y-84669333D01*
X143843333Y-84716952D01*
X143795714Y-84764571D01*
X143748095Y-84859809D01*
X141103350Y-81840580D02*
X141103350Y-82078676D01*
X140865254Y-81983438D02*
X141103350Y-82078676D01*
X141341445Y-81983438D01*
X140960492Y-82269152D02*
X141103350Y-82078676D01*
X141246207Y-82269152D01*
X141103350Y-81840580D02*
X141103350Y-82078676D01*
X140865254Y-81983438D02*
X141103350Y-82078676D01*
X141341445Y-81983438D01*
X140960492Y-82269152D02*
X141103350Y-82078676D01*
X141246207Y-82269152D01*
%TO.C,U7*%
X143002095Y-93432380D02*
X143002095Y-94241904D01*
X143049714Y-94337142D01*
X143097333Y-94384761D01*
X143192571Y-94432380D01*
X143383047Y-94432380D01*
X143478285Y-94384761D01*
X143525904Y-94337142D01*
X143573523Y-94241904D01*
X143573523Y-93432380D01*
X143954476Y-93432380D02*
X144621142Y-93432380D01*
X144192571Y-94432380D01*
X141357350Y-90984580D02*
X141357350Y-91222676D01*
X141119254Y-91127438D02*
X141357350Y-91222676D01*
X141595445Y-91127438D01*
X141214492Y-91413152D02*
X141357350Y-91222676D01*
X141500207Y-91413152D01*
X141357350Y-90984580D02*
X141357350Y-91222676D01*
X141119254Y-91127438D02*
X141357350Y-91222676D01*
X141595445Y-91127438D01*
X141214492Y-91413152D02*
X141357350Y-91222676D01*
X141500207Y-91413152D01*
%TO.C,U3*%
X149555295Y-72959980D02*
X149555295Y-73769504D01*
X149602914Y-73864742D01*
X149650533Y-73912361D01*
X149745771Y-73959980D01*
X149936247Y-73959980D01*
X150031485Y-73912361D01*
X150079104Y-73864742D01*
X150126723Y-73769504D01*
X150126723Y-72959980D01*
X150507676Y-72959980D02*
X151126723Y-72959980D01*
X150793390Y-73340933D01*
X150936247Y-73340933D01*
X151031485Y-73388552D01*
X151079104Y-73436171D01*
X151126723Y-73531409D01*
X151126723Y-73769504D01*
X151079104Y-73864742D01*
X151031485Y-73912361D01*
X150936247Y-73959980D01*
X150650533Y-73959980D01*
X150555295Y-73912361D01*
X150507676Y-73864742D01*
%TO.C,C22*%
X116447457Y-79526942D02*
X116483171Y-79562657D01*
X116518885Y-79669800D01*
X116518885Y-79741228D01*
X116483171Y-79848371D01*
X116411742Y-79919800D01*
X116340314Y-79955514D01*
X116197457Y-79991228D01*
X116090314Y-79991228D01*
X115947457Y-79955514D01*
X115876028Y-79919800D01*
X115804600Y-79848371D01*
X115768885Y-79741228D01*
X115768885Y-79669800D01*
X115804600Y-79562657D01*
X115840314Y-79526942D01*
X115840314Y-79241228D02*
X115804600Y-79205514D01*
X115768885Y-79134085D01*
X115768885Y-78955514D01*
X115804600Y-78884085D01*
X115840314Y-78848371D01*
X115911742Y-78812657D01*
X115983171Y-78812657D01*
X116090314Y-78848371D01*
X116518885Y-79276942D01*
X116518885Y-78812657D01*
X115840314Y-78526942D02*
X115804600Y-78491228D01*
X115768885Y-78419800D01*
X115768885Y-78241228D01*
X115804600Y-78169800D01*
X115840314Y-78134085D01*
X115911742Y-78098371D01*
X115983171Y-78098371D01*
X116090314Y-78134085D01*
X116518885Y-78562657D01*
X116518885Y-78098371D01*
%TO.C,C23*%
X121831557Y-80404857D02*
X121795842Y-80440571D01*
X121688700Y-80476285D01*
X121617271Y-80476285D01*
X121510128Y-80440571D01*
X121438700Y-80369142D01*
X121402985Y-80297714D01*
X121367271Y-80154857D01*
X121367271Y-80047714D01*
X121402985Y-79904857D01*
X121438700Y-79833428D01*
X121510128Y-79762000D01*
X121617271Y-79726285D01*
X121688700Y-79726285D01*
X121795842Y-79762000D01*
X121831557Y-79797714D01*
X122117271Y-79797714D02*
X122152985Y-79762000D01*
X122224414Y-79726285D01*
X122402985Y-79726285D01*
X122474414Y-79762000D01*
X122510128Y-79797714D01*
X122545842Y-79869142D01*
X122545842Y-79940571D01*
X122510128Y-80047714D01*
X122081557Y-80476285D01*
X122545842Y-80476285D01*
X122795842Y-79726285D02*
X123260128Y-79726285D01*
X123010128Y-80012000D01*
X123117271Y-80012000D01*
X123188700Y-80047714D01*
X123224414Y-80083428D01*
X123260128Y-80154857D01*
X123260128Y-80333428D01*
X123224414Y-80404857D01*
X123188700Y-80440571D01*
X123117271Y-80476285D01*
X122902985Y-80476285D01*
X122831557Y-80440571D01*
X122795842Y-80404857D01*
%TO.C,U4*%
X109042295Y-89838280D02*
X109042295Y-90647804D01*
X109089914Y-90743042D01*
X109137533Y-90790661D01*
X109232771Y-90838280D01*
X109423247Y-90838280D01*
X109518485Y-90790661D01*
X109566104Y-90743042D01*
X109613723Y-90647804D01*
X109613723Y-89838280D01*
X110518485Y-90171614D02*
X110518485Y-90838280D01*
X110280390Y-89790661D02*
X110042295Y-90504947D01*
X110661342Y-90504947D01*
%TO.C,C9*%
X150852600Y-91504657D02*
X150816885Y-91540371D01*
X150709742Y-91576085D01*
X150638314Y-91576085D01*
X150531171Y-91540371D01*
X150459742Y-91468942D01*
X150424028Y-91397514D01*
X150388314Y-91254657D01*
X150388314Y-91147514D01*
X150424028Y-91004657D01*
X150459742Y-90933228D01*
X150531171Y-90861800D01*
X150638314Y-90826085D01*
X150709742Y-90826085D01*
X150816885Y-90861800D01*
X150852600Y-90897514D01*
X151209742Y-91576085D02*
X151352600Y-91576085D01*
X151424028Y-91540371D01*
X151459742Y-91504657D01*
X151531171Y-91397514D01*
X151566885Y-91254657D01*
X151566885Y-90968942D01*
X151531171Y-90897514D01*
X151495457Y-90861800D01*
X151424028Y-90826085D01*
X151281171Y-90826085D01*
X151209742Y-90861800D01*
X151174028Y-90897514D01*
X151138314Y-90968942D01*
X151138314Y-91147514D01*
X151174028Y-91218942D01*
X151209742Y-91254657D01*
X151281171Y-91290371D01*
X151424028Y-91290371D01*
X151495457Y-91254657D01*
X151531171Y-91218942D01*
X151566885Y-91147514D01*
%TO.C,C12*%
X149936657Y-96863057D02*
X149900942Y-96898771D01*
X149793800Y-96934485D01*
X149722371Y-96934485D01*
X149615228Y-96898771D01*
X149543800Y-96827342D01*
X149508085Y-96755914D01*
X149472371Y-96613057D01*
X149472371Y-96505914D01*
X149508085Y-96363057D01*
X149543800Y-96291628D01*
X149615228Y-96220200D01*
X149722371Y-96184485D01*
X149793800Y-96184485D01*
X149900942Y-96220200D01*
X149936657Y-96255914D01*
X150650942Y-96934485D02*
X150222371Y-96934485D01*
X150436657Y-96934485D02*
X150436657Y-96184485D01*
X150365228Y-96291628D01*
X150293800Y-96363057D01*
X150222371Y-96398771D01*
X150936657Y-96255914D02*
X150972371Y-96220200D01*
X151043800Y-96184485D01*
X151222371Y-96184485D01*
X151293800Y-96220200D01*
X151329514Y-96255914D01*
X151365228Y-96327342D01*
X151365228Y-96398771D01*
X151329514Y-96505914D01*
X150900942Y-96934485D01*
X151365228Y-96934485D01*
%TO.C,C24*%
X159080657Y-92317457D02*
X159044942Y-92353171D01*
X158937800Y-92388885D01*
X158866371Y-92388885D01*
X158759228Y-92353171D01*
X158687800Y-92281742D01*
X158652085Y-92210314D01*
X158616371Y-92067457D01*
X158616371Y-91960314D01*
X158652085Y-91817457D01*
X158687800Y-91746028D01*
X158759228Y-91674600D01*
X158866371Y-91638885D01*
X158937800Y-91638885D01*
X159044942Y-91674600D01*
X159080657Y-91710314D01*
X159366371Y-91710314D02*
X159402085Y-91674600D01*
X159473514Y-91638885D01*
X159652085Y-91638885D01*
X159723514Y-91674600D01*
X159759228Y-91710314D01*
X159794942Y-91781742D01*
X159794942Y-91853171D01*
X159759228Y-91960314D01*
X159330657Y-92388885D01*
X159794942Y-92388885D01*
X160437800Y-91888885D02*
X160437800Y-92388885D01*
X160259228Y-91603171D02*
X160080657Y-92138885D01*
X160544942Y-92138885D01*
%TO.C,C25*%
X159233057Y-95568657D02*
X159197342Y-95604371D01*
X159090200Y-95640085D01*
X159018771Y-95640085D01*
X158911628Y-95604371D01*
X158840200Y-95532942D01*
X158804485Y-95461514D01*
X158768771Y-95318657D01*
X158768771Y-95211514D01*
X158804485Y-95068657D01*
X158840200Y-94997228D01*
X158911628Y-94925800D01*
X159018771Y-94890085D01*
X159090200Y-94890085D01*
X159197342Y-94925800D01*
X159233057Y-94961514D01*
X159518771Y-94961514D02*
X159554485Y-94925800D01*
X159625914Y-94890085D01*
X159804485Y-94890085D01*
X159875914Y-94925800D01*
X159911628Y-94961514D01*
X159947342Y-95032942D01*
X159947342Y-95104371D01*
X159911628Y-95211514D01*
X159483057Y-95640085D01*
X159947342Y-95640085D01*
X160625914Y-94890085D02*
X160268771Y-94890085D01*
X160233057Y-95247228D01*
X160268771Y-95211514D01*
X160340200Y-95175800D01*
X160518771Y-95175800D01*
X160590200Y-95211514D01*
X160625914Y-95247228D01*
X160661628Y-95318657D01*
X160661628Y-95497228D01*
X160625914Y-95568657D01*
X160590200Y-95604371D01*
X160518771Y-95640085D01*
X160340200Y-95640085D01*
X160268771Y-95604371D01*
X160233057Y-95568657D01*
%TO.C,C26*%
X154762657Y-84392657D02*
X154726942Y-84428371D01*
X154619800Y-84464085D01*
X154548371Y-84464085D01*
X154441228Y-84428371D01*
X154369800Y-84356942D01*
X154334085Y-84285514D01*
X154298371Y-84142657D01*
X154298371Y-84035514D01*
X154334085Y-83892657D01*
X154369800Y-83821228D01*
X154441228Y-83749800D01*
X154548371Y-83714085D01*
X154619800Y-83714085D01*
X154726942Y-83749800D01*
X154762657Y-83785514D01*
X155048371Y-83785514D02*
X155084085Y-83749800D01*
X155155514Y-83714085D01*
X155334085Y-83714085D01*
X155405514Y-83749800D01*
X155441228Y-83785514D01*
X155476942Y-83856942D01*
X155476942Y-83928371D01*
X155441228Y-84035514D01*
X155012657Y-84464085D01*
X155476942Y-84464085D01*
X156119800Y-83714085D02*
X155976942Y-83714085D01*
X155905514Y-83749800D01*
X155869800Y-83785514D01*
X155798371Y-83892657D01*
X155762657Y-84035514D01*
X155762657Y-84321228D01*
X155798371Y-84392657D01*
X155834085Y-84428371D01*
X155905514Y-84464085D01*
X156048371Y-84464085D01*
X156119800Y-84428371D01*
X156155514Y-84392657D01*
X156191228Y-84321228D01*
X156191228Y-84142657D01*
X156155514Y-84071228D01*
X156119800Y-84035514D01*
X156048371Y-83999800D01*
X155905514Y-83999800D01*
X155834085Y-84035514D01*
X155798371Y-84071228D01*
X155762657Y-84142657D01*
%TO.C,C27*%
X152629057Y-84396228D02*
X152593342Y-84432419D01*
X152486200Y-84468609D01*
X152414771Y-84468609D01*
X152307628Y-84432419D01*
X152236200Y-84360038D01*
X152200485Y-84287657D01*
X152164771Y-84142895D01*
X152164771Y-84034323D01*
X152200485Y-83889561D01*
X152236200Y-83817180D01*
X152307628Y-83744800D01*
X152414771Y-83708609D01*
X152486200Y-83708609D01*
X152593342Y-83744800D01*
X152629057Y-83780990D01*
X152914771Y-83780990D02*
X152950485Y-83744800D01*
X153021914Y-83708609D01*
X153200485Y-83708609D01*
X153271914Y-83744800D01*
X153307628Y-83780990D01*
X153343342Y-83853371D01*
X153343342Y-83925752D01*
X153307628Y-84034323D01*
X152879057Y-84468609D01*
X153343342Y-84468609D01*
X153593342Y-83708609D02*
X154093342Y-83708609D01*
X153771914Y-84468609D01*
%TO.C,R15*%
X152984657Y-89950485D02*
X152734657Y-89593342D01*
X152556085Y-89950485D02*
X152556085Y-89200485D01*
X152841800Y-89200485D01*
X152913228Y-89236200D01*
X152948942Y-89271914D01*
X152984657Y-89343342D01*
X152984657Y-89450485D01*
X152948942Y-89521914D01*
X152913228Y-89557628D01*
X152841800Y-89593342D01*
X152556085Y-89593342D01*
X153698942Y-89950485D02*
X153270371Y-89950485D01*
X153484657Y-89950485D02*
X153484657Y-89200485D01*
X153413228Y-89307628D01*
X153341800Y-89379057D01*
X153270371Y-89414771D01*
X154377514Y-89200485D02*
X154020371Y-89200485D01*
X153984657Y-89557628D01*
X154020371Y-89521914D01*
X154091800Y-89486200D01*
X154270371Y-89486200D01*
X154341800Y-89521914D01*
X154377514Y-89557628D01*
X154413228Y-89629057D01*
X154413228Y-89807628D01*
X154377514Y-89879057D01*
X154341800Y-89914771D01*
X154270371Y-89950485D01*
X154091800Y-89950485D01*
X154020371Y-89914771D01*
X153984657Y-89879057D01*
%TO.C,R17*%
X156185057Y-98383285D02*
X155935057Y-98026142D01*
X155756485Y-98383285D02*
X155756485Y-97633285D01*
X156042200Y-97633285D01*
X156113628Y-97669000D01*
X156149342Y-97704714D01*
X156185057Y-97776142D01*
X156185057Y-97883285D01*
X156149342Y-97954714D01*
X156113628Y-97990428D01*
X156042200Y-98026142D01*
X155756485Y-98026142D01*
X156899342Y-98383285D02*
X156470771Y-98383285D01*
X156685057Y-98383285D02*
X156685057Y-97633285D01*
X156613628Y-97740428D01*
X156542200Y-97811857D01*
X156470771Y-97847571D01*
X157149342Y-97633285D02*
X157649342Y-97633285D01*
X157327914Y-98383285D01*
%TO.C,R18*%
X155270657Y-89950485D02*
X155020657Y-89593342D01*
X154842085Y-89950485D02*
X154842085Y-89200485D01*
X155127800Y-89200485D01*
X155199228Y-89236200D01*
X155234942Y-89271914D01*
X155270657Y-89343342D01*
X155270657Y-89450485D01*
X155234942Y-89521914D01*
X155199228Y-89557628D01*
X155127800Y-89593342D01*
X154842085Y-89593342D01*
X155984942Y-89950485D02*
X155556371Y-89950485D01*
X155770657Y-89950485D02*
X155770657Y-89200485D01*
X155699228Y-89307628D01*
X155627800Y-89379057D01*
X155556371Y-89414771D01*
X156413514Y-89521914D02*
X156342085Y-89486200D01*
X156306371Y-89450485D01*
X156270657Y-89379057D01*
X156270657Y-89343342D01*
X156306371Y-89271914D01*
X156342085Y-89236200D01*
X156413514Y-89200485D01*
X156556371Y-89200485D01*
X156627800Y-89236200D01*
X156663514Y-89271914D01*
X156699228Y-89343342D01*
X156699228Y-89379057D01*
X156663514Y-89450485D01*
X156627800Y-89486200D01*
X156556371Y-89521914D01*
X156413514Y-89521914D01*
X156342085Y-89557628D01*
X156306371Y-89593342D01*
X156270657Y-89664771D01*
X156270657Y-89807628D01*
X156306371Y-89879057D01*
X156342085Y-89914771D01*
X156413514Y-89950485D01*
X156556371Y-89950485D01*
X156627800Y-89914771D01*
X156663514Y-89879057D01*
X156699228Y-89807628D01*
X156699228Y-89664771D01*
X156663514Y-89593342D01*
X156627800Y-89557628D01*
X156556371Y-89521914D01*
%TO.C,R19*%
X158471057Y-98383285D02*
X158221057Y-98026142D01*
X158042485Y-98383285D02*
X158042485Y-97633285D01*
X158328200Y-97633285D01*
X158399628Y-97669000D01*
X158435342Y-97704714D01*
X158471057Y-97776142D01*
X158471057Y-97883285D01*
X158435342Y-97954714D01*
X158399628Y-97990428D01*
X158328200Y-98026142D01*
X158042485Y-98026142D01*
X159185342Y-98383285D02*
X158756771Y-98383285D01*
X158971057Y-98383285D02*
X158971057Y-97633285D01*
X158899628Y-97740428D01*
X158828200Y-97811857D01*
X158756771Y-97847571D01*
X159542485Y-98383285D02*
X159685342Y-98383285D01*
X159756771Y-98347571D01*
X159792485Y-98311857D01*
X159863914Y-98204714D01*
X159899628Y-98061857D01*
X159899628Y-97776142D01*
X159863914Y-97704714D01*
X159828200Y-97669000D01*
X159756771Y-97633285D01*
X159613914Y-97633285D01*
X159542485Y-97669000D01*
X159506771Y-97704714D01*
X159471057Y-97776142D01*
X159471057Y-97954714D01*
X159506771Y-98026142D01*
X159542485Y-98061857D01*
X159613914Y-98097571D01*
X159756771Y-98097571D01*
X159828200Y-98061857D01*
X159863914Y-98026142D01*
X159899628Y-97954714D01*
%TO.C,U2*%
X117824880Y-73151904D02*
X118634404Y-73151904D01*
X118729642Y-73104285D01*
X118777261Y-73056666D01*
X118824880Y-72961428D01*
X118824880Y-72770952D01*
X118777261Y-72675714D01*
X118729642Y-72628095D01*
X118634404Y-72580476D01*
X117824880Y-72580476D01*
X117920119Y-72151904D02*
X117872500Y-72104285D01*
X117824880Y-72009047D01*
X117824880Y-71770952D01*
X117872500Y-71675714D01*
X117920119Y-71628095D01*
X118015357Y-71580476D01*
X118110595Y-71580476D01*
X118253452Y-71628095D01*
X118824880Y-72199523D01*
X118824880Y-71580476D01*
%TD*%
M02*
